<svg width="365" height="365" viewBox="0 0 365 365" fill="none" xmlns="http://www.w3.org/2000/svg">
<path d="M68.83 138.528L47.75 177.696H91.95V151.448C91.95 141.52 92.6301 127.92 93.3101 115.816C93.4501 112.144 93.72 108.608 93.86 105.48L93.99 101.264H85.83L84.74 103.712C79.85 115.272 74.14 127.104 68.83 138.528ZM83.79 151.448V169.536H61.49L76.1801 142.336L76.3101 142.2C79.1701 136.216 82.02 130.096 84.88 123.976C84.2 133.632 83.79 143.56 83.79 151.448ZM350.22 154.304C350.22 239.168 281.26 308.12 196.4 308.12C155.74 308.12 117.25 292.344 88.28 263.784C87.06 262.56 84.88 259.976 83.79 258.752V217.68H0.699951V175.52L1.23999 174.568L68.83 58.016H141.18V169.4H162.13V217.544H137.1V209.384H153.97V177.56H133.02V66.176H73.59L8.85999 177.696V209.384H91.95V255.624C92.63 256.304 93.31 256.984 93.99 257.664C121.46 284.728 157.78 299.688 196.26 299.688C276.64 299.688 341.92 234.272 341.92 154.032C341.92 73.656 276.5 8.37601 196.26 8.37601C163.9 8.37601 133.3 18.712 107.73 38.432L102.7 31.904C129.76 11.096 162.13 0.216003 196.26 0.216003C281.13 0.352003 350.22 69.44 350.22 154.304Z" fill="#A4238C" fill-opacity="0.3"/>
<path d="M120.92 222.576L202.66 304.312C206.19 304.584 206.46 304.856 210 304.312C269.84 294.656 334.3 246.104 340.83 169.808C340.97 167.768 340.42 170.352 340.42 168.448L276.5 104.528L120.92 222.576Z" fill="url(#paint0_radial_1_64)"/>
<path d="M290.24 154.712C290.24 208.976 246.31 253.04 191.91 253.04C137.65 253.04 93.5798 208.976 93.5798 154.712C93.5798 100.448 137.65 56.384 191.91 56.384C246.18 56.52 290.24 100.448 290.24 154.712Z" fill="white"/>
<path d="M290.24 154.712C290.24 129.688 280.86 106.976 265.62 89.568C247.67 70.8 222.51 59.104 194.5 59.104C140.23 59.104 96.1699 103.168 96.1699 157.432C96.1699 182.456 105.55 205.168 120.78 222.576C138.74 241.344 163.9 253.04 191.91 253.04C246.18 253.04 290.24 208.976 290.24 154.712Z" fill="url(#paint1_radial_1_64)"/>
<path d="M280.31 111.6C285.75 123.84 288.74 137.304 288.74 151.584C288.74 205.848 244.68 249.912 190.42 249.912C157.78 249.912 128.94 234 110.99 209.52C113.85 214.144 117.11 218.496 120.78 222.576C138.74 241.344 163.9 253.04 191.91 253.04C246.18 253.04 290.24 208.976 290.24 154.712C290.24 139.344 286.7 124.656 280.31 111.6Z" fill="#EDEEF0"/>
<path d="M26.37 345.852V348.79H21.53V364H17.89V348.79H13.0601V345.852H26.37ZM42.42 356.486C42.42 357.006 42.3801 357.474 42.3101 357.89H31.78C31.87 358.93 32.23 359.745 32.87 360.334C33.51 360.923 34.3 361.218 35.24 361.218C36.59 361.218 37.55 360.637 38.13 359.476H42.05C41.64 360.863 40.84 362.007 39.66 362.908C38.48 363.792 37.0299 364.234 35.3199 364.234C33.9299 364.234 32.6799 363.931 31.5699 363.324C30.4799 362.7 29.62 361.825 29 360.698C28.39 359.571 28.09 358.271 28.09 356.798C28.09 355.307 28.39 353.999 29 352.872C29.61 351.745 30.46 350.879 31.55 350.272C32.64 349.665 33.8999 349.362 35.3199 349.362C36.6899 349.362 37.91 349.657 38.98 350.246C40.08 350.835 40.92 351.676 41.51 352.768C42.11 353.843 42.42 355.082 42.42 356.486ZM38.65 355.446C38.63 354.51 38.29 353.765 37.63 353.21C36.97 352.638 36.17 352.352 35.21 352.352C34.31 352.352 33.5501 352.629 32.9301 353.184C32.3201 353.721 31.9501 354.475 31.8101 355.446H38.65ZM44.14 356.798C44.14 355.307 44.44 354.007 45.05 352.898C45.65 351.771 46.4899 350.905 47.5699 350.298C48.6399 349.674 49.87 349.362 51.26 349.362C53.05 349.362 54.5201 349.813 55.6801 350.714C56.8601 351.598 57.65 352.846 58.05 354.458H54.12C53.91 353.834 53.56 353.349 53.05 353.002C52.57 352.638 51.96 352.456 51.23 352.456C50.19 352.456 49.37 352.837 48.76 353.6C48.16 354.345 47.85 355.411 47.85 356.798C47.85 358.167 48.16 359.233 48.76 359.996C49.37 360.741 50.19 361.114 51.23 361.114C52.71 361.114 53.67 360.455 54.12 359.138H58.05C57.65 360.698 56.8601 361.937 55.6801 362.856C54.5001 363.775 53.03 364.234 51.26 364.234C49.87 364.234 48.6399 363.931 47.5699 363.324C46.4899 362.7 45.65 361.833 45.05 360.724C44.44 359.597 44.14 358.289 44.14 356.798ZM68.8199 349.388C69.9199 349.388 70.89 349.631 71.74 350.116C72.59 350.584 73.24 351.286 73.71 352.222C74.2 353.141 74.4399 354.25 74.4399 355.55V364H70.8V356.044C70.8 354.9 70.5099 354.025 69.9399 353.418C69.3699 352.794 68.59 352.482 67.6 352.482C66.6 352.482 65.8 352.794 65.21 353.418C64.64 354.025 64.35 354.9 64.35 356.044V364H60.71V344.76H64.35V351.39C64.82 350.766 65.44 350.281 66.22 349.934C67 349.57 67.8699 349.388 68.8199 349.388ZM85.88 349.388C87.6 349.388 88.99 349.934 90.04 351.026C91.1 352.101 91.63 353.609 91.63 355.55V364H87.99V356.044C87.99 354.9 87.7 354.025 87.13 353.418C86.56 352.794 85.78 352.482 84.79 352.482C83.79 352.482 82.99 352.794 82.4 353.418C81.83 354.025 81.54 354.9 81.54 356.044V364H77.9V349.596H81.54V351.39C82.03 350.766 82.64 350.281 83.39 349.934C84.15 349.57 84.98 349.388 85.88 349.388ZM96.9399 347.88C96.2999 347.88 95.76 347.681 95.33 347.282C94.91 346.866 94.7 346.355 94.7 345.748C94.7 345.141 94.91 344.639 95.33 344.24C95.76 343.824 96.2999 343.616 96.9399 343.616C97.5799 343.616 98.11 343.824 98.52 344.24C98.96 344.639 99.17 345.141 99.17 345.748C99.17 346.355 98.96 346.866 98.52 347.282C98.11 347.681 97.5799 347.88 96.9399 347.88ZM98.73 349.596V364H95.09V349.596H98.73ZM101.39 356.798C101.39 355.307 101.7 354.007 102.3 352.898C102.91 351.771 103.75 350.905 104.82 350.298C105.9 349.674 107.13 349.362 108.52 349.362C110.3 349.362 111.77 349.813 112.94 350.714C114.11 351.598 114.9 352.846 115.3 354.458H111.38C111.17 353.834 110.81 353.349 110.31 353.002C109.82 352.638 109.22 352.456 108.49 352.456C107.45 352.456 106.63 352.837 106.02 353.6C105.41 354.345 105.11 355.411 105.11 356.798C105.11 358.167 105.41 359.233 106.02 359.996C106.63 360.741 107.45 361.114 108.49 361.114C109.96 361.114 110.93 360.455 111.38 359.138H115.3C114.9 360.698 114.11 361.937 112.94 362.856C111.76 363.775 110.28 364.234 108.52 364.234C107.13 364.234 105.9 363.931 104.82 363.324C103.75 362.7 102.91 361.833 102.3 360.724C101.7 359.597 101.39 358.289 101.39 356.798ZM117.03 356.746C117.03 355.29 117.32 353.999 117.89 352.872C118.48 351.745 119.27 350.879 120.26 350.272C121.26 349.665 122.38 349.362 123.61 349.362C124.69 349.362 125.62 349.579 126.42 350.012C127.23 350.445 127.88 350.991 128.37 351.65V349.596H132.03V364H128.37V361.894C127.9 362.57 127.25 363.133 126.42 363.584C125.6 364.017 124.66 364.234 123.58 364.234C122.37 364.234 121.26 363.922 120.26 363.298C119.27 362.674 118.48 361.799 117.89 360.672C117.32 359.528 117.03 358.219 117.03 356.746ZM128.37 356.798C128.37 355.914 128.2 355.16 127.85 354.536C127.5 353.895 127.03 353.409 126.44 353.08C125.86 352.733 125.22 352.56 124.55 352.56C123.87 352.56 123.25 352.725 122.67 353.054C122.1 353.383 121.63 353.869 121.27 354.51C120.92 355.134 120.75 355.879 120.75 356.746C120.75 357.613 120.92 358.375 121.27 359.034C121.63 359.675 122.1 360.169 122.67 360.516C123.26 360.863 123.89 361.036 124.55 361.036C125.22 361.036 125.86 360.871 126.44 360.542C127.03 360.195 127.5 359.71 127.85 359.086C128.2 358.445 128.37 357.682 128.37 356.798ZM139.23 344.76V364H135.59V344.76H139.23ZM162.98 364L161.01 362.05C159.33 363.558 157.27 364.312 154.85 364.312C153.51 364.312 152.33 364.087 151.31 363.636C150.3 363.168 149.52 362.518 148.97 361.686C148.41 360.837 148.14 359.857 148.14 358.748C148.14 357.552 148.48 356.477 149.15 355.524C149.83 354.571 150.82 353.799 152.14 353.21C151.67 352.638 151.34 352.092 151.13 351.572C150.92 351.035 150.82 350.463 150.82 349.856C150.82 349.024 151.03 348.279 151.47 347.62C151.9 346.944 152.51 346.415 153.31 346.034C154.13 345.653 155.07 345.462 156.15 345.462C157.24 345.462 158.17 345.67 158.95 346.086C159.73 346.502 160.31 347.057 160.7 347.75C161.08 348.443 161.24 349.215 161.19 350.064H157.65C157.67 349.492 157.53 349.059 157.24 348.764C156.94 348.452 156.54 348.296 156.04 348.296C155.56 348.296 155.15 348.443 154.82 348.738C154.51 349.015 154.35 349.379 154.35 349.83C154.35 350.263 154.48 350.697 154.74 351.13C155 351.546 155.43 352.066 156.02 352.69L160.59 357.214C160.63 357.179 160.65 357.145 160.67 357.11C160.69 357.075 160.7 357.041 160.72 357.006L162.2 354.536H166L164.18 357.734C163.83 358.41 163.46 359.051 163.06 359.658L167.46 364H162.98ZM154.95 361.296C156.37 361.296 157.63 360.793 158.72 359.788L154.25 355.368C152.57 356.113 151.73 357.171 151.73 358.54C151.73 359.32 152.02 359.979 152.61 360.516C153.2 361.036 153.98 361.296 154.95 361.296ZM186.66 345.852V348.79H179.09V353.444H184.89V356.33H179.09V364H175.45V345.852H186.66ZM191.09 347.88C190.44 347.88 189.91 347.681 189.47 347.282C189.06 346.866 188.85 346.355 188.85 345.748C188.85 345.141 189.06 344.639 189.47 344.24C189.91 343.824 190.44 343.616 191.09 343.616C191.73 343.616 192.26 343.824 192.67 344.24C193.11 344.639 193.32 345.141 193.32 345.748C193.32 346.355 193.11 346.866 192.67 347.282C192.26 347.681 191.73 347.88 191.09 347.88ZM192.88 349.596V364H189.24V349.596H192.88ZM204.46 349.388C206.17 349.388 207.56 349.934 208.62 351.026C209.68 352.101 210.2 353.609 210.2 355.55V364H206.56V356.044C206.56 354.9 206.28 354.025 205.71 353.418C205.13 352.794 204.35 352.482 203.37 352.482C202.36 352.482 201.56 352.794 200.97 353.418C200.4 354.025 200.12 354.9 200.12 356.044V364H196.48V349.596H200.12V351.39C200.6 350.766 201.22 350.281 201.96 349.934C202.73 349.57 203.56 349.388 204.46 349.388ZM212.73 356.746C212.73 355.29 213.02 353.999 213.59 352.872C214.18 351.745 214.97 350.879 215.95 350.272C216.96 349.665 218.08 349.362 219.31 349.362C220.38 349.362 221.32 349.579 222.12 350.012C222.93 350.445 223.58 350.991 224.07 351.65V349.596H227.73V364H224.07V361.894C223.6 362.57 222.95 363.133 222.12 363.584C221.3 364.017 220.36 364.234 219.28 364.234C218.07 364.234 216.96 363.922 215.95 363.298C214.97 362.674 214.18 361.799 213.59 360.672C213.02 359.528 212.73 358.219 212.73 356.746ZM224.07 356.798C224.07 355.914 223.89 355.16 223.55 354.536C223.2 353.895 222.73 353.409 222.14 353.08C221.55 352.733 220.92 352.56 220.24 352.56C219.57 352.56 218.94 352.725 218.37 353.054C217.8 353.383 217.33 353.869 216.97 354.51C216.62 355.134 216.45 355.879 216.45 356.746C216.45 357.613 216.62 358.375 216.97 359.034C217.33 359.675 217.8 360.169 218.37 360.516C218.96 360.863 219.59 361.036 220.24 361.036C220.92 361.036 221.55 360.871 222.14 360.542C222.73 360.195 223.2 359.71 223.55 359.086C223.89 358.445 224.07 357.682 224.07 356.798ZM234.93 344.76V364H231.29V344.76H234.93ZM248.36 345.852V364H244.72V345.852H248.36ZM259.94 349.388C261.65 349.388 263.04 349.934 264.1 351.026C265.15 352.101 265.68 353.609 265.68 355.55V364H262.04V356.044C262.04 354.9 261.76 354.025 261.19 353.418C260.61 352.794 259.83 352.482 258.85 352.482C257.84 352.482 257.04 352.794 256.45 353.418C255.88 354.025 255.6 354.9 255.6 356.044V364H251.96V349.596H255.6V351.39C256.08 350.766 256.7 350.281 257.44 349.934C258.2 349.57 259.04 349.388 259.94 349.388ZM273.38 352.586V359.554C273.38 360.039 273.5 360.395 273.72 360.62C273.96 360.828 274.36 360.932 274.92 360.932H276.61V364H274.32C271.25 364 269.72 362.509 269.72 359.528V352.586H268V349.596H269.72V346.034H273.38V349.596H276.61V352.586H273.38ZM292.61 356.486C292.61 357.006 292.58 357.474 292.51 357.89H281.98C282.07 358.93 282.43 359.745 283.07 360.334C283.71 360.923 284.5 361.218 285.44 361.218C286.79 361.218 287.75 360.637 288.32 359.476H292.25C291.83 360.863 291.04 362.007 289.86 362.908C288.68 363.792 287.23 364.234 285.52 364.234C284.13 364.234 282.88 363.931 281.77 363.324C280.68 362.7 279.82 361.825 279.2 360.698C278.59 359.571 278.29 358.271 278.29 356.798C278.29 355.307 278.59 353.999 279.2 352.872C279.81 351.745 280.65 350.879 281.75 350.272C282.84 349.665 284.1 349.362 285.52 349.362C286.89 349.362 288.11 349.657 289.18 350.246C290.27 350.835 291.12 351.676 291.7 352.768C292.31 353.843 292.61 355.082 292.61 356.486ZM288.84 355.446C288.83 354.51 288.49 353.765 287.83 353.21C287.17 352.638 286.37 352.352 285.41 352.352C284.51 352.352 283.75 352.629 283.12 353.184C282.52 353.721 282.15 354.475 282.01 355.446H288.84ZM298.91 351.832C299.38 351.069 299.99 350.471 300.73 350.038C301.49 349.605 302.36 349.388 303.33 349.388V353.21H302.37C301.23 353.21 300.36 353.479 299.77 354.016C299.2 354.553 298.91 355.489 298.91 356.824V364H295.27V349.596H298.91V351.832ZM311.79 360.646L315.43 349.596H319.3L313.97 364H309.55L304.25 349.596H308.15L311.79 360.646ZM323.19 347.88C322.55 347.88 322.02 347.681 321.58 347.282C321.17 346.866 320.96 346.355 320.96 345.748C320.96 345.141 321.17 344.639 321.58 344.24C322.02 343.824 322.55 343.616 323.19 343.616C323.84 343.616 324.36 343.824 324.78 344.24C325.21 344.639 325.43 345.141 325.43 345.748C325.43 346.355 325.21 346.866 324.78 347.282C324.36 347.681 323.84 347.88 323.19 347.88ZM324.99 349.596V364H321.35V349.596H324.99ZM341.97 356.486C341.97 357.006 341.94 357.474 341.87 357.89H331.34C331.43 358.93 331.79 359.745 332.43 360.334C333.07 360.923 333.86 361.218 334.8 361.218C336.15 361.218 337.11 360.637 337.68 359.476H341.61C341.19 360.863 340.4 362.007 339.22 362.908C338.04 363.792 336.59 364.234 334.88 364.234C333.49 364.234 332.24 363.931 331.13 363.324C330.04 362.7 329.18 361.825 328.56 360.698C327.95 359.571 327.65 358.271 327.65 356.798C327.65 355.307 327.95 353.999 328.56 352.872C329.16 351.745 330.01 350.879 331.11 350.272C332.2 349.665 333.45 349.362 334.88 349.362C336.25 349.362 337.47 349.657 338.54 350.246C339.63 350.835 340.47 351.676 341.06 352.768C341.67 353.843 341.97 355.082 341.97 356.486ZM338.2 355.446C338.19 354.51 337.85 353.765 337.19 353.21C336.53 352.638 335.73 352.352 334.77 352.352C333.87 352.352 333.11 352.629 332.48 353.184C331.88 353.721 331.5 354.475 331.37 355.446H338.2ZM364.6 349.596L360.39 364H356.46L353.83 353.938L351.21 364H347.26L343.02 349.596H346.71L349.26 360.568L352.01 349.596H355.86L358.57 360.542L361.11 349.596H364.6Z" fill="#3F3F3F"/>
<path d="M211.81 103.063C213.11 104.16 213.74 105.313 213.89 105.551C216.79 110.345 215.13 116.676 210.16 119.603C205.37 122.439 198.92 120.774 196.17 115.999C194.17 112.522 194.3 108.076 196.57 104.837C198.56 102.02 201.44 101.087 202.39 100.812C203.4 100.666 208.16 99.97 211.81 103.063ZM210.69 110.711C210.67 107.472 208.18 105.039 204.93 105.057C201.75 105.075 199.25 107.582 199.25 110.729C199.25 113.949 201.84 116.474 205.09 116.438C208.25 116.42 210.71 113.895 210.69 110.711Z" fill="#A4238C"/>
<path d="M182.37 192.133C172.86 192.133 163.37 192.133 153.86 192.133C150.74 192.133 149.21 190.669 148.76 187.577C148.1 183.002 148.11 178.446 148.79 173.89C149.67 167.852 155.24 162.729 161.11 162.528C162.06 162.491 162.84 162.766 163.55 163.406C165.55 165.163 167.59 166.864 169.57 168.621C170.12 169.097 170.49 169.152 171.08 168.639C173.06 166.919 175.13 165.309 177.1 163.553C178.09 162.674 179.14 162.418 180.38 162.583C186.59 163.406 191.32 168.237 192.13 174.439C192.66 178.538 192.78 182.618 192.24 186.717C192.15 187.375 192.28 187.613 193 187.613C198.91 187.595 204.84 187.595 210.75 187.613C211.44 187.613 211.74 187.247 212.05 186.735C217.87 176.635 223.71 166.553 229.53 156.472C230.2 155.282 230.88 154.093 231.58 152.922C231.89 152.391 231.75 152.282 231.2 152.282C228.35 152.3 225.52 152.282 222.68 152.282C211.26 152.282 199.86 152.282 188.44 152.282C185.19 152.282 183.58 150.745 183.21 147.543C182.84 144.341 182.61 141.157 182.84 137.937C183.1 134.241 183.58 130.654 186.04 127.635C188.44 124.69 191.55 123.043 195.29 122.549C196.34 122.402 197.2 122.677 198.01 123.39C200.06 125.165 202.16 126.885 204.19 128.678C204.74 129.154 205.11 129.154 205.64 128.697C207.64 126.995 209.7 125.348 211.66 123.61C212.73 122.677 213.81 122.402 215.19 122.622C221.83 123.756 226.31 128.733 226.92 135.412C227.27 139.291 227.29 143.133 226.75 146.975C226.68 147.543 226.88 147.726 227.41 147.726C228.88 147.707 230.35 147.707 231.8 147.726C234.33 147.781 236.1 149.226 236.48 151.55C236.68 152.721 236.32 153.8 235.75 154.788C230.42 164.028 225.08 173.268 219.74 182.508C218.47 184.704 217.17 186.863 215.96 189.095C214.82 191.2 213.19 192.169 210.75 192.151C201.31 192.078 191.84 192.133 182.37 192.133ZM204.96 147.707C207.44 147.707 209.92 147.707 212.4 147.707C214.23 147.707 214.01 147.872 214.05 146.097C214.11 143.353 214.16 140.626 214.23 137.882C214.27 136.839 214.88 136.089 215.76 135.942C216.64 135.796 217.46 136.235 217.81 137.04C217.98 137.443 217.96 137.864 217.94 138.266C217.91 141.102 218 143.92 217.76 146.738C217.7 147.469 217.94 147.781 218.71 147.726C219.37 147.671 220.03 147.707 220.68 147.707C222.16 147.707 222.11 147.707 222.31 146.189C222.81 142.456 222.75 138.723 222.31 134.973C221.89 131.368 219.08 128.129 215.54 127.233C214.84 127.068 214.36 127.196 213.83 127.635C211.46 129.648 209.09 131.642 206.71 133.619C205.44 134.662 204.45 134.68 203.18 133.619C200.83 131.642 198.48 129.666 196.15 127.654C195.66 127.233 195.18 127.05 194.54 127.251C191.2 128.203 188.83 130.27 188.04 133.637C186.99 138.083 187.08 142.602 187.78 147.122C187.86 147.598 188.09 147.707 188.52 147.707C189.51 147.707 190.48 147.707 191.47 147.707C191.86 147.707 192.1 147.634 192.08 147.158C192.02 145.219 191.99 143.298 191.93 141.358C191.89 140.169 191.82 138.98 191.86 137.79C191.89 136.729 192.61 135.997 193.55 135.906C194.56 135.833 195.35 136.436 195.55 137.534C195.62 137.937 195.66 138.358 195.66 138.778C195.73 141.45 195.82 144.139 195.84 146.811C195.84 147.524 196.12 147.726 196.8 147.707C199.51 147.689 202.25 147.707 204.96 147.707ZM188.06 180.88C188.19 179.014 187.91 177.001 187.67 175.007C187.23 171.311 184.5 168.218 180.99 167.304C180.29 167.121 179.76 167.23 179.21 167.706C176.9 169.682 174.55 171.622 172.22 173.579C170.84 174.732 169.85 174.769 168.47 173.598C166.12 171.622 163.79 169.627 161.48 167.615C161.05 167.249 160.67 167.121 160.12 167.267C156.65 168.2 154.28 170.323 153.47 173.817C152.48 178.135 152.63 182.545 153.22 186.936C153.27 187.412 153.57 187.595 154.02 187.577C154.92 187.577 155.82 187.558 156.7 187.595C157.27 187.613 157.49 187.43 157.46 186.827C157.33 184.027 157.49 181.228 157.27 178.446C157.24 177.879 157.24 177.312 157.4 176.763C157.7 175.665 158.82 175.08 159.86 175.501C160.8 175.885 161.07 176.672 161.09 177.605C161.15 180.587 161.24 183.551 161.26 186.534C161.26 187.321 161.46 187.632 162.3 187.632C167.68 187.595 173.06 187.595 178.42 187.632C179.26 187.632 179.48 187.321 179.48 186.534C179.5 183.716 179.58 180.88 179.65 178.062C179.67 177.623 179.71 177.166 179.82 176.745C180.05 175.921 180.62 175.446 181.52 175.427C182.4 175.409 182.99 175.83 183.32 176.635C183.49 177.056 183.49 177.513 183.47 177.952C183.41 180.862 183.36 183.789 183.27 186.698C183.25 187.394 183.49 187.668 184.18 187.632C185.05 187.595 185.91 187.613 186.79 187.632C187.32 187.632 187.6 187.43 187.67 186.863C187.91 184.905 188.15 182.984 188.06 180.88Z" fill="#A4238C"/>
<path d="M170.34 140.535C176.09 140.535 180.64 145.073 180.62 150.8C180.62 156.417 176 161.028 170.34 161.028C164.65 161.028 160.06 156.417 160.06 150.727C160.08 145.055 164.63 140.535 170.34 140.535ZM170.38 145.073C167.13 145.055 164.63 147.506 164.63 150.745C164.63 153.91 167.11 156.435 170.25 156.472C173.45 156.509 176.03 153.984 176.05 150.818C176.07 147.561 173.63 145.091 170.38 145.073Z" fill="#A4238C"/>
<defs>
<radialGradient id="paint0_radial_1_64" cx="0" cy="0" r="1" gradientUnits="userSpaceOnUse" gradientTransform="translate(198.49 150.203) scale(171.533 171.534)">
<stop stop-color="#828282"/>
<stop offset="0.3164" stop-color="#848484" stop-opacity="0.6836"/>
<stop offset="0.4929" stop-color="#8C8C8C" stop-opacity="0.5071"/>
<stop offset="0.6349" stop-color="#9A9A9A" stop-opacity="0.3651"/>
<stop offset="0.7585" stop-color="#ADADAE" stop-opacity="0.2415"/>
<stop offset="0.8702" stop-color="#C5C6C7" stop-opacity="0.1298"/>
<stop offset="0.9718" stop-color="#E3E4E6" stop-opacity="0.0281528"/>
<stop offset="1" stop-color="#EDEEF0" stop-opacity="0"/>
</radialGradient>
<radialGradient id="paint1_radial_1_64" cx="0" cy="0" r="1" gradientUnits="userSpaceOnUse" gradientTransform="translate(110.95 62.817) scale(283.989 283.989)">
<stop stop-color="#F7F7F8"/>
<stop offset="0.5055" stop-color="#FBFBFB"/>
<stop offset="0.7151" stop-color="white"/>
</radialGradient>
</defs>
</svg>
