<svg width="337" height="364" viewBox="0 0 337 364" fill="none" xmlns="http://www.w3.org/2000/svg">
<path d="M112.1 221.576L193.83 303.312C197.37 303.584 197.64 303.856 201.18 303.312C261.02 293.656 325.48 245.104 332.01 168.808C332.14 166.768 331.6 169.352 331.6 167.448L267.68 103.528L112.1 221.576Z" fill="url(#paint0_radial_1_63)" fill-opacity="0.4"/>
<path d="M183.09 0.0319977C148.95 0.0319977 116.58 11.048 89.52 31.72L94.552 38.248C120.12 18.664 150.86 8.192 183.09 8.192C263.46 8.192 328.74 73.608 328.74 153.848C328.74 234.224 263.33 299.504 183.09 299.504C144.6 299.504 106.79 282.912 79.32 255.848H74.832C47.496 255.848 25.328 247.552 10.504 231.912L29.952 204.984C42.736 215.728 56.472 221.44 69.256 221.44C89.52 221.44 101.62 213.008 101.62 198.864C101.62 179.552 88.296 171.936 52.936 171.392V142.56C72.248 142.152 95.368 138.344 95.368 116.312C95.368 102.44 86.528 94.416 71.024 94.416C57.968 94.416 48.312 99.584 37.024 108.696L15.808 82.992C34.44 68.168 52.936 61.232 73.472 61.232C115.22 61.232 140.25 80.272 140.25 112.232C140.25 129.504 130.73 142.016 111.28 150.72L108.83 151.808V158.744L111.69 159.56C133.99 166.36 146.37 181.592 146.37 202.4H154.53C154.53 180.232 142.97 163.504 121.75 154.528C139.43 144.6 148.27 130.456 148.27 112.232C148.27 93.736 141.06 78.504 127.46 68.168C114.41 58.24 95.776 53.072 73.472 53.072C50.08 53.072 28.456 61.64 7.51202 79.32L4.38397 81.904L36.072 120.256L39.2 117.536C50.624 107.744 59.192 102.44 71.024 102.44C77.96 102.44 87.208 103.8 87.208 116.176C87.208 125.152 82.584 134.264 48.856 134.264H44.776V179.416H48.856C93.464 179.416 93.464 190.16 93.464 198.728C93.464 211.24 78.232 213.144 69.256 213.144C57.424 213.144 44.096 207.024 31.992 195.736L28.592 192.608L0.0319824 232.184L2.07202 234.632C18.392 253.672 43.552 263.736 74.696 263.736H75.648C104.48 291.888 142.56 307.392 182.95 307.392C267.82 307.392 336.77 238.44 336.77 153.576C337.04 68.984 267.95 0.0319977 183.09 0.0319977Z" fill="#A4238C" fill-opacity="0.3"/>
<path d="M281.42 153.712C281.42 207.976 237.49 252.04 183.09 252.04C128.82 252.04 84.76 207.976 84.76 153.712C84.76 99.448 128.82 55.384 183.09 55.384C237.35 55.52 281.42 99.448 281.42 153.712Z" fill="white"/>
<path d="M281.42 153.713C281.42 128.689 272.03 105.977 256.8 88.569C238.85 69.801 213.69 58.104 185.67 58.104C131.41 58.104 87.344 102.169 87.344 156.433C87.344 181.457 96.728 204.169 111.96 221.577C129.91 240.345 155.07 252.04 183.09 252.04C237.35 252.04 281.42 207.977 281.42 153.713Z" fill="url(#paint1_radial_1_63)"/>
<path d="M271.49 110.6C276.93 122.84 279.92 136.304 279.92 150.584C279.92 204.848 235.86 248.912 181.59 248.912C148.95 248.912 120.12 233 102.17 208.52C105.02 213.144 108.29 217.496 111.96 221.576C129.91 240.344 155.07 252.04 183.09 252.04C237.35 252.04 281.42 207.976 281.42 153.712C281.42 138.344 277.88 123.656 271.49 110.6Z" fill="#EDEEF0"/>
<path d="M25.553 363.182C23.854 363.182 22.294 362.783 20.873 361.986C19.452 361.189 18.325 360.088 17.493 358.684C16.661 357.263 16.245 355.659 16.245 353.874C16.245 352.106 16.661 350.52 17.493 349.116C18.325 347.695 19.452 346.585 20.873 345.788C22.294 344.991 23.854 344.592 25.553 344.592C27.269 344.592 28.829 344.991 30.233 345.788C31.654 346.585 32.772 347.695 33.587 349.116C34.419 350.52 34.835 352.106 34.835 353.874C34.835 355.659 34.419 357.263 33.587 358.684C32.772 360.088 31.654 361.189 30.233 361.986C28.812 362.783 27.252 363.182 25.553 363.182ZM25.553 359.932C26.645 359.932 27.607 359.689 28.439 359.204C29.271 358.701 29.921 357.991 30.389 357.072C30.857 356.153 31.091 355.087 31.091 353.874C31.091 352.661 30.857 351.603 30.389 350.702C29.921 349.783 29.271 349.081 28.439 348.596C27.607 348.111 26.645 347.868 25.553 347.868C24.461 347.868 23.49 348.111 22.641 348.596C21.809 349.081 21.159 349.783 20.691 350.702C20.223 351.603 19.989 352.661 19.989 353.874C19.989 355.087 20.223 356.153 20.691 357.072C21.159 357.991 21.809 358.701 22.641 359.204C23.49 359.689 24.461 359.932 25.553 359.932ZM45.525 348.388C47.241 348.388 48.628 348.934 49.685 350.026C50.742 351.101 51.271 352.609 51.271 354.55V363H47.631V355.044C47.631 353.9 47.345 353.025 46.773 352.418C46.201 351.794 45.421 351.482 44.433 351.482C43.428 351.482 42.63 351.794 42.041 352.418C41.469 353.025 41.183 353.9 41.183 355.044V363H37.543V348.596H41.183V350.39C41.668 349.766 42.284 349.281 43.029 348.934C43.792 348.57 44.624 348.388 45.525 348.388ZM58.372 343.76V363H54.732V343.76H58.372ZM63.815 346.88C63.173 346.88 62.636 346.681 62.203 346.282C61.787 345.866 61.579 345.355 61.579 344.748C61.579 344.141 61.787 343.639 62.203 343.24C62.636 342.824 63.173 342.616 63.815 342.616C64.456 342.616 64.985 342.824 65.401 343.24C65.834 343.639 66.051 344.141 66.051 344.748C66.051 345.355 65.834 345.866 65.401 346.282C64.985 346.681 64.456 346.88 63.815 346.88ZM65.609 348.596V363H61.969V348.596H65.609ZM77.187 348.388C78.903 348.388 80.29 348.934 81.347 350.026C82.404 351.101 82.933 352.609 82.933 354.55V363H79.293V355.044C79.293 353.9 79.007 353.025 78.435 352.418C77.863 351.794 77.083 351.482 76.095 351.482C75.09 351.482 74.292 351.794 73.703 352.418C73.131 353.025 72.845 353.9 72.845 355.044V363H69.205V348.596H72.845V350.39C73.33 349.766 73.946 349.281 74.691 348.934C75.454 348.57 76.286 348.388 77.187 348.388ZM99.78 355.486C99.78 356.006 99.75 356.474 99.68 356.89H89.151C89.237 357.93 89.601 358.745 90.243 359.334C90.884 359.923 91.673 360.218 92.609 360.218C93.961 360.218 94.923 359.637 95.495 358.476H99.42C99 359.863 98.21 361.007 97.029 361.908C95.85 362.792 94.403 363.234 92.687 363.234C91.3 363.234 90.052 362.931 88.943 362.324C87.851 361.7 86.993 360.825 86.369 359.698C85.762 358.571 85.459 357.271 85.459 355.798C85.459 354.307 85.762 352.999 86.369 351.872C86.975 350.745 87.825 349.879 88.917 349.272C90.009 348.665 91.265 348.362 92.687 348.362C94.056 348.362 95.278 348.657 96.353 349.246C97.445 349.835 98.29 350.676 98.87 351.768C99.48 352.843 99.78 354.082 99.78 355.486ZM96.015 354.446C95.997 353.51 95.659 352.765 95.001 352.21C94.342 351.638 93.536 351.352 92.583 351.352C91.681 351.352 90.919 351.629 90.295 352.184C89.688 352.721 89.315 353.475 89.177 354.446H96.015ZM114.9 363.182C113.64 363.182 112.49 362.965 111.47 362.532C110.47 362.099 109.67 361.475 109.08 360.66C108.49 359.845 108.19 358.883 108.17 357.774H112.07C112.12 358.519 112.38 359.109 112.85 359.542C113.33 359.975 113.99 360.192 114.82 360.192C115.67 360.192 116.34 359.993 116.83 359.594C117.31 359.178 117.55 358.641 117.55 357.982C117.55 357.445 117.39 357.003 117.06 356.656C116.73 356.309 116.32 356.041 115.81 355.85C115.33 355.642 114.65 355.417 113.78 355.174C112.61 354.827 111.64 354.489 110.9 354.16C110.17 353.813 109.54 353.302 109 352.626C108.48 351.933 108.22 351.014 108.22 349.87C108.22 348.795 108.49 347.859 109.03 347.062C109.56 346.265 110.32 345.658 111.29 345.242C112.26 344.809 113.37 344.592 114.62 344.592C116.49 344.592 118.01 345.051 119.17 345.97C120.35 346.871 121 348.137 121.12 349.766H117.11C117.08 349.142 116.81 348.631 116.31 348.232C115.82 347.816 115.17 347.608 114.36 347.608C113.65 347.608 113.07 347.79 112.64 348.154C112.22 348.518 112.02 349.047 112.02 349.74C112.02 350.225 112.17 350.633 112.48 350.962C112.81 351.274 113.21 351.534 113.68 351.742C114.17 351.933 114.84 352.158 115.71 352.418C116.89 352.765 117.85 353.111 118.59 353.458C119.34 353.805 119.98 354.325 120.52 355.018C121.06 355.711 121.32 356.621 121.32 357.748C121.32 358.719 121.07 359.62 120.57 360.452C120.07 361.284 119.33 361.951 118.36 362.454C117.39 362.939 116.24 363.182 114.9 363.182ZM133.01 363L128.12 356.864V363H124.48V343.76H128.12V354.706L132.96 348.596H137.69L131.34 355.824L137.74 363H133.01ZM141.51 346.88C140.87 346.88 140.33 346.681 139.9 346.282C139.48 345.866 139.27 345.355 139.27 344.748C139.27 344.141 139.48 343.639 139.9 343.24C140.33 342.824 140.87 342.616 141.51 342.616C142.15 342.616 142.68 342.824 143.1 343.24C143.53 343.639 143.75 344.141 143.75 344.748C143.75 345.355 143.53 345.866 143.1 346.282C142.68 346.681 142.15 346.88 141.51 346.88ZM143.3 348.596V363H139.66V348.596H143.3ZM150.54 343.76V363H146.9V343.76H150.54ZM157.78 343.76V363H154.14V343.76H157.78ZM178.7 359.542H171.47L170.27 363H166.45L172.98 344.826H177.21L183.74 363H179.89L178.7 359.542ZM177.71 356.63L175.08 349.038L172.46 356.63H177.71ZM191.69 363.234C190.51 363.234 189.46 363.026 188.52 362.61C187.58 362.177 186.84 361.596 186.28 360.868C185.75 360.14 185.45 359.334 185.4 358.45H189.07C189.14 359.005 189.4 359.464 189.87 359.828C190.36 360.192 190.96 360.374 191.67 360.374C192.36 360.374 192.9 360.235 193.28 359.958C193.68 359.681 193.88 359.325 193.88 358.892C193.88 358.424 193.63 358.077 193.15 357.852C192.68 357.609 191.93 357.349 190.89 357.072C189.81 356.812 188.93 356.543 188.23 356.266C187.56 355.989 186.97 355.564 186.47 354.992C185.98 354.42 185.74 353.649 185.74 352.678C185.74 351.881 185.96 351.153 186.41 350.494C186.88 349.835 187.54 349.315 188.39 348.934C189.26 348.553 190.27 348.362 191.43 348.362C193.15 348.362 194.52 348.795 195.54 349.662C196.56 350.511 197.13 351.664 197.23 353.12H193.75C193.69 352.548 193.45 352.097 193.02 351.768C192.6 351.421 192.04 351.248 191.33 351.248C190.67 351.248 190.16 351.369 189.79 351.612C189.45 351.855 189.27 352.193 189.27 352.626C189.27 353.111 189.52 353.484 190 353.744C190.49 353.987 191.24 354.238 192.26 354.498C193.3 354.758 194.16 355.027 194.84 355.304C195.51 355.581 196.09 356.015 196.58 356.604C197.08 357.176 197.34 357.939 197.36 358.892C197.36 359.724 197.13 360.469 196.66 361.128C196.21 361.787 195.55 362.307 194.68 362.688C193.83 363.052 192.84 363.234 191.69 363.234ZM205.86 363.234C204.68 363.234 203.62 363.026 202.69 362.61C201.75 362.177 201.01 361.596 200.45 360.868C199.91 360.14 199.62 359.334 199.57 358.45H203.23C203.3 359.005 203.57 359.464 204.04 359.828C204.53 360.192 205.12 360.374 205.83 360.374C206.53 360.374 207.06 360.235 207.45 359.958C207.84 359.681 208.04 359.325 208.04 358.892C208.04 358.424 207.8 358.077 207.32 357.852C206.85 357.609 206.09 357.349 205.05 357.072C203.98 356.812 203.1 356.543 202.4 356.266C201.73 355.989 201.14 355.564 200.63 354.992C200.15 354.42 199.91 353.649 199.91 352.678C199.91 351.881 200.13 351.153 200.58 350.494C201.05 349.835 201.71 349.315 202.56 348.934C203.42 348.553 204.44 348.362 205.6 348.362C207.32 348.362 208.69 348.795 209.71 349.662C210.73 350.511 211.29 351.664 211.4 353.12H207.91C207.86 352.548 207.62 352.097 207.19 351.768C206.77 351.421 206.21 351.248 205.5 351.248C204.84 351.248 204.33 351.369 203.96 351.612C203.62 351.855 203.44 352.193 203.44 352.626C203.44 353.111 203.68 353.484 204.17 353.744C204.66 353.987 205.41 354.238 206.43 354.498C207.47 354.758 208.33 355.027 209.01 355.304C209.68 355.581 210.26 356.015 210.75 356.604C211.25 357.176 211.51 357.939 211.53 358.892C211.53 359.724 211.29 360.469 210.83 361.128C210.38 361.787 209.72 362.307 208.85 362.688C208 363.052 207 363.234 205.86 363.234ZM227.91 355.486C227.91 356.006 227.87 356.474 227.8 356.89H217.27C217.36 357.93 217.72 358.745 218.36 359.334C219.01 359.923 219.79 360.218 220.73 360.218C222.08 360.218 223.04 359.637 223.62 358.476H227.54C227.13 359.863 226.33 361.007 225.15 361.908C223.97 362.792 222.52 363.234 220.81 363.234C219.42 363.234 218.17 362.931 217.06 362.324C215.97 361.7 215.11 360.825 214.49 359.698C213.88 358.571 213.58 357.271 213.58 355.798C213.58 354.307 213.88 352.999 214.49 351.872C215.1 350.745 215.95 349.879 217.04 349.272C218.13 348.665 219.39 348.362 220.81 348.362C222.18 348.362 223.4 348.657 224.47 349.246C225.57 349.835 226.41 350.676 227 351.768C227.6 352.843 227.91 354.082 227.91 355.486ZM224.14 354.446C224.12 353.51 223.78 352.765 223.12 352.21C222.46 351.638 221.66 351.352 220.7 351.352C219.8 351.352 219.04 351.629 218.42 352.184C217.81 352.721 217.44 353.475 217.3 354.446H224.14ZM236.07 363.234C234.9 363.234 233.84 363.026 232.9 362.61C231.97 362.177 231.22 361.596 230.67 360.868C230.13 360.14 229.83 359.334 229.78 358.45H233.45C233.52 359.005 233.79 359.464 234.25 359.828C234.74 360.192 235.34 360.374 236.05 360.374C236.74 360.374 237.28 360.235 237.66 359.958C238.06 359.681 238.26 359.325 238.26 358.892C238.26 358.424 238.02 358.077 237.53 357.852C237.06 357.609 236.31 357.349 235.27 357.072C234.19 356.812 233.31 356.543 232.62 356.266C231.94 355.989 231.35 355.564 230.85 354.992C230.36 354.42 230.12 353.649 230.12 352.678C230.12 351.881 230.35 351.153 230.8 350.494C231.26 349.835 231.92 349.315 232.77 348.934C233.64 348.553 234.65 348.362 235.81 348.362C237.53 348.362 238.9 348.795 239.92 349.662C240.95 350.511 241.51 351.664 241.61 353.12H238.13C238.08 352.548 237.83 352.097 237.4 351.768C236.98 351.421 236.42 351.248 235.71 351.248C235.05 351.248 234.54 351.369 234.18 351.612C233.83 351.855 233.66 352.193 233.66 352.626C233.66 353.111 233.9 353.484 234.38 353.744C234.87 353.987 235.62 354.238 236.65 354.498C237.69 354.758 238.54 355.027 239.22 355.304C239.9 355.581 240.48 356.015 240.96 356.604C241.47 357.176 241.73 357.939 241.74 358.892C241.74 359.724 241.51 360.469 241.04 361.128C240.59 361.787 239.93 362.307 239.06 362.688C238.22 363.052 237.22 363.234 236.07 363.234ZM250.24 363.234C249.06 363.234 248.01 363.026 247.07 362.61C246.13 362.177 245.39 361.596 244.83 360.868C244.3 360.14 244 359.334 243.95 358.45H247.62C247.69 359.005 247.95 359.464 248.42 359.828C248.91 360.192 249.51 360.374 250.22 360.374C250.91 360.374 251.45 360.235 251.83 359.958C252.23 359.681 252.43 359.325 252.43 358.892C252.43 358.424 252.18 358.077 251.7 357.852C251.23 357.609 250.48 357.349 249.44 357.072C248.36 356.812 247.48 356.543 246.78 356.266C246.11 355.989 245.52 355.564 245.02 354.992C244.53 354.42 244.29 353.649 244.29 352.678C244.29 351.881 244.51 351.153 244.96 350.494C245.43 349.835 246.09 349.315 246.94 348.934C247.81 348.553 248.82 348.362 249.98 348.362C251.7 348.362 253.07 348.795 254.09 349.662C255.11 350.511 255.68 351.664 255.78 353.12H252.3C252.24 352.548 252 352.097 251.57 351.768C251.15 351.421 250.59 351.248 249.88 351.248C249.22 351.248 248.71 351.369 248.34 351.612C248 351.855 247.82 352.193 247.82 352.626C247.82 353.111 248.07 353.484 248.55 353.744C249.04 353.987 249.79 354.238 250.81 354.498C251.85 354.758 252.71 355.027 253.39 355.304C254.06 355.581 254.65 356.015 255.13 356.604C255.63 357.176 255.89 357.939 255.91 358.892C255.91 359.724 255.68 360.469 255.21 361.128C254.76 361.787 254.1 362.307 253.23 362.688C252.38 363.052 251.39 363.234 250.24 363.234ZM276.79 348.388C278.55 348.388 279.98 348.934 281.05 350.026C282.14 351.101 282.69 352.609 282.69 354.55V363H279.05V355.044C279.05 353.917 278.76 353.059 278.19 352.47C277.62 351.863 276.84 351.56 275.85 351.56C274.86 351.56 274.07 351.863 273.48 352.47C272.91 353.059 272.63 353.917 272.63 355.044V363H268.99V355.044C268.99 353.917 268.7 353.059 268.13 352.47C267.56 351.863 266.78 351.56 265.79 351.56C264.78 351.56 263.99 351.863 263.4 352.47C262.82 353.059 262.54 353.917 262.54 355.044V363H258.9V348.596H262.54V350.338C263.01 349.731 263.6 349.255 264.33 348.908C265.08 348.561 265.89 348.388 266.78 348.388C267.9 348.388 268.91 348.631 269.79 349.116C270.68 349.584 271.36 350.26 271.85 351.144C272.31 350.312 272.99 349.645 273.87 349.142C274.78 348.639 275.75 348.388 276.79 348.388ZM299.53 355.486C299.53 356.006 299.5 356.474 299.43 356.89H288.9C288.99 357.93 289.35 358.745 289.99 359.334C290.63 359.923 291.42 360.218 292.36 360.218C293.71 360.218 294.67 359.637 295.24 358.476H299.17C298.75 359.863 297.96 361.007 296.78 361.908C295.6 362.792 294.15 363.234 292.43 363.234C291.05 363.234 289.8 362.931 288.69 362.324C287.6 361.7 286.74 360.825 286.12 359.698C285.51 358.571 285.21 357.271 285.21 355.798C285.21 354.307 285.51 352.999 286.12 351.872C286.72 350.745 287.57 349.879 288.66 349.272C289.76 348.665 291.01 348.362 292.43 348.362C293.8 348.362 295.03 348.657 296.1 349.246C297.19 349.835 298.03 350.676 298.62 351.768C299.23 352.843 299.53 354.082 299.53 355.486ZM295.76 354.446C295.75 353.51 295.41 352.765 294.75 352.21C294.09 351.638 293.28 351.352 292.33 351.352C291.43 351.352 290.67 351.629 290.04 352.184C289.44 352.721 289.06 353.475 288.92 354.446H295.76ZM310.17 348.388C311.89 348.388 313.27 348.934 314.33 350.026C315.39 351.101 315.92 352.609 315.92 354.55V363H312.28V355.044C312.28 353.9 311.99 353.025 311.42 352.418C310.85 351.794 310.07 351.482 309.08 351.482C308.07 351.482 307.28 351.794 306.69 352.418C306.12 353.025 305.83 353.9 305.83 355.044V363H302.19V348.596H305.83V350.39C306.31 349.766 306.93 349.281 307.68 348.934C308.44 348.57 309.27 348.388 310.17 348.388ZM323.62 351.586V358.554C323.62 359.039 323.73 359.395 323.95 359.62C324.2 359.828 324.6 359.932 325.15 359.932H326.84V363H324.55C321.48 363 319.95 361.509 319.95 358.528V351.586H318.23V348.596H319.95V345.034H323.62V348.596H326.84V351.586H323.62Z" fill="#3F3F3F"/>
<path d="M237.69 131.262V167.603C237.05 168.223 236.41 168.757 235.45 168.308C234.51 167.881 234.4 167.069 234.42 166.171C234.45 165.786 234.42 165.401 234.42 164.995C234.42 154.52 234.4 144.024 234.42 133.55C234.42 130.429 232.48 128.184 229.18 128.248C224.31 128.355 219.43 128.27 214.55 128.27C213.22 128.27 213.16 128.355 213.16 129.766C213.16 131.113 213.2 131.155 214.5 131.155C219.09 131.155 223.7 131.155 228.28 131.155C230.67 131.155 231.4 131.882 231.4 134.255C231.4 151.357 231.4 168.458 231.4 185.559C231.4 187.27 230.01 188.659 228.3 188.659C198.16 188.659 168.03 188.659 137.89 188.659C135.86 188.659 135.42 188.189 135.42 186.137C135.42 168.821 135.42 151.506 135.42 134.191C135.42 132.502 136.78 131.134 138.47 131.134C143.16 131.134 147.87 131.113 152.56 131.155C153.5 131.155 153.74 130.728 153.67 129.916C153.61 129.189 153.95 128.248 152.67 128.248C147.34 128.27 142.01 128.227 136.67 128.291C134.97 128.312 133.77 129.296 132.98 130.771C132.49 131.711 132.43 132.737 132.43 133.763C132.43 151.186 132.43 168.608 132.43 186.03C132.43 186.308 132.43 186.607 132.43 186.885C132.58 189.087 133.73 190.69 135.63 191.353C136.38 191.609 137.16 191.566 137.93 191.566C168.28 191.566 198.63 191.566 228.98 191.566C229.37 191.566 229.75 191.545 230.16 191.545C231.31 191.502 232.27 191.011 233.08 190.22C234.13 189.172 234.45 187.847 234.47 186.436C234.47 182.46 234.49 178.505 234.47 174.529C234.47 173.631 234.7 172.904 235.62 172.584C236.58 172.263 237.26 172.712 237.73 173.503V188.638C236.22 193.212 233.63 195.094 228.86 195.094C222.22 195.094 215.57 195.094 208.94 195.094C203.5 195.094 198.06 195.115 192.62 195.072C191.72 195.072 191.32 195.35 191.36 196.291C191.43 197.424 191.38 198.557 191.38 199.69C191.38 201.507 191.38 201.507 193.15 201.528C197.06 201.549 200.04 204.136 200.64 207.962C200.85 209.373 200.49 210.485 199.15 211.169H167.73C166.39 210.506 166.02 209.373 166.24 207.984C166.49 206.359 167.15 204.948 168.3 203.773C169.78 202.298 171.53 201.528 173.62 201.528C175.62 201.528 175.49 201.507 175.49 199.219C175.49 198.386 175.49 197.53 175.49 196.675C175.49 195.094 175.51 195.094 173.94 195.094C161.86 195.094 149.77 195.094 137.7 195.094C137.04 195.094 136.35 195.094 135.69 194.965C132.2 194.238 130.08 192.058 129.12 188.638V133.101C129.12 131.305 129.61 129.531 130.64 128.056C132.3 125.662 134.78 124.7 138.53 124.807C142.82 124.935 147.1 124.849 151.41 124.807C153.63 124.785 153.63 124.999 153.63 123.289C153.63 119.078 153.63 114.866 153.63 110.655C153.65 105.461 157.34 101.998 162.67 102.297C176.54 103.066 190.42 102.831 204.29 102.297C209.53 102.083 213.14 105.525 213.14 110.677C213.14 114.888 213.14 119.099 213.14 123.31C213.14 124.828 213.14 124.828 214.69 124.828C219.56 124.828 224.44 124.828 229.3 124.828C229.9 124.828 230.52 124.828 231.1 124.956C234.64 125.662 236.73 127.863 237.69 131.262ZM157.11 146.996C157.11 159.074 157.11 171.152 157.11 183.208C157.11 185.217 157.11 185.217 159.07 185.239C175.28 185.239 191.51 185.239 207.72 185.239C208.04 185.239 208.36 185.217 208.68 185.239C209.38 185.26 209.7 184.897 209.7 184.191C209.7 183.871 209.7 183.55 209.7 183.229C209.7 159.287 209.7 135.367 209.7 111.425C209.7 110.912 209.7 110.42 209.66 109.907C209.53 108.026 208.25 106.401 206.44 105.909C205.67 105.696 204.9 105.632 204.12 105.632C195.99 105.632 187.86 105.632 179.74 105.632C173.91 105.632 168.07 105.632 162.25 105.632C160.14 105.632 158.47 106.401 157.49 108.368C157.04 109.266 157.09 110.228 157.09 111.19C157.11 123.139 157.11 135.067 157.11 146.996ZM153.65 160.078C153.65 152.083 153.65 144.088 153.65 136.094C153.65 134.79 153.57 134.683 152.29 134.683C148.26 134.683 144.25 134.683 140.21 134.683C138.85 134.683 138.76 134.768 138.76 136.115C138.76 151.998 138.76 167.902 138.76 183.785C138.76 185.153 138.83 185.239 140.19 185.239C144.18 185.239 148.17 185.239 152.16 185.239C153.61 185.239 153.65 185.175 153.65 183.742C153.65 175.854 153.65 167.966 153.65 160.078ZM213.16 159.95C213.16 167.902 213.16 175.876 213.16 183.828C213.16 184.598 213.78 185.217 214.55 185.217C218.6 185.217 222.67 185.196 226.72 185.239C227.73 185.239 228.07 184.897 228.07 183.871C228.05 167.902 228.05 151.955 228.07 135.987C228.07 134.961 227.73 134.619 226.72 134.619C222.69 134.661 218.68 134.64 214.65 134.64C213.22 134.64 213.16 134.704 213.16 136.136C213.16 144.088 213.16 152.019 213.16 159.95ZM183.3 207.898C187.52 207.898 191.77 207.898 195.99 207.898C196.29 207.898 196.67 208.048 196.84 207.684C196.99 207.364 196.74 207.086 196.57 206.808C195.71 205.461 194.41 204.905 192.88 204.884C186.56 204.863 180.25 204.863 173.94 204.884C172.46 204.884 171.16 205.397 170.31 206.701C170.12 206.979 169.82 207.3 169.97 207.663C170.14 208.069 170.59 207.898 170.93 207.898C175.04 207.898 179.16 207.898 183.3 207.898ZM183.38 201.507C184.51 201.507 185.65 201.485 186.78 201.507C187.69 201.528 188.06 201.1 187.71 199.625C187.5 198.706 187.48 197.766 187.71 196.846C188.12 195.307 187.65 194.794 186.09 195.2C184.43 195.628 182.7 195.692 181.06 195.243C179.46 194.816 178.91 195.136 179.03 196.291C179.16 197.616 179.12 198.963 179.03 200.288C178.97 201.143 179.27 201.507 180.06 201.485C181.12 201.485 182.25 201.507 183.38 201.507Z" fill="#A4238C"/>
<path d="M183.43 111.852C194.75 111.852 203.84 120.959 203.84 132.31C203.84 142.87 195.97 151.656 185.5 152.768C173.55 154.029 162.99 144.516 162.95 132.481C162.93 128.932 163.76 125.619 165.45 122.498C166.13 121.215 167.03 120.809 167.99 121.28C168.99 121.771 169.18 122.797 168.48 124.123C163.63 133.122 167.56 143.768 176.3 147.851C186.84 152.768 199.23 145.628 200.36 134.041C201.24 125.149 195.05 116.919 186.14 115.486C181.85 114.802 177.86 115.657 174.19 118.009C173.87 118.223 173.55 118.458 173.21 118.65C172.29 119.185 171.42 119.035 170.86 118.265C170.29 117.474 170.42 116.534 171.31 115.85C172.31 115.059 173.4 114.396 174.55 113.862C177.35 112.494 180.29 111.745 183.43 111.852Z" fill="#A4238C"/>
<path d="M171.04 133.4C171.18 131.605 172.02 130.087 173.81 129.232C175.66 128.355 177.5 128.548 179.05 129.894C180.33 131.006 180.29 130.835 181.4 129.723C183.41 127.735 185.37 125.683 187.42 123.738C188.82 122.391 190.51 121.921 192.41 122.562C194.24 123.182 195.31 124.508 195.67 126.41C195.97 128.013 195.5 129.467 194.37 130.6C191.02 133.999 187.67 137.419 184.24 140.732C181.93 142.956 178.41 142.87 176.07 140.69C174.81 139.493 173.59 138.253 172.4 137.013C171.48 136.051 171.06 134.875 171.04 133.4ZM180.25 138.851C181.12 138.915 181.76 138.424 182.34 137.825C185.39 134.768 188.44 131.733 191.47 128.676C191.66 128.484 191.87 128.27 192 128.035C192.36 127.393 192.36 126.709 191.81 126.196C191.25 125.662 190.59 125.705 189.98 126.132C189.66 126.346 189.4 126.645 189.12 126.923C186.82 129.21 184.49 131.562 182.17 133.871C180.87 135.153 179.59 135.153 178.27 133.892C177.9 133.55 177.56 133.186 177.2 132.844C176.39 132.096 175.56 131.989 174.96 132.588C174.34 133.186 174.43 134.148 175.17 134.939C176.18 135.987 177.22 136.992 178.24 138.018C178.8 138.552 179.44 138.915 180.25 138.851Z" fill="#A4238C"/>
<path d="M183.41 163.221C177.58 163.221 171.74 163.221 165.92 163.221C165.53 163.221 165.13 163.263 164.76 163.178C163.91 162.985 163.42 162.387 163.44 161.51C163.46 160.677 163.95 160.121 164.76 159.95C165.13 159.864 165.53 159.907 165.92 159.907C177.58 159.907 189.23 159.907 200.9 159.907C202.6 159.907 203.43 160.484 203.39 161.639C203.35 162.75 202.58 163.263 200.9 163.263C195.07 163.221 189.23 163.221 183.41 163.221Z" fill="#A4238C"/>
<path d="M183.41 169.441C189.31 169.441 195.2 169.441 201.11 169.441C201.64 169.441 202.17 169.398 202.64 169.719C203.2 170.125 203.5 170.681 203.37 171.365C203.24 172.092 202.79 172.584 202.07 172.733C201.68 172.819 201.3 172.776 200.92 172.776C189.25 172.776 177.6 172.776 165.94 172.776C165.77 172.776 165.57 172.776 165.4 172.776C164.17 172.733 163.4 172.07 163.44 171.044C163.46 170.061 164.21 169.441 165.4 169.441C171.4 169.42 177.41 169.441 183.41 169.441Z" fill="#A4238C"/>
<defs>
<radialGradient id="paint0_radial_1_63" cx="0" cy="0" r="1" gradientUnits="userSpaceOnUse" gradientTransform="translate(189.68 149.204) scale(171.533 171.534)">
<stop stop-color="#828282"/>
<stop offset="0.3164" stop-color="#848484" stop-opacity="0.6836"/>
<stop offset="0.4929" stop-color="#8C8C8C" stop-opacity="0.5071"/>
<stop offset="0.6349" stop-color="#9A9A9A" stop-opacity="0.3651"/>
<stop offset="0.7585" stop-color="#ADADAE" stop-opacity="0.2415"/>
<stop offset="0.8702" stop-color="#C5C6C7" stop-opacity="0.1298"/>
<stop offset="0.9718" stop-color="#E3E4E6" stop-opacity="0.0281528"/>
<stop offset="1" stop-color="#EDEEF0" stop-opacity="0"/>
</radialGradient>
<radialGradient id="paint1_radial_1_63" cx="0" cy="0" r="1" gradientUnits="userSpaceOnUse" gradientTransform="translate(102.14 61.818) scale(283.989 283.989)">
<stop stop-color="#F7F7F8"/>
<stop offset="0.5055" stop-color="#FBFBFB"/>
<stop offset="0.7151" stop-color="white"/>
</radialGradient>
</defs>
</svg>
