<svg width="343" height="370" viewBox="0 0 343 370" fill="none" xmlns="http://www.w3.org/2000/svg">
<path d="M117.319 221.576L199.055 303.312C202.591 303.584 202.863 303.856 206.399 303.312C266.239 293.656 330.703 245.104 337.231 168.808C337.367 166.768 336.823 169.352 336.823 167.448L272.903 103.528L117.319 221.576Z" fill="url(#paint0_radial_1_62)" fill-opacity="0.4"/>
<path d="M188.312 0.0319977C154.176 0.0319977 121.808 11.048 94.744 31.72L99.776 38.248C125.344 18.664 155.944 8.192 188.312 8.192C268.688 8.192 333.968 73.608 333.968 153.848C333.968 234.224 268.552 299.504 188.312 299.504C148.056 299.504 108.208 281.552 80.736 252.176H12.464V227.832C60.064 184.04 94.336 152.488 94.336 124.472C94.336 105.704 83.864 94.552 66.184 94.552C52.72 94.552 42.112 103.528 34.224 111.28L11.648 88.704C31.232 68.848 48.368 61.504 73.664 61.504C111.336 61.504 136.632 85.576 136.632 121.48C136.632 151.536 107.256 185.4 81.824 211.512L73.664 219.808L85.224 218.312C94.608 217.088 108.616 215.864 117.32 215.864H145.88V256.12H154.04V207.704H117.32C111.336 207.704 103.176 208.248 95.424 208.928C119.904 182.952 144.792 151.128 144.792 121.208C144.792 101.216 137.856 84.08 124.8 71.704C111.88 59.6 94.2 53.072 73.664 53.072C44.968 53.072 25.112 62.184 2.944 85.712L0.223999 88.568L34.224 122.568L37.08 119.712C46.464 110.328 55.304 102.44 66.184 102.44C79.24 102.44 86.176 109.92 86.176 124.2C86.176 148.68 51.088 180.912 6.75201 221.712L4.30399 224.024V260.064H77.336C106.304 290.12 146.56 307.392 188.312 307.392C273.176 307.392 342.128 238.44 342.128 153.576C342.264 68.984 273.176 0.0319977 188.312 0.0319977Z" fill="#A4238C" fill-opacity="0.3"/>
<path d="M286.639 153.712C286.639 207.976 242.711 252.04 188.311 252.04C134.047 252.04 89.983 207.976 89.983 153.712C89.983 99.448 134.047 55.384 188.311 55.384C242.575 55.52 286.639 99.448 286.639 153.712Z" fill="white"/>
<path d="M286.639 153.713C286.639 128.689 277.255 105.977 262.023 88.569C244.071 69.801 218.911 58.104 190.895 58.104C136.631 58.104 92.567 102.169 92.567 156.433C92.567 181.457 101.951 204.169 117.183 221.577C135.135 240.345 160.295 252.04 188.311 252.04C242.575 252.04 286.639 207.977 286.639 153.713Z" fill="url(#paint1_radial_1_62)"/>
<path d="M276.712 110.6C282.152 122.84 285.144 136.304 285.144 150.584C285.144 204.848 241.08 248.912 186.816 248.912C154.176 248.912 125.344 233 107.392 208.52C110.248 213.144 113.512 217.496 117.184 221.576C135.136 240.344 160.296 252.04 188.312 252.04C242.576 252.04 286.64 207.976 286.64 153.712C286.64 138.344 283.104 123.656 276.712 110.6Z" fill="#EDEEF0"/>
<path d="M39.225 344.852V347.79H34.389V363H30.749V347.79H25.913V344.852H39.225ZM55.271 355.486C55.271 356.006 55.236 356.474 55.167 356.89H44.637C44.724 357.93 45.088 358.745 45.729 359.334C46.37 359.923 47.159 360.218 48.095 360.218C49.447 360.218 50.409 359.637 50.981 358.476H54.907C54.491 359.863 53.694 361.007 52.515 361.908C51.336 362.792 49.889 363.234 48.173 363.234C46.786 363.234 45.538 362.931 44.429 362.324C43.337 361.7 42.479 360.825 41.855 359.698C41.248 358.571 40.945 357.271 40.945 355.798C40.945 354.307 41.248 352.999 41.855 351.872C42.462 350.745 43.311 349.879 44.403 349.272C45.495 348.665 46.752 348.362 48.173 348.362C49.542 348.362 50.764 348.657 51.839 349.246C52.931 349.835 53.772 350.676 54.361 351.768C54.968 352.843 55.271 354.082 55.271 355.486ZM51.501 354.446C51.484 353.51 51.146 352.765 50.487 352.21C49.828 351.638 49.022 351.352 48.069 351.352C47.168 351.352 46.405 351.629 45.781 352.184C45.174 352.721 44.802 353.475 44.663 354.446H51.501ZM61.568 343.76V363H57.928V343.76H61.568ZM78.554 355.486C78.554 356.006 78.519 356.474 78.45 356.89H67.92C68.007 357.93 68.371 358.745 69.012 359.334C69.653 359.923 70.442 360.218 71.378 360.218C72.73 360.218 73.692 359.637 74.264 358.476H78.19C77.774 359.863 76.977 361.007 75.798 361.908C74.619 362.792 73.172 363.234 71.456 363.234C70.069 363.234 68.821 362.931 67.712 362.324C66.62 361.7 65.762 360.825 65.138 359.698C64.531 358.571 64.228 357.271 64.228 355.798C64.228 354.307 64.531 352.999 65.138 351.872C65.745 350.745 66.594 349.879 67.686 349.272C68.778 348.665 70.035 348.362 71.456 348.362C72.825 348.362 74.047 348.657 75.122 349.246C76.214 349.835 77.055 350.676 77.644 351.768C78.251 352.843 78.554 354.082 78.554 355.486ZM74.784 354.446C74.767 353.51 74.429 352.765 73.77 352.21C73.111 351.638 72.305 351.352 71.352 351.352C70.451 351.352 69.688 351.629 69.064 352.184C68.457 352.721 68.085 353.475 67.946 354.446H74.784ZM84.851 350.676C85.319 350.017 85.96 349.471 86.775 349.038C87.607 348.587 88.552 348.362 89.609 348.362C90.84 348.362 91.949 348.665 92.937 349.272C93.942 349.879 94.731 350.745 95.303 351.872C95.892 352.981 96.187 354.273 96.187 355.746C96.187 357.219 95.892 358.528 95.303 359.672C94.731 360.799 93.942 361.674 92.937 362.298C91.949 362.922 90.84 363.234 89.609 363.234C88.552 363.234 87.616 363.017 86.801 362.584C86.004 362.151 85.354 361.605 84.851 360.946V369.864H81.211V348.596H84.851V350.676ZM92.469 355.746C92.469 354.879 92.287 354.134 91.923 353.51C91.576 352.869 91.108 352.383 90.519 352.054C89.947 351.725 89.323 351.56 88.647 351.56C87.988 351.56 87.364 351.733 86.775 352.08C86.203 352.409 85.735 352.895 85.371 353.536C85.024 354.177 84.851 354.931 84.851 355.798C84.851 356.665 85.024 357.419 85.371 358.06C85.735 358.701 86.203 359.195 86.775 359.542C87.364 359.871 87.988 360.036 88.647 360.036C89.323 360.036 89.947 359.863 90.519 359.516C91.108 359.169 91.576 358.675 91.923 358.034C92.287 357.393 92.469 356.63 92.469 355.746ZM106.944 348.388C108.036 348.388 109.007 348.631 109.856 349.116C110.705 349.584 111.364 350.286 111.832 351.222C112.317 352.141 112.56 353.25 112.56 354.55V363H108.92V355.044C108.92 353.9 108.634 353.025 108.062 352.418C107.49 351.794 106.71 351.482 105.722 351.482C104.717 351.482 103.919 351.794 103.33 352.418C102.758 353.025 102.472 353.9 102.472 355.044V363H98.832V343.76H102.472V350.39C102.94 349.766 103.564 349.281 104.344 348.934C105.124 348.57 105.991 348.388 106.944 348.388ZM122.418 363.234C121.031 363.234 119.783 362.931 118.674 362.324C117.564 361.7 116.689 360.825 116.048 359.698C115.424 358.571 115.112 357.271 115.112 355.798C115.112 354.325 115.432 353.025 116.074 351.898C116.732 350.771 117.625 349.905 118.752 349.298C119.878 348.674 121.135 348.362 122.522 348.362C123.908 348.362 125.165 348.674 126.292 349.298C127.418 349.905 128.302 350.771 128.944 351.898C129.602 353.025 129.932 354.325 129.932 355.798C129.932 357.271 129.594 358.571 128.918 359.698C128.259 360.825 127.358 361.7 126.214 362.324C125.087 362.931 123.822 363.234 122.418 363.234ZM122.418 360.062C123.076 360.062 123.692 359.906 124.264 359.594C124.853 359.265 125.321 358.779 125.668 358.138C126.014 357.497 126.188 356.717 126.188 355.798C126.188 354.429 125.824 353.38 125.096 352.652C124.385 351.907 123.51 351.534 122.47 351.534C121.43 351.534 120.554 351.907 119.844 352.652C119.15 353.38 118.804 354.429 118.804 355.798C118.804 357.167 119.142 358.225 119.818 358.97C120.511 359.698 121.378 360.062 122.418 360.062ZM140.584 348.388C142.3 348.388 143.686 348.934 144.744 350.026C145.801 351.101 146.33 352.609 146.33 354.55V363H142.69V355.044C142.69 353.9 142.404 353.025 141.832 352.418C141.26 351.794 140.48 351.482 139.492 351.482C138.486 351.482 137.689 351.794 137.1 352.418C136.528 353.025 136.242 353.9 136.242 355.044V363H132.602V348.596H136.242V350.39C136.727 349.766 137.342 349.281 138.088 348.934C138.85 348.57 139.682 348.388 140.584 348.388ZM151.637 346.88C150.996 346.88 150.458 346.681 150.025 346.282C149.609 345.866 149.401 345.355 149.401 344.748C149.401 344.141 149.609 343.639 150.025 343.24C150.458 342.824 150.996 342.616 151.637 342.616C152.278 342.616 152.807 342.824 153.223 343.24C153.656 343.639 153.873 344.141 153.873 344.748C153.873 345.355 153.656 345.866 153.223 346.282C152.807 346.681 152.278 346.88 151.637 346.88ZM153.431 348.596V363H149.791V348.596H153.431ZM156.091 355.798C156.091 354.307 156.395 353.007 157.001 351.898C157.608 350.771 158.449 349.905 159.523 349.298C160.598 348.674 161.829 348.362 163.215 348.362C165.001 348.362 166.474 348.813 167.635 349.714C168.814 350.598 169.603 351.846 170.001 353.458H166.075C165.867 352.834 165.512 352.349 165.009 352.002C164.524 351.638 163.917 351.456 163.189 351.456C162.149 351.456 161.326 351.837 160.719 352.6C160.113 353.345 159.809 354.411 159.809 355.798C159.809 357.167 160.113 358.233 160.719 358.996C161.326 359.741 162.149 360.114 163.189 360.114C164.663 360.114 165.625 359.455 166.075 358.138H170.001C169.603 359.698 168.814 360.937 167.635 361.856C166.457 362.775 164.983 363.234 163.215 363.234C161.829 363.234 160.598 362.931 159.523 362.324C158.449 361.7 157.608 360.833 157.001 359.724C156.395 358.597 156.091 357.289 156.091 355.798ZM182.503 344.852V363H178.863V344.852H182.503ZM194.082 348.388C195.798 348.388 197.184 348.934 198.242 350.026C199.299 351.101 199.828 352.609 199.828 354.55V363H196.188V355.044C196.188 353.9 195.902 353.025 195.33 352.418C194.758 351.794 193.978 351.482 192.99 351.482C191.984 351.482 191.187 351.794 190.598 352.418C190.026 353.025 189.74 353.9 189.74 355.044V363H186.1V348.596H189.74V350.39C190.225 349.766 190.84 349.281 191.586 348.934C192.348 348.57 193.18 348.388 194.082 348.388ZM207.527 351.586V358.554C207.527 359.039 207.64 359.395 207.865 359.62C208.108 359.828 208.506 359.932 209.061 359.932H210.751V363H208.463C205.395 363 203.861 361.509 203.861 358.528V351.586H202.145V348.596H203.861V345.034H207.527V348.596H210.751V351.586H207.527ZM226.759 355.486C226.759 356.006 226.725 356.474 226.655 356.89H216.125C216.212 357.93 216.576 358.745 217.217 359.334C217.859 359.923 218.647 360.218 219.583 360.218C220.935 360.218 221.897 359.637 222.469 358.476H226.395C225.979 359.863 225.182 361.007 224.003 361.908C222.825 362.792 221.377 363.234 219.661 363.234C218.275 363.234 217.027 362.931 215.917 362.324C214.825 361.7 213.967 360.825 213.343 359.698C212.737 358.571 212.433 357.271 212.433 355.798C212.433 354.307 212.737 352.999 213.343 351.872C213.95 350.745 214.799 349.879 215.891 349.272C216.983 348.665 218.24 348.362 219.661 348.362C221.031 348.362 222.253 348.657 223.327 349.246C224.419 349.835 225.26 350.676 225.849 351.768C226.456 352.843 226.759 354.082 226.759 355.486ZM222.989 354.446C222.972 353.51 222.634 352.765 221.975 352.21C221.317 351.638 220.511 351.352 219.557 351.352C218.656 351.352 217.893 351.629 217.269 352.184C216.663 352.721 216.29 353.475 216.151 354.446H222.989ZM233.056 350.832C233.524 350.069 234.131 349.471 234.876 349.038C235.639 348.605 236.505 348.388 237.476 348.388V352.21H236.514C235.37 352.21 234.503 352.479 233.914 353.016C233.342 353.553 233.056 354.489 233.056 355.824V363H229.416V348.596H233.056V350.832ZM245.934 359.646L249.574 348.596H253.448L248.118 363H243.698L238.394 348.596H242.294L245.934 359.646ZM257.338 346.88C256.697 346.88 256.16 346.681 255.726 346.282C255.31 345.866 255.102 345.355 255.102 344.748C255.102 344.141 255.31 343.639 255.726 343.24C256.16 342.824 256.697 342.616 257.338 342.616C257.98 342.616 258.508 342.824 258.924 343.24C259.358 343.639 259.574 344.141 259.574 344.748C259.574 345.355 259.358 345.866 258.924 346.282C258.508 346.681 257.98 346.88 257.338 346.88ZM259.132 348.596V363H255.492V348.596H259.132ZM276.119 355.486C276.119 356.006 276.084 356.474 276.015 356.89H265.485C265.571 357.93 265.935 358.745 266.577 359.334C267.218 359.923 268.007 360.218 268.943 360.218C270.295 360.218 271.257 359.637 271.829 358.476H275.755C275.339 359.863 274.541 361.007 273.363 361.908C272.184 362.792 270.737 363.234 269.021 363.234C267.634 363.234 266.386 362.931 265.277 362.324C264.185 361.7 263.327 360.825 262.703 359.698C262.096 358.571 261.793 357.271 261.793 355.798C261.793 354.307 262.096 352.999 262.703 351.872C263.309 350.745 264.159 349.879 265.251 349.272C266.343 348.665 267.599 348.362 269.021 348.362C270.39 348.362 271.612 348.657 272.687 349.246C273.779 349.835 274.619 350.676 275.209 351.768C275.815 352.843 276.119 354.082 276.119 355.486ZM272.349 354.446C272.331 353.51 271.993 352.765 271.335 352.21C270.676 351.638 269.87 351.352 268.917 351.352C268.015 351.352 267.253 351.629 266.629 352.184C266.022 352.721 265.649 353.475 265.511 354.446H272.349ZM298.743 348.596L294.531 363H290.605L287.979 352.938L285.353 363H281.401L277.163 348.596H280.855L283.403 359.568L286.159 348.596H290.007L292.711 359.542L295.259 348.596H298.743Z" fill="#3F3F3F"/>
<path d="M211.848 131.402C211.374 130.794 210.646 130.438 209.875 130.438H164.125C163.354 130.438 162.626 130.794 162.152 131.402V131.403L162.149 131.406L162.138 131.421L162.086 131.486C162.039 131.546 161.968 131.635 161.875 131.752C161.687 131.985 161.41 132.328 161.055 132.755C160.345 133.61 159.328 134.801 158.109 136.137C155.647 138.833 152.45 142.017 149.328 144.247C147.764 145.364 146.325 146.164 145.091 146.575C143.849 146.989 143.072 146.929 142.592 146.724C142.161 146.539 141.504 146.036 140.93 144.479C140.344 142.888 139.938 140.419 139.938 136.75C139.938 130.511 141.489 126.071 143.953 122.836C146.432 119.583 150.012 117.317 154.467 115.758C163.514 112.592 175.43 112.562 187 112.562C198.57 112.562 210.486 112.592 219.534 115.758C223.988 117.317 227.568 119.583 230.047 122.836C232.511 126.071 234.062 130.511 234.062 136.75C234.062 140.419 233.656 142.888 233.07 144.479C232.496 146.036 231.839 146.539 231.408 146.724C230.928 146.929 230.151 146.989 228.909 146.575C227.675 146.164 226.236 145.364 224.672 144.247C221.55 142.017 218.353 138.833 215.891 136.137C214.672 134.801 213.655 133.61 212.945 132.755C212.59 132.328 212.313 131.985 212.125 131.752C212.032 131.635 211.961 131.546 211.914 131.486L211.862 131.421L211.851 131.406L211.848 131.403V131.402ZM222.59 195.25H151.41C151.843 179.773 156.239 167.681 160.619 159.36C162.926 154.975 165.228 151.64 166.941 149.414C167.796 148.301 168.504 147.467 168.99 146.919C169.003 146.904 169.016 146.889 169.029 146.875H204.971C204.984 146.889 204.997 146.904 205.01 146.919C205.496 147.467 206.204 148.301 207.059 149.414C208.772 151.64 211.074 154.975 213.381 159.36C217.761 167.681 222.157 179.773 222.59 195.25Z" stroke="#A4238C" stroke-width="5" stroke-linecap="round" stroke-linejoin="round"/>
<path d="M199.75 171.062C199.75 178.104 194.042 183.812 187 183.812C179.958 183.812 174.25 178.104 174.25 171.062C174.25 164.021 179.958 158.312 187 158.312C194.042 158.312 199.75 164.021 199.75 171.062Z" stroke="#A4238C" stroke-width="5" stroke-linecap="round" stroke-linejoin="round"/>
<defs>
<radialGradient id="paint0_radial_1_62" cx="0" cy="0" r="1" gradientUnits="userSpaceOnUse" gradientTransform="translate(194.908 149.204) scale(171.534 171.534)">
<stop stop-color="#828282"/>
<stop offset="0.3164" stop-color="#848484" stop-opacity="0.6836"/>
<stop offset="0.4929" stop-color="#8C8C8C" stop-opacity="0.5071"/>
<stop offset="0.6349" stop-color="#9A9A9A" stop-opacity="0.3651"/>
<stop offset="0.7585" stop-color="#ADADAE" stop-opacity="0.2415"/>
<stop offset="0.8702" stop-color="#C5C6C7" stop-opacity="0.1298"/>
<stop offset="0.9718" stop-color="#E3E4E6" stop-opacity="0.0281528"/>
<stop offset="1" stop-color="#EDEEF0" stop-opacity="0"/>
</radialGradient>
<radialGradient id="paint1_radial_1_62" cx="0" cy="0" r="1" gradientUnits="userSpaceOnUse" gradientTransform="translate(107.368 61.818) scale(283.989 283.989)">
<stop stop-color="#F7F7F8"/>
<stop offset="0.5055" stop-color="#FBFBFB"/>
<stop offset="0.7151" stop-color="white"/>
</radialGradient>
</defs>
</svg>
