<svg width="75" height="242" viewBox="0 0 75 242" fill="none" xmlns="http://www.w3.org/2000/svg">
<path d="M1.33597 192.038L50.8138 192.038C58.4735 192.038 64.3736 194.212 68.514 198.559C72.6544 202.838 74.7246 208.634 74.7246 215.949C74.7246 223.609 72.5509 229.75 68.2034 234.374C63.856 238.997 57.6799 241.309 49.6751 241.309L49.6751 223.712C52.7114 223.712 55.0232 223.091 56.6103 221.849C58.1285 220.607 58.8875 218.813 58.8875 216.466C58.8875 214.327 58.1975 212.671 56.8173 211.498C55.4372 210.325 53.436 209.738 50.8138 209.738L1.33597 209.738L1.33597 192.038ZM74.7246 143.375C74.7246 150.207 73.1374 156.487 69.9631 162.214C66.7888 167.873 62.3724 172.393 56.7138 175.774C50.9863 179.086 44.5687 180.742 37.461 180.742C30.3533 180.742 23.9702 179.086 18.3116 175.774C12.6531 172.393 8.23664 167.873 5.06233 162.214C1.88803 156.487 0.300873 150.207 0.300873 143.375C0.300872 136.544 1.88803 130.299 5.06233 124.64C8.23664 118.912 12.6531 114.427 18.3116 111.184C23.9702 107.871 30.3533 106.215 37.461 106.215C44.5686 106.215 50.9863 107.871 56.7138 111.184C62.3724 114.496 66.7888 118.981 69.9631 124.64C73.1374 130.299 74.7246 136.544 74.7246 143.375ZM58.577 143.375C58.577 137.579 56.6448 132.955 52.7804 129.505C48.9161 125.986 43.8096 124.226 37.461 124.226C31.0433 124.226 25.9368 125.986 22.1415 129.505C18.2771 132.955 16.3449 137.579 16.3449 143.375C16.3449 149.241 18.2426 153.933 22.038 157.453C25.8333 160.903 30.9743 162.628 37.461 162.628C43.8786 162.628 49.0196 160.903 52.884 157.453C56.6793 153.933 58.577 149.241 58.577 143.375ZM1.33597 78.6678L74 78.6678L74 96.368L1.33597 96.3681L1.33597 78.6678ZM74 0.836388L74 18.5366L29.1802 48.1405L74 48.1405L74 65.8407L1.33597 65.8407L1.33597 48.1405L46.3628 18.5366L1.33597 18.5366L1.33597 0.836392L74 0.836388Z" fill="#A4238C" fill-opacity="0.3"/>
</svg>
