<svg width="142" height="142" viewBox="0 0 142 142" fill="none" xmlns="http://www.w3.org/2000/svg">
<path d="M133.855 25.9492C133.638 22.7416 131.007 20.1106 127.8 19.9304C126.755 19.8583 121.637 19.8583 118.573 19.8944C117.384 19.8944 116.411 20.8675 116.411 22.0568C116.411 23.2462 117.384 24.2193 118.573 24.2193C121.313 24.2193 125.637 24.2193 126.286 24.2193C128.989 24.2193 129.566 24.7599 129.566 27.4269C129.566 47.4654 129.566 67.504 129.566 87.5786L129.566 89.0203L8.46942 89.0203L8.46941 54.3492C8.46941 45.267 8.46941 36.1487 8.46941 27.0665C8.46941 25.0122 9.19022 24.2914 11.2085 24.2914C12.0014 24.2914 25.3004 24.2914 30.6344 24.2914C31.8237 24.2914 32.7968 23.3183 32.7968 22.1289C32.7968 20.9396 31.8237 19.9665 30.6344 19.9665C25.3364 19.9665 12.2176 19.9665 11.5689 19.9665C6.70341 19.9665 4.14453 22.5254 4.14453 27.3908C4.14454 52.6914 4.14454 78.0279 4.14455 103.328C4.14455 108.266 6.70343 110.789 11.641 110.789C49.8801 110.789 88.1192 110.789 126.394 110.789C131.368 110.789 133.891 108.266 133.891 103.328C133.891 78.0279 133.891 52.6913 133.891 27.3908C133.891 26.8502 133.891 26.4177 133.855 25.9492ZM129.566 103.869C129.566 105.599 128.809 106.356 127.115 106.392C126.791 106.392 126.502 106.392 126.178 106.392C88.0831 106.392 49.9882 106.392 11.8933 106.392C9.01003 106.392 8.50546 105.887 8.50546 103.04C8.50546 99.9046 8.50546 96.733 8.50546 93.4893L129.494 93.4893C129.53 93.7416 129.566 93.9578 129.566 94.1741C129.566 97.3817 129.566 100.625 129.566 103.869Z" fill="#3F3F3F"/>
<path d="M55.214 123.655C64.4404 123.655 73.5947 123.655 82.9653 123.655C82.713 123.259 82.4968 123.007 82.3166 122.718C81.3435 121.241 80.3343 119.835 79.4694 118.321C78.7125 116.988 79.1089 115.654 80.2622 115.114C81.4155 114.573 82.4607 115.114 83.2897 116.339C84.6592 118.321 86.1369 120.232 87.6145 122.178C88.5516 123.403 89.777 123.908 91.3628 123.764C92.4079 123.655 93.5252 123.764 94.5704 124.016C97.2374 124.701 99.1836 127.187 99.2557 129.963C99.2917 131.44 99.2917 132.918 99.2557 134.432C99.2196 135.873 98.3907 136.63 96.9491 136.738C96.6247 136.738 96.3364 136.738 96.012 136.738C77.9917 136.738 59.9714 136.738 41.9511 136.738C39.2841 136.738 38.7074 136.162 38.7074 133.495C38.7074 132.377 38.6714 131.224 38.7074 130.107C38.8155 126.575 41.6267 123.511 45.1227 123.836C48.3663 124.16 50.3125 122.682 52.0064 120.412C52.9795 119.114 53.8445 117.745 54.6734 116.375C55.4663 115.078 56.5475 114.609 57.7008 115.15C58.8541 115.69 59.2866 117.024 58.4937 118.357C57.5567 120.123 56.4034 121.817 55.214 123.655ZM94.8947 132.305C95.1831 128.521 94.7506 128.016 91.1465 128.016C76.1897 128.016 61.2689 128.016 46.312 128.016C45.9155 128.016 45.4831 127.98 45.0866 128.016C43.9694 128.124 43.2485 128.773 43.1044 129.89C42.9963 130.683 43.0683 131.476 43.0683 132.305C60.4399 132.305 77.6313 132.305 94.8947 132.305Z" fill="#3F3F3F"/>
<path d="M69.1259 102.067C67.7203 102.067 66.3147 102.103 64.9452 102.067C63.5036 102.031 62.6386 101.238 62.6026 99.9766C62.5665 98.7152 63.5036 97.7782 64.9812 97.7421C67.7564 97.7061 70.5675 97.7061 73.3427 97.7421C74.8203 97.7782 75.7213 98.6792 75.6853 99.9766C75.6493 101.238 74.7843 101.995 73.3427 102.031C71.9371 102.103 70.5315 102.067 69.1259 102.067Z" fill="#A4238C"/>
<path d="M33.4816 58.4579C34.0582 55.8269 35.4278 53.7365 37.8425 52.403C38.9958 51.7543 40.2572 51.3939 41.6268 51.3579C44.1136 51.3579 46.6004 51.3579 49.1232 51.3579C49.7359 51.3579 50.2765 51.2497 50.8171 51.0335C58.7461 47.8259 66.675 44.6543 74.64 41.4467C74.8202 41.3746 75.0004 41.3025 75.1806 41.2304C76.5141 40.7619 77.4511 41.4106 77.4511 42.8162C77.4511 45.9878 77.4872 49.1233 77.4511 52.2949C77.4511 53.0157 77.5953 53.4122 78.3522 53.6645C80.9831 54.6015 82.6049 57.1244 82.6049 60.0076C82.5689 62.7467 80.839 65.2335 78.244 66.0985C77.5953 66.3147 77.4511 66.6391 77.4511 67.2518C77.4872 70.4233 77.4511 73.5589 77.4872 76.7304C77.4872 77.5594 77.2349 78.1721 76.5501 78.5685C76.1537 78.5685 75.7572 78.5685 75.3608 78.5685C75.2887 78.5325 75.1806 78.4604 75.1085 78.4244C67.576 75.3969 60.0796 72.3695 52.5831 69.3421C52.0065 69.1259 51.9344 69.3061 51.9344 69.8106C51.9704 72.0812 51.9344 74.3518 51.9704 76.6223C51.9704 77.4513 51.7181 78.1 51.0334 78.5685C48.6187 78.5685 46.24 78.5685 43.8253 78.5685C43.1044 78.136 42.8882 77.4873 42.8882 76.6584C42.9242 74.2436 42.8882 71.8289 42.8882 69.4142C42.8882 68.369 42.8882 68.369 41.8791 68.369C40.4374 68.369 39.0679 68.0086 37.8425 67.2878C35.4999 65.9543 34.1303 63.9 33.5897 61.269C33.4816 60.9086 33.4095 60.4041 33.4095 59.8274C33.3014 59.2508 33.4095 58.7822 33.4816 58.4579ZM74.3877 59.8274C74.3877 57.5568 74.3877 55.2863 74.3877 53.0157C74.3877 50.5289 74.3877 48.0421 74.3877 45.5193C74.3877 44.9787 74.2435 44.8705 73.775 45.0868C73.1263 45.3751 72.4775 45.6634 71.7928 45.8797C71.108 46.0959 70.9278 46.4924 70.9278 47.1771C70.9638 51.7903 70.9278 56.4396 70.9278 61.0528C70.9278 61.4853 70.9278 61.9538 70.7836 62.3502C70.5674 63.035 70.0989 63.4315 69.378 63.4675C68.6572 63.5035 68.1887 63.1431 67.9004 62.4944C67.7562 62.134 67.7562 61.7375 67.7562 61.3411C67.7562 56.9802 67.7562 52.6193 67.7562 48.2944C67.7562 47.7178 67.6841 47.5736 67.0714 47.7898C62.242 49.7721 57.3765 51.7183 52.511 53.6645C52.0065 53.8807 51.8263 54.169 51.8263 54.7096C51.8623 58.1335 51.8623 61.5574 51.8263 64.9812C51.8263 65.5579 52.0065 65.8462 52.5471 66.0624C59.575 68.8736 66.5669 71.6848 73.5948 74.532C74.3516 74.8203 74.3517 74.8203 74.3517 74.0274C74.3877 69.27 74.3877 64.5487 74.3877 59.8274ZM48.7628 59.8634C48.7628 58.2777 48.7628 56.6919 48.7628 55.1061C48.7628 54.6376 48.6186 54.3853 48.078 54.3853C45.7714 54.4573 43.5009 54.2771 41.1943 54.4934C38.5994 54.7457 36.509 57.1604 36.509 59.8274C36.545 62.5665 38.5994 64.8731 41.2303 65.1254C43.5369 65.3416 45.8075 65.1614 48.1141 65.2335C48.6547 65.2335 48.7628 64.9452 48.7628 64.5127C48.7628 62.999 48.7628 61.4132 48.7628 59.8634ZM48.7628 71.937C48.7628 70.964 48.7628 69.9909 48.7628 69.0178C48.7628 68.5132 48.5826 68.2969 48.078 68.333C47.5735 68.369 47.0329 68.369 46.5283 68.333C46.0237 68.2969 45.8435 68.5132 45.8435 69.0178C45.8796 70.9639 45.8796 72.9462 45.8435 74.8924C45.8435 75.3969 45.9877 75.6132 46.5283 75.5771C47.0329 75.5411 47.5735 75.5411 48.078 75.5771C48.5826 75.6132 48.7628 75.3969 48.7628 74.8924C48.7268 73.9193 48.7628 72.9462 48.7628 71.937ZM77.4151 59.7914C77.4151 60.7284 77.4151 61.6294 77.4151 62.5665C77.4151 62.999 77.5593 63.035 77.8836 62.8188C79.974 61.5934 79.974 58.0974 77.9197 56.8721C77.5232 56.6198 77.4151 56.7279 77.4151 57.1604C77.4151 58.0254 77.4151 58.9264 77.4151 59.7914Z" fill="#3F3F3F"/>
<path d="M69.5221 40.1493C64.8369 40.1493 60.1876 40.1493 55.5023 40.1493C54.8176 40.1493 54.313 40.3655 53.8445 40.8701C52.3668 42.3838 50.8531 43.8975 49.3394 45.4112C48.7627 45.9878 48.1501 46.4203 47.3211 46.0599C46.4922 45.6995 46.348 44.9787 46.348 44.1858C46.3841 43.2127 46.348 42.2396 46.348 41.2665C46.348 40.2574 46.348 40.2574 45.3389 40.2574C44.7622 40.2574 44.1856 40.2574 43.6089 40.0411C42.2034 39.4645 41.3384 38.2391 41.3384 36.6173C41.3384 30.2021 41.3384 23.7868 41.3384 17.4076C41.3384 16.2543 41.3384 15.101 41.3384 13.9477C41.3384 11.3528 42.744 9.94724 45.3028 9.94724C53.0155 9.94724 60.7643 9.94724 68.477 9.94724C69.45 9.94724 69.45 9.94724 69.5221 8.97414C69.6663 6.09089 72.2252 3.56805 75.1445 3.53201C78.7485 3.49597 82.3526 3.53201 85.9206 3.49596C91.3988 3.49596 96.8769 3.49596 102.355 3.49596C106.175 3.49596 108.626 5.94672 108.662 9.76703C108.662 15.2092 108.662 20.6873 108.662 26.1295C108.662 29.8777 106.175 32.3645 102.463 32.3645C97.7059 32.3645 92.9125 32.4005 88.1551 32.3645C87.3983 32.3645 87.182 32.5807 87.2181 33.3015C87.2902 34.3828 87.2541 35.5 87.2181 36.6173C87.182 38.8158 85.7044 40.2934 83.5059 40.2934C78.8567 40.1493 74.1714 40.1493 69.5221 40.1493ZM89.1282 29.1929C93.4891 29.1929 97.85 29.1929 102.175 29.1929C104.518 29.1929 105.635 28.0757 105.635 25.733C105.635 23.3543 105.635 20.9757 105.635 18.633C105.635 15.6777 105.635 12.7224 105.635 9.76703C105.635 7.60459 104.482 6.48733 102.319 6.45129C102.103 6.45129 101.887 6.45129 101.67 6.45129C93.1287 6.45129 84.5871 6.45129 76.0815 6.4513C73.847 6.4513 72.6216 7.53251 72.6216 9.62287C72.5856 15.101 72.6216 20.5792 72.6216 26.0574C72.6216 27.1026 72.946 28.0396 73.847 28.6884C74.5318 29.1569 75.2886 29.265 76.0815 29.265C80.4064 29.1929 84.7673 29.1929 89.1282 29.1929ZM49.4836 40.5818C49.5556 40.6178 49.5917 40.6538 49.6638 40.6899C50.5287 39.8249 51.4298 38.9599 52.2947 38.0589C52.9074 37.4102 53.5922 37.0858 54.4932 37.1219C56.4394 37.1579 58.4216 37.1219 60.3678 37.1219C67.9003 37.1219 75.4328 37.1219 82.9653 37.1219C84.0105 37.1219 84.1186 37.0137 84.1186 36.0046C84.1186 35.0315 84.0825 34.0584 84.1186 33.0853C84.1546 32.4366 83.9023 32.2203 83.2896 32.2564C80.8028 32.2924 78.316 32.2564 75.7932 32.2564C72.0089 32.2564 69.5221 29.8056 69.5221 26.0213C69.5221 21.9488 69.4861 17.8401 69.5221 13.7675C69.5221 13.0467 69.3059 12.8665 68.5851 12.8665C60.9445 12.9026 53.2678 12.8665 45.6272 12.8665C44.51 12.8665 44.3658 13.0107 44.3658 14.128C44.3658 18.597 44.3658 23.03 44.3658 27.499C44.3658 30.3462 44.3658 33.2295 44.3658 36.0767C44.3658 36.9056 44.582 37.1219 45.411 37.1219C46.1318 37.1219 46.8166 37.1219 47.5374 37.1219C48.8348 37.1219 49.4115 37.6625 49.4475 38.996C49.5196 39.5005 49.4836 40.0411 49.4836 40.5818Z" fill="#3F3F3F"/>
<path d="M92.2998 61.4132C91.0384 61.4132 89.741 61.4132 88.4795 61.4132C87.3983 61.4132 86.7496 60.8726 86.7135 59.9716C86.6415 58.9985 87.2181 58.3858 88.3354 58.3137C89.741 58.2416 91.1105 58.2777 92.5161 58.2777C93.7775 58.2777 95.0029 58.2416 96.2643 58.3137C97.4897 58.3858 98.1745 59.1066 97.9943 60.0797C97.8501 60.9087 97.2734 61.3772 96.3364 61.4132C95.0029 61.4493 93.6333 61.4132 92.2998 61.4132Z" fill="#A4238C"/>
<path d="M85.8846 66.4589C86.3532 66.4228 86.7496 66.7111 87.074 67.0716C87.9389 67.9365 88.8039 68.7655 89.6689 69.6665C90.4618 70.4594 90.4978 71.3243 89.8491 72.0091C89.2364 72.6579 88.2633 72.6218 87.5065 71.865C86.5694 70.9639 85.6323 70.0269 84.7313 69.0538C84.2628 68.5492 84.1186 67.9365 84.443 67.2878C84.7313 66.7472 85.1999 66.4589 85.8846 66.4589Z" fill="#A4238C"/>
<path d="M85.7767 53.0519C84.5873 53.0519 83.8305 51.7545 84.5513 50.7453C85.4883 49.4839 86.6416 48.3666 87.9031 47.3935C88.4797 46.961 89.2726 47.1052 89.7772 47.6098C90.2457 48.1143 90.3899 48.9433 89.9213 49.4839C88.9482 50.7093 87.831 51.7905 86.6056 52.7996C86.3894 53.0159 86.101 53.088 85.7767 53.0519Z" fill="#A4238C"/>
<path d="M69.3783 66.459C70.2072 66.459 70.8559 67.1077 70.8559 67.9367C70.8559 68.8016 70.1351 69.4864 69.3062 69.4864C68.4773 69.4504 67.7925 68.7656 67.7925 67.9727C67.7925 67.1438 68.5133 66.459 69.3783 66.459Z" fill="#A4238C"/>
<path d="M82.641 17.8042C82.641 16.1103 82.641 14.4163 82.641 12.7585C82.641 12.4701 82.641 12.1818 82.7131 11.8935C82.9293 10.6681 83.9745 10.0915 85.0557 10.7042C88.3354 12.5783 91.6151 14.4524 94.8948 16.3625C96.1202 17.0833 96.1563 18.4889 94.8948 19.2097C91.6151 21.1199 88.3354 23.03 85.0557 24.9042C83.9745 25.5169 82.9293 24.9762 82.6771 23.7509C82.641 23.4625 82.605 23.1742 82.605 22.8859C82.641 21.1559 82.641 19.4981 82.641 17.8042ZM85.7766 17.7681C85.7766 18.5971 85.7766 19.426 85.7766 20.2549C85.7766 20.6874 85.8847 20.8316 86.3172 20.5793C87.7588 19.7143 89.2365 18.8854 90.7141 18.0564C91.0385 17.8762 91.1466 17.7321 90.7502 17.5158C89.2725 16.6509 87.7948 15.8219 86.3172 14.9569C85.9207 14.7407 85.7766 14.8488 85.8126 15.2813C85.7766 16.1102 85.7766 16.9392 85.7766 17.7681Z" fill="#A4238C"/>
<path d="M57.5927 21.8046C55.178 21.8046 52.7993 21.8046 50.3846 21.8046C49.1592 21.8046 48.4024 20.6874 48.9069 19.6422C49.1953 19.0655 49.6638 18.7772 50.3125 18.7772C55.178 18.7772 60.0435 18.7772 64.909 18.7772C65.81 18.7772 66.4587 19.462 66.4948 20.2909C66.4948 21.1199 65.846 21.8046 64.945 21.8046C62.4943 21.8046 60.0435 21.8046 57.5927 21.8046Z" fill="#A4238C"/>
<path d="M54.8896 30.0219C53.4119 30.0219 51.9703 30.0219 50.4926 30.0219C49.4835 30.0219 48.7627 29.4092 48.7627 28.5082C48.7627 27.6432 49.4475 26.9945 50.4566 26.9945C53.3759 26.9945 56.3312 26.9945 59.2505 26.9945C60.2957 26.9945 60.9444 27.5712 60.9444 28.5082C60.9444 29.4092 60.2957 30.0219 59.2505 30.0219C57.8089 30.0219 56.3673 30.0219 54.8896 30.0219Z" fill="#A4238C"/>
<path d="M64.9449 30.0219C64.1159 30.0219 63.4312 29.3371 63.4312 28.5082C63.4312 27.6793 64.152 26.9945 64.9809 26.9945C65.8098 26.9945 66.4586 27.6793 66.4946 28.5082C66.4946 29.3371 65.7738 30.0219 64.9449 30.0219Z" fill="#A4238C"/>
</svg>
