<svg width="28" height="19" viewBox="0 0 28 19" fill="none" xmlns="http://www.w3.org/2000/svg">
<path d="M19.2321 9.70783L26.4086 3.54569V15.7996L19.2321 9.70783ZM9.98475 10.7514L12.5049 12.9134C12.9004 13.2455 13.4161 13.4462 13.9796 13.4462H13.9994H13.9983H14.0146C14.5793 13.4462 15.095 13.2444 15.4951 12.91L15.4916 12.9123L18.0117 10.7502L25.6724 17.2525H2.3276L9.98475 10.7514ZM2.3171 2.08472H25.6864L14.4614 11.72C14.3352 11.8186 14.179 11.8723 14.0181 11.8722H14.0017H14.0029H13.9866C13.8251 11.8724 13.6683 11.8183 13.5421 11.7188L13.5432 11.72L2.3171 2.08472ZM1.59257 3.54453L8.76787 9.70667L1.59257 15.795V3.54453ZM26.7936 0.72983C26.5136 0.591459 26.1846 0.510742 25.8357 0.510742H2.16892C1.83076 0.510822 1.49725 0.588588 1.19472 0.737902L1.20755 0.732136C0.845371 0.908688 0.540362 1.18182 0.326977 1.52067C0.113592 1.85953 0.000335254 2.25061 0 2.64973L0 16.6852C0.000617663 17.2532 0.229204 17.7978 0.635603 18.1995C1.042 18.6011 1.59302 18.827 2.16776 18.8277H25.8322C26.407 18.827 26.958 18.6011 27.3644 18.1995C27.7708 17.7978 27.9994 17.2532 28 16.6852V2.65435V2.64973C28 1.81143 27.5111 1.08498 26.7994 0.735596L26.7866 0.72983H26.7936Z" fill="#A4238C"/>
</svg>
