<svg width="37" height="35" viewBox="0 0 37 35" fill="none" xmlns="http://www.w3.org/2000/svg">
<path d="M26.6944 0.941406H9.56481C4.8346 0.941406 1 4.64818 1 9.22073V25.7794C1 30.3519 4.8346 34.0587 9.56481 34.0587H26.6944C31.4247 34.0587 35.2593 30.3519 35.2593 25.7794V9.22073C35.2593 4.64818 31.4247 0.941406 26.6944 0.941406Z" stroke="white" stroke-width="1.5" stroke-linecap="round" stroke-linejoin="round"/>
<g clip-path="url(#clip0_5_177)">
<path d="M23.6112 8.59259H20.6213C19.2996 8.59259 18.0322 9.13401 17.0976 10.0977C16.1631 11.0615 15.6381 12.3685 15.6381 13.7315V16.8148H12.6482V20.9259H15.6381V29.1481H19.6246V20.9259H22.6145L23.6112 16.8148H19.6246V13.7315C19.6246 13.4589 19.7296 13.1975 19.9165 13.0047C20.1034 12.812 20.3569 12.7037 20.6213 12.7037H23.6112V8.59259Z" fill="white"/>
</g>
<defs>
<clipPath id="clip0_5_177">
<rect width="10.963" height="20.5556" fill="white" transform="translate(12.6482 8.59253)"/>
</clipPath>
</defs>
</svg>
