<svg width="88" height="78" viewBox="0 0 88 78" fill="none" xmlns="http://www.w3.org/2000/svg">
<path d="M88 67.433C87.9403 67.5639 87.8706 67.6848 87.8308 67.8158C87.1141 70.2736 85.2028 71.7442 82.6446 71.7543C77.8665 71.7644 73.0785 71.7543 68.3004 71.7543C67.9918 71.7543 67.6832 71.7543 67.4045 71.7543C67.1954 72.4292 67.076 73.0537 66.8172 73.6279C65.772 75.9346 63.9702 77.2542 61.4717 77.2643C50.0242 77.3147 38.5668 77.2945 27.1193 77.2744C24.3719 77.2643 21.9729 75.3504 21.4055 72.6307C21.3458 72.3486 21.2761 72.0867 21.1965 71.7644C20.868 71.7644 20.5594 71.7644 20.2408 71.7644C15.4628 71.7644 10.6747 71.7745 5.89664 71.7644C2.67144 71.7644 0.571075 69.6188 0.571075 66.3451C0.571075 60.2408 0.56112 54.1365 0.571075 48.0323C0.581029 41.3639 5.65774 36.1964 12.2376 36.1863C14.2782 36.1863 16.3587 36.1057 18.3595 36.4382C21.8236 37.0224 24.4316 39.0471 26.2134 42.1294C26.3428 42.351 26.4623 42.5727 26.6017 42.8043C26.6116 42.8245 26.6514 42.8245 26.6912 42.8446C27.5374 42.0992 28.3536 41.2934 29.2396 40.5983C32.9127 37.7074 37.0836 36.1964 41.7323 36.2065C44.6887 36.2165 47.675 36.1863 50.5817 36.6094C54.7426 37.2239 58.2764 39.309 61.2726 42.3107C61.4518 42.4921 61.6111 42.6935 61.84 42.9655C62.0092 42.7036 62.1287 42.5223 62.2282 42.341C64.5078 38.3923 67.8922 36.277 72.4215 36.2065C74.5716 36.1763 76.7815 36.1057 78.8818 36.5087C83.64 37.4354 86.9946 41.1423 87.8507 45.9874C87.9303 46.3903 88 46.7933 88 47.2063V67.433ZM44.2507 72.0968C49.7953 72.0968 55.3398 72.0968 60.8844 72.0968C61.9296 72.0968 62.2083 71.8551 62.2083 70.888C62.2083 66.1134 62.2581 61.3287 62.1884 56.5541C62.0789 49.4223 56.7633 42.9554 49.8251 41.7265C47.2768 41.2732 44.619 41.3538 42.011 41.3538C33.2412 41.3437 26.3827 48.3042 26.3528 57.1786C26.3428 61.6712 26.3528 66.1638 26.3528 70.6463C26.3528 71.4421 26.9899 72.0968 27.7862 72.0968C33.2711 72.0968 38.7659 72.0968 44.2507 72.0968ZM21.2363 66.5365C21.2363 63.1922 21.1367 59.9285 21.2761 56.685C21.3657 54.751 21.8435 52.8371 22.1322 50.9031C22.2914 49.8353 22.5702 48.7676 22.5602 47.6998C22.5502 44.6376 20.3802 41.9884 17.3839 41.515C15.8012 41.2632 14.1587 41.3437 12.5362 41.3437C8.41509 41.3337 5.69756 44.0937 5.6876 48.2539C5.6876 54.0358 5.6876 59.8278 5.6876 65.6097C5.6876 65.9119 5.6876 66.2141 5.6876 66.5365H21.2363ZM82.8636 66.5264C82.8636 60.0696 82.9233 53.7034 82.8337 47.3473C82.7939 44.4966 80.5542 41.9884 77.757 41.5251C76.2539 41.2833 74.701 41.3538 73.168 41.3437C72.3816 41.3437 71.5554 41.3538 70.7989 41.5653C67.1656 42.5525 65.1847 46.0881 66.21 50.2785C66.5683 51.7492 67.066 53.23 67.1457 54.7308C67.3248 58.3471 67.295 61.9734 67.3448 65.5997C67.3448 65.9019 67.3448 66.2041 67.3448 66.5264L82.8636 66.5264Z" fill="white"/>
<path d="M44.3104 0.21632C52.5127 0.226393 59.1622 7.00562 59.1323 15.326C59.1025 23.5759 52.4132 30.2947 44.2407 30.2847C36.0483 30.2746 29.3888 23.4853 29.4187 15.1749C29.4585 6.92503 36.1379 0.206247 44.3104 0.21632ZM34.5551 15.2455C34.5551 20.6547 38.9251 25.0869 44.2606 25.097C49.6061 25.1071 53.9959 20.695 54.0158 15.2958C54.0357 9.84625 49.6459 5.39392 44.2705 5.40399C38.9251 5.41406 34.5551 9.83617 34.5551 15.2455Z" fill="white"/>
<path d="M14.2383 30.2812C9.082 30.2913 4.84145 26.0103 4.84145 20.7925C4.83149 15.5647 9.05214 11.2837 14.2184 11.2837C19.3847 11.2736 23.6153 15.5446 23.6153 20.7724C23.6253 25.9902 19.4047 30.2712 14.2383 30.2812ZM14.1985 25.0937C16.5577 25.1138 18.4889 23.1698 18.4988 20.7825C18.5088 18.4355 16.6274 16.4914 14.308 16.4511C11.9488 16.4108 9.98784 18.3348 9.96793 20.712C9.93807 23.1093 11.8394 25.0836 14.1985 25.0937Z" fill="white"/>
<path d="M74.253 30.281C69.0967 30.2407 64.9059 25.9296 64.9457 20.7019C64.9855 15.4843 69.246 11.2437 74.4123 11.284C79.5686 11.3243 83.7594 15.6354 83.7196 20.8631C83.6897 26.0807 79.4293 30.3213 74.253 30.281ZM74.3725 25.0936C76.7217 25.0734 78.6329 23.0992 78.603 20.712C78.5732 18.365 76.662 16.4613 74.3426 16.4512C71.9834 16.4512 70.0622 18.3953 70.0722 20.7825C70.0821 23.1697 72.0133 25.1137 74.3725 25.0936Z" fill="white"/>
</svg>
