<svg width="71" height="72" viewBox="0 0 71 72" fill="none" xmlns="http://www.w3.org/2000/svg">
<path d="M68.1799 71.2739C60.6824 71.2739 53.1848 71.2739 45.6873 71.2739C44.0794 70.6252 43.5194 69.4018 43.5916 67.6595C43.682 65.4909 43.6097 63.3037 43.6097 61.1351C43.6097 60.8941 43.6097 60.6346 43.6097 60.3751C38.2621 60.3751 32.9867 60.3751 27.6932 60.3751C27.6932 60.6902 27.6932 60.9497 27.6932 61.1907C27.6932 63.5817 27.6932 65.9543 27.6932 68.3453C27.6932 69.2906 27.3861 70.0691 26.6635 70.6437C26.3563 70.8847 25.9769 71.0515 25.6337 71.2554C18.1362 71.2554 10.6386 71.2554 3.1411 71.2554C2.03906 70.9032 1.3164 70.1618 0.973145 69.0311C0.973145 61.339 0.973145 53.6468 0.973145 45.9546C1.5874 44.342 2.76171 43.7859 4.42381 43.8045C10.6928 43.8601 16.9799 43.8415 23.2489 43.8045C23.5922 43.8045 24.0077 43.6377 24.2426 43.3967C30.5839 36.9278 36.9071 30.4405 43.2122 23.9531C43.4471 23.7121 43.5916 23.2858 43.6097 22.9336C43.6458 21.4137 43.6278 19.8753 43.6278 18.3554C43.6278 17.7808 43.6278 17.2062 43.6278 16.6131C38.2801 16.6131 33.0409 16.6131 27.7113 16.6131C27.7113 16.9096 27.7113 17.1506 27.7113 17.3915C27.7113 19.6343 27.639 21.8956 27.7294 24.1384C27.8197 26.3071 26.4647 27.5304 24.4774 27.5119C17.7929 27.4377 11.1084 27.4563 4.44188 27.5119C2.77978 27.5304 1.60547 26.9929 0.991211 25.3618C0.991211 17.6696 0.991211 9.97738 0.991211 2.28519C1.5332 0.617009 2.68945 0.0238765 4.36962 0.0424118C11.1445 0.098018 17.9194 0.0609473 24.6942 0.0609473C26.6093 0.116553 27.6932 1.19161 27.6932 3.19343C27.6932 5.54742 27.6932 7.91995 27.6932 10.2739C27.6932 10.5149 27.7113 10.7559 27.7294 10.9968C33.0589 10.9968 38.3163 10.9968 43.6097 10.9968C43.6097 10.6817 43.6097 10.4408 43.6097 10.1813C43.6097 7.88288 43.6097 5.60303 43.6097 3.30464C43.6097 1.15454 44.6395 0.0980182 46.7171 0.0980182C53.5281 0.0980182 60.3572 0.0980182 67.1682 0.0980182C69.2819 0.0980182 70.3298 1.15454 70.3298 3.32318C70.3298 10.2925 70.3298 17.2618 70.3298 24.2496C70.3298 26.4739 69.3181 27.5119 67.1501 27.5119C60.7908 27.5119 54.4134 27.5119 48.054 27.5304C47.7107 27.5304 47.2952 27.6972 47.0604 27.9382C40.7191 34.407 34.3959 40.8944 28.0907 47.4003C27.8739 47.6228 27.7113 48.0305 27.7113 48.3642C27.6752 50.2548 27.6932 52.1639 27.6932 54.0545C27.6932 54.277 27.7113 54.4994 27.7294 54.7033C33.0589 54.7033 38.3163 54.7033 43.6097 54.7033C43.6097 54.4067 43.6097 54.1472 43.6097 53.9063C43.6097 51.6079 43.6097 49.328 43.6097 47.0296C43.6097 44.9166 44.6214 43.8601 46.6629 43.8601C53.5281 43.8601 60.3933 43.8601 67.2585 43.8601C69.2819 43.8601 70.3298 44.9351 70.3298 47.0296C70.3298 53.9619 70.3117 60.8756 70.3479 67.8078C70.3659 69.5316 69.7878 70.7179 68.1799 71.2739ZM22.2372 5.71424C16.9257 5.71424 11.6684 5.71424 6.42918 5.71424C6.42918 11.1451 6.42918 16.5204 6.42918 21.9327C11.7045 21.9327 16.9618 21.9327 22.2372 21.9327C22.2372 16.5018 22.2372 11.1266 22.2372 5.71424ZM64.8738 21.9327C64.8738 16.4833 64.8738 11.0895 64.8738 5.71424C59.5803 5.71424 54.3411 5.71424 49.0657 5.71424C49.0657 11.1266 49.0657 16.5204 49.0657 21.9327C54.3591 21.9327 59.5984 21.9327 64.8738 21.9327ZM6.41111 65.6762C11.7226 65.6762 16.9799 65.6762 22.2372 65.6762C22.2372 60.2639 22.2372 54.8701 22.2372 49.4763C16.9438 49.4763 11.6865 49.4763 6.41111 49.4763C6.41111 54.9072 6.41111 60.2639 6.41111 65.6762ZM64.8918 65.6948C64.8918 60.2454 64.8918 54.8701 64.8918 49.4763C59.5984 49.4763 54.3411 49.4763 49.1019 49.4763C49.1019 54.9072 49.1019 60.301 49.1019 65.6948C54.3592 65.6948 59.5984 65.6948 64.8918 65.6948Z" fill="white"/>
<path d="M22.8696 48.5317H4.31549L4.31549 67.5674H22.8696L22.8696 48.5317Z" fill="white"/>
<path d="M65.5062 4.28516L46.952 4.28516V23.3188L65.5062 23.3188V4.28516Z" fill="white"/>
</svg>
