<svg width="103" height="79" viewBox="0 0 103 79" fill="none" xmlns="http://www.w3.org/2000/svg">
<path d="M0.872925 66.0711C0.872925 65.2551 0.872925 64.4391 0.872925 63.6231C1.53795 62.5351 2.52219 62.2087 3.74583 62.2631C4.75667 62.3175 5.76751 62.2631 6.85815 62.2631C6.85815 61.6647 6.85815 61.2295 6.85815 60.7943C6.85815 41.7542 6.85815 22.7142 6.85815 3.67422C6.85815 1.41662 7.46997 0.791016 9.70445 0.791016C37.8217 0.791016 65.9656 0.791016 94.0828 0.791016C96.4237 0.791016 97.0089 1.38942 97.0089 3.83742C97.0089 22.8502 97.0089 41.8358 97.0089 60.8487C97.0089 61.2839 97.0089 61.7191 97.0089 62.2631C98.206 62.2631 99.2966 62.2903 100.361 62.2631C101.584 62.2087 102.515 62.6167 102.994 63.8135C102.994 64.5751 102.994 65.3095 102.994 66.0711C102.941 66.1527 102.861 66.2343 102.861 66.3159C101.318 74.2039 95.9715 78.6647 88.1242 78.6647C67.8542 78.6647 47.5843 78.6647 27.3143 78.6647C23.1912 78.6647 19.068 78.6919 14.9448 78.6647C8.50741 78.6103 3.05421 74.3671 1.35174 68.1111C1.16554 67.4311 1.03253 66.7511 0.872925 66.0711ZM18.9084 13.167C18.9084 29.5414 18.9084 45.8342 18.9084 62.2087C40.934 62.2087 62.933 62.2087 84.9587 62.2087C84.9587 45.8342 84.9587 29.5414 84.9587 13.167C62.933 13.167 40.934 13.167 18.9084 13.167ZM92.9656 4.95262C65.5931 4.95262 38.2739 4.95262 10.9015 4.95262C10.9015 24.047 10.9015 43.1142 10.9015 62.1815C12.2315 62.1815 13.5084 62.1815 14.865 62.1815C14.865 61.6647 14.865 61.2295 14.865 60.7943C14.865 44.5014 14.865 28.2358 14.865 11.943C14.865 9.63102 15.4769 9.00542 17.7646 9.00542C40.535 9.00542 63.3055 9.00542 86.0759 9.00542C88.3636 9.00542 88.9754 9.63102 88.9754 11.9702C88.9754 28.2902 88.9754 44.6102 88.9754 60.9303C88.9754 61.3655 88.9754 61.7735 88.9754 62.2359C90.3853 62.2359 91.6355 62.2359 92.939 62.2359C92.9656 43.1142 92.9656 24.1014 92.9656 4.95262ZM98.7646 66.4519C67.5084 66.4519 36.3054 66.4519 5.07588 66.4519C5.18229 66.8871 5.26209 67.2135 5.36849 67.5127C6.77835 71.9191 10.6089 74.5847 15.4769 74.5847C39.6572 74.5847 63.8109 74.5847 87.9912 74.5847C88.3902 74.5847 88.7892 74.5847 89.1882 74.5847C93.9232 74.3943 97.7537 71.1575 98.7646 66.4519Z" fill="white"/>
<path d="M48.8345 49.9497C45.6424 49.9497 42.4502 49.9497 39.2581 49.9497C37.7685 49.9497 36.9172 49.2187 36.9172 47.9192C36.9172 46.6738 37.7951 45.8887 39.2581 45.8887C45.6956 45.8887 52.1596 45.8887 58.5971 45.8887C59.8739 45.8887 60.6985 46.5384 60.8581 47.5943C61.0177 48.569 60.4857 49.5436 59.5547 49.8414C59.2089 49.9497 58.8365 49.9497 58.4641 49.9497C55.2985 49.9497 52.0798 49.9497 48.8345 49.9497Z" fill="white"/>
<path d="M37.6355 28.4812C39.5774 30.4668 41.4394 32.3163 43.2483 34.1931C43.9665 34.9275 44.1527 35.7706 43.6473 36.6954C43.1951 37.5386 42.4237 37.865 41.5458 37.6474C41.1202 37.5386 40.6946 37.2666 40.3754 36.9402C38.0877 34.6555 35.8533 32.3435 33.5922 30.0316C32.608 28.998 32.5814 27.9101 33.5656 26.9037C35.8267 24.5645 38.1143 22.2254 40.402 19.9135C41.3596 18.9615 42.5035 18.9343 43.3281 19.7775C44.2059 20.6479 44.1527 21.8174 43.1685 22.851C41.3596 24.7277 39.5242 26.5501 37.6355 28.4812Z" fill="white"/>
<path d="M66.3379 28.616C64.3694 26.6032 62.5606 24.8352 60.8581 22.9855C60.4059 22.4959 59.9803 21.6799 60.0335 21.0543C60.0601 20.4831 60.6453 19.8031 61.1773 19.4223C61.8158 18.9599 62.6404 19.1231 63.199 19.6943C65.6729 22.1695 68.1202 24.6448 70.5143 27.2016C71.2591 27.9904 71.2325 29.0784 70.461 29.8672C68.0936 32.3424 65.6995 34.7904 63.2788 37.2112C62.4808 38.0272 61.2305 37.9184 60.5123 37.1024C59.7675 36.2864 59.7409 35.144 60.5655 34.2736C62.135 32.6144 63.7576 30.9824 65.3537 29.3776C65.6197 29.1056 65.9389 28.9152 66.3379 28.616Z" fill="white"/>
<path d="M53.9685 17.2469C55.3252 17.2741 56.1498 18.4437 55.804 19.9669C55.0858 23.3125 54.3675 26.6581 53.6227 30.0037C53.0641 32.5877 52.5055 35.1717 51.9202 37.7557C51.601 39.1973 50.6168 39.9589 49.4729 39.6597C48.3025 39.3605 47.7439 38.2997 48.0631 36.8581C49.3399 30.9557 50.6168 25.0533 51.9202 19.1781C52.2129 17.8453 52.8779 17.2197 53.9685 17.2469Z" fill="white"/>
<path d="M47.8503 58.1359C46.2808 58.1359 44.7379 58.163 43.1685 58.1359C41.7852 58.1089 40.934 57.324 40.9606 56.1061C40.9872 54.9423 41.8118 54.1033 43.1419 54.1033C46.334 54.0762 49.5261 54.0762 52.7183 54.1033C54.0749 54.1033 54.9528 54.9694 54.9528 56.1602C54.9262 57.351 54.0749 58.1359 52.6651 58.1359C51.0424 58.1359 49.4463 58.1359 47.8503 58.1359Z" fill="white"/>
<path d="M71.9507 49.9507C70.3547 49.9507 68.7586 49.9507 67.1626 49.9507C65.8591 49.9507 64.9813 49.1384 64.9547 48.0012C64.9281 46.8369 65.8325 45.9163 67.1626 45.9163C70.3547 45.8892 73.5468 45.8892 76.7389 45.9163C78.0956 45.9163 78.9734 46.7827 78.9468 48.0012C78.9202 49.1655 78.069 49.9507 76.7389 49.9507C75.1429 49.9507 73.5468 49.9507 71.9507 49.9507Z" fill="white"/>
<path d="M30.9054 58.1359C29.602 58.1359 28.3251 58.163 27.0217 58.1359C25.7448 58.1089 24.9468 57.351 24.9202 56.1873C24.8936 54.9964 25.6916 54.1033 26.9951 54.1033C29.5754 54.0762 32.1823 54.0762 34.7626 54.1033C36.0394 54.1304 36.9172 55.0235 36.8906 56.1602C36.864 57.324 36.0128 58.1089 34.6828 58.1359C33.4325 58.1359 32.1823 58.1359 30.9054 58.1359Z" fill="white"/>
<path d="M62.9065 58.1089C62.2149 58.1089 61.5232 58.136 60.8316 58.1089C59.7942 58.0277 59.0227 57.2428 58.9695 56.2413C58.9163 55.2669 59.608 54.2384 60.6188 54.1842C62.1617 54.076 63.7311 54.076 65.274 54.1842C66.3646 54.2654 67.003 55.2398 66.9232 56.3225C66.8434 57.351 66.0986 58.0818 65.008 58.136C64.3163 58.163 63.5981 58.1089 62.9065 58.1089Z" fill="white"/>
<path d="M28.8838 49.9211C28.2187 49.9211 27.5537 49.9481 26.8887 49.9211C25.7715 49.8669 25 49.109 24.9202 48.0534C24.867 46.9706 25.5586 45.9962 26.6227 45.942C28.1389 45.8338 29.6818 45.8338 31.198 45.942C32.2887 46.0232 32.9537 47.0248 32.8739 48.0804C32.7941 49.109 32.0227 49.8669 30.9586 49.9211C30.267 49.9481 29.5754 49.9211 28.8838 49.9211Z" fill="white"/>
<path d="M74.9567 58.1097C74.2384 58.1097 73.4936 58.1639 72.7754 58.1097C71.7911 58.0285 71.0729 57.2436 70.9931 56.2692C70.9399 55.2677 71.5251 54.2933 72.5094 54.2121C74.1054 54.0768 75.7547 54.0768 77.3508 54.185C78.3883 54.2662 79.0001 55.2406 78.9203 56.2962C78.8405 57.2977 78.1222 58.0556 77.1114 58.1097C76.4198 58.1639 75.6749 58.1097 74.9567 58.1097Z" fill="white"/>
</svg>
