<svg width="75" height="78" viewBox="0 0 75 78" fill="none" xmlns="http://www.w3.org/2000/svg">
<path d="M28.0396 0.989746C34.3856 0.989746 40.7316 0.989746 47.0776 0.989746C47.0971 2.60599 47.1362 4.22224 47.1362 5.83848C47.1362 6.25751 47.2533 6.41714 47.6634 6.57677C49.4403 7.27515 51.1976 8.01343 52.9159 8.79162C53.3845 9.01111 53.6579 9.01111 54.0289 8.61204C55.0833 7.47468 56.1768 6.39718 57.1336 5.3995C61.7027 10.0487 66.1937 14.658 70.7238 19.2872C69.7084 20.3049 68.654 21.4023 67.5605 22.4798C67.2091 22.819 67.1505 23.0585 67.3653 23.5374C68.1463 25.2733 68.8493 27.0492 69.5131 28.845C69.7084 29.3638 69.9427 29.5235 70.4504 29.5035C71.9539 29.4636 73.4574 29.4836 75 29.4836C75 36.0483 75 42.5133 75 49.078C73.4574 49.078 71.9539 49.098 70.4504 49.0581C69.9427 49.0381 69.7084 49.1978 69.5131 49.7166C68.8493 51.5124 68.1268 53.2883 67.3653 55.0242C67.1505 55.5231 67.2091 55.7625 67.5605 56.1017C68.654 57.1792 69.7279 58.2966 70.7238 59.3143C66.1742 63.9635 61.6636 68.5528 57.1336 73.202C56.0987 72.1245 54.9857 71.0071 53.9117 69.8498C53.6188 69.5305 53.4041 69.5505 53.0331 69.7101C51.2952 70.4883 49.5379 71.2465 47.7805 71.9449C47.2728 72.1444 47.1166 72.3639 47.1166 72.8827C47.1362 74.4591 47.0776 76.0155 47.0581 77.5918C40.7121 77.5918 34.3661 77.5918 28.02 77.5918C28.0005 76.0155 27.9419 74.4591 27.9615 72.8827C27.9615 72.344 27.8053 72.1245 27.2976 71.925C25.5793 71.2465 23.861 70.5282 22.1622 69.77C21.674 69.5505 21.4202 69.5505 21.0492 69.9495C19.9948 71.0869 18.9013 72.1644 17.8274 73.2619C13.2387 68.6326 8.70867 64.0832 4.13955 59.4739C5.3697 58.2168 6.48269 57.0794 7.59568 55.982C7.9081 55.6827 7.88857 55.4632 7.73236 55.0841C6.97084 53.3082 6.22885 51.5124 5.54543 49.7166C5.35017 49.2177 5.13538 49.0381 4.60817 49.0381C3.06561 49.0581 1.54257 48.9982 0 48.9783C0 42.4933 0 36.0084 0 29.5235C1.56209 29.5035 3.12419 29.4636 4.66675 29.4636C5.13538 29.4636 5.31112 29.304 5.48685 28.865C6.17027 27.0492 6.89274 25.2733 7.67378 23.4975C7.86904 23.0585 7.86904 22.819 7.51757 22.4798C6.40458 21.3824 5.31112 20.245 4.29576 19.2274C8.94298 14.6181 13.434 10.0287 17.9641 5.3995C18.999 6.477 20.1119 7.5944 21.1859 8.75171C21.4788 9.07097 21.6936 9.05102 22.0646 8.89139C23.8024 8.1132 25.5597 7.35496 27.3171 6.65658C27.8053 6.45705 27.981 6.23756 27.981 5.69881C27.9615 4.12247 28.02 2.56608 28.0396 0.989746ZM64.5535 19.3072C62.0346 16.7332 59.6134 14.2589 57.075 11.6649C56.1572 12.6427 55.1809 13.7002 54.1851 14.7578C50.8071 12.4032 47.1362 10.8468 43.1724 9.98884C42.7232 9.88907 42.7232 9.62967 42.7232 9.29046C42.7232 8.03338 42.7232 6.7763 42.7232 5.49927C39.2085 5.49927 35.7915 5.49927 32.3353 5.49927C32.3353 6.75635 32.2963 7.99348 32.3549 9.21065C32.3744 9.7494 32.1791 9.94893 31.691 10.0687C30.4803 10.368 29.2502 10.6074 28.0981 11.0863C25.6379 12.1438 23.2361 13.3411 20.6001 14.5782C19.7995 13.7401 18.8232 12.6826 17.925 11.7448C15.4452 14.2789 13.024 16.7531 10.5051 19.3471C11.4423 20.2849 12.4577 21.2826 13.5121 22.3002C11.2471 25.7323 9.7045 29.4436 8.88441 33.4743C8.78677 33.9332 8.55246 33.9931 8.16194 33.9931C6.95131 33.9731 5.74069 33.9931 4.49102 33.9931C4.49102 37.5648 4.49102 41.0567 4.49102 44.6084C5.72117 44.6084 6.89274 44.6284 8.06431 44.5885C8.61104 44.5685 8.8063 44.7481 8.96251 45.2868C9.50924 47.2223 10.0169 49.1778 10.7589 51.0335C11.5009 52.8692 12.5163 54.5852 13.4535 56.421C12.5163 57.3588 11.4814 58.3565 10.5246 59.3143C13.024 61.8883 15.4452 64.3625 17.9836 66.9366C18.9404 65.9389 19.9362 64.9013 20.9516 63.8437C24.3101 66.1584 27.9224 67.7147 31.8276 68.5528C32.2963 68.6526 32.3939 68.892 32.3744 69.331C32.3549 70.5681 32.3744 71.8052 32.3744 73.0623C35.8891 73.0623 39.3062 73.0623 42.7623 73.0623C42.7623 71.8052 42.8013 70.608 42.7428 69.4108C42.7232 68.8521 42.9185 68.6526 43.4457 68.5129C44.9492 68.1138 46.4918 67.7546 47.9172 67.1361C50.0846 66.1983 52.1739 65.0609 54.4194 63.9635C55.2786 64.8813 56.2549 65.9189 57.1726 66.8966C59.672 64.3426 62.0932 61.8683 64.5926 59.3143C63.6162 58.3565 62.6009 57.3588 61.605 56.3811C61.6636 56.2414 61.6832 56.1616 61.7222 56.1017C63.8701 52.7295 65.3931 49.078 66.2132 45.1472C66.3109 44.7281 66.4866 44.5885 66.8966 44.5885C68.1268 44.6084 69.3765 44.5885 70.6261 44.5885C70.6261 41.0168 70.6261 37.5249 70.6261 33.9731C69.435 33.9731 68.3025 33.9332 67.1505 33.9931C66.5256 34.013 66.2523 33.8135 66.1351 33.175C65.6079 30.581 64.7683 28.0868 63.5772 25.7323C62.9719 24.555 62.2885 23.3977 61.6246 22.2005C62.6009 21.2227 63.5967 20.245 64.5535 19.3072Z" fill="white"/>
<path d="M63.1867 39.3181C63.1672 53.7445 51.6663 65.4971 37.5488 65.4971C23.4119 65.4971 11.8915 53.6846 11.9305 39.2583C11.9696 24.812 23.49 13.0793 37.5879 13.1192C51.7053 13.1392 63.1867 24.8918 63.1867 39.3181ZM37.4903 61.0075C49.1864 61.0474 58.7543 51.3301 58.7933 39.378C58.8324 27.4259 49.3231 17.6487 37.627 17.6088C25.9308 17.5689 16.363 27.2862 16.3239 39.2383C16.2849 51.1904 25.7941 60.9676 37.4903 61.0075Z" fill="white"/>
<path d="M37.2364 54.5435C35.7524 54.2641 34.3856 54.0247 32.9211 53.7653C34.6199 43.8686 36.3382 34.0118 38.0565 24.0752C39.5015 24.3346 40.9073 24.594 42.3913 24.8534C40.6535 34.77 38.9547 44.6268 37.2364 54.5435Z" fill="white"/>
<path d="M30.1288 36.1677C28.8986 37.4044 27.6099 38.7209 26.3017 40.0574C27.6685 41.4138 28.9767 42.7304 30.2655 43.9871C29.133 45.144 28.1371 46.1813 27.1608 47.1587C24.8763 44.8248 22.5722 42.4511 20.3071 40.1372C22.5526 37.8433 24.8763 35.4695 27.1803 33.1157C28.0981 34.0732 29.1134 35.1105 30.1288 36.1677Z" fill="white"/>
<path d="M47.8782 47.1426C46.941 46.1848 45.9451 45.1672 44.9103 44.1297C46.1795 42.8328 47.4877 41.5159 48.7569 40.2389C47.4096 38.8621 46.1014 37.5453 44.8517 36.2683C45.9842 35.111 46.98 34.0735 47.9368 33.1157C50.2019 35.4303 52.5255 37.8046 54.771 40.1192C52.545 42.3738 50.2214 44.7682 47.8782 47.1426Z" fill="white"/>
</svg>
