<svg width="39" height="37" viewBox="0 0 39 37" fill="none" xmlns="http://www.w3.org/2000/svg">
<path d="M27.5376 1.94135H10.5733C5.88877 1.94135 2.09119 5.64812 2.09119 10.2207V26.7793C2.09119 31.3519 5.88877 35.0586 10.5733 35.0586H27.5376C32.2222 35.0586 36.0198 31.3519 36.0198 26.7793V10.2207C36.0198 5.64812 32.2222 1.94135 27.5376 1.94135Z" stroke="white" stroke-width="1.5" stroke-linecap="round" stroke-linejoin="round"/>
<path d="M25.8412 17.4568C26.0505 18.8349 25.8094 20.2424 25.152 21.479C24.4947 22.7156 23.4546 23.7183 22.1797 24.3447C20.9048 24.971 19.46 25.1891 18.0508 24.9677C16.6417 24.7464 15.3399 24.097 14.3306 23.1119C13.3214 22.1268 12.6561 20.8561 12.4293 19.4807C12.2026 18.1052 12.4259 16.695 13.0676 15.4506C13.7093 14.2061 14.7367 13.1909 16.0036 12.5493C17.2705 11.9076 18.7124 11.6722 20.1242 11.8766C21.5644 12.085 22.8976 12.7401 23.9271 13.7449C24.9566 14.7498 25.6276 16.0511 25.8412 17.4568Z" stroke="white" stroke-width="2" stroke-linecap="round" stroke-linejoin="round"/>
<path d="M28.3859 9.38696L28.402 9.39247L28.3859 9.38696Z" fill="white"/>
<path d="M28.3859 9.38696L28.402 9.39247" stroke="white" stroke-width="2" stroke-linecap="round" stroke-linejoin="round"/>
</svg>
