<svg width="75" height="75" viewBox="0 0 75 75" fill="none" xmlns="http://www.w3.org/2000/svg">
<rect width="75" height="75" rx="37.5" fill="white"/>
<path d="M40.662 45.3234C40.5853 45.2475 40.4817 45.2049 40.3738 45.2049C40.2659 45.2049 40.1623 45.2475 40.0856 45.3234L34.1587 51.2503C31.4146 53.9944 26.7833 54.2851 23.7536 51.2503C20.7188 48.2154 21.0095 43.5892 23.7536 40.8451L29.6804 34.9182C29.8386 34.7601 29.8386 34.5 29.6804 34.3419L27.6504 32.3119C27.5737 32.2359 27.4702 32.1933 27.3622 32.1933C27.2543 32.1933 27.1507 32.2359 27.0741 32.3119L21.1472 38.2387C16.8321 42.5538 16.8321 49.5365 21.1472 53.8464C25.4623 58.1564 32.445 58.1615 36.7549 53.8464L42.6818 47.9196C42.8399 47.7615 42.8399 47.5013 42.6818 47.3432L40.662 45.3234ZM53.852 21.1467C49.537 16.8316 42.5543 16.8316 38.2443 21.1467L32.3123 27.0736C32.2364 27.1503 32.1938 27.2538 32.1938 27.3618C32.1938 27.4697 32.2364 27.5732 32.3123 27.6499L34.3373 29.6749C34.4954 29.833 34.7555 29.833 34.9136 29.6749L40.8405 23.748C43.5846 21.0039 48.2159 20.7132 51.2456 23.748C54.2805 26.7828 53.9897 31.4091 51.2456 34.1532L45.3188 40.08C45.2428 40.1567 45.2003 40.2603 45.2003 40.3682C45.2003 40.4761 45.2428 40.5797 45.3188 40.6564L47.3488 42.6864C47.5069 42.8445 47.7671 42.8445 47.9252 42.6864L53.852 36.7595C58.162 32.4445 58.162 25.4618 53.852 21.1467ZM42.5033 30.3736C42.4266 30.2977 42.323 30.2551 42.2151 30.2551C42.1072 30.2551 42.0036 30.2977 41.9269 30.3736L30.3741 41.9213C30.2982 41.998 30.2556 42.1016 30.2556 42.2095C30.2556 42.3174 30.2982 42.421 30.3741 42.4977L32.394 44.5175C32.5521 44.6756 32.8122 44.6756 32.9703 44.5175L44.518 32.9698C44.6761 32.8117 44.6761 32.5516 44.518 32.3935L42.5033 30.3736Z" fill="#AE3998"/>
</svg>
