<svg width="36" height="35" viewBox="0 0 36 35" fill="none" xmlns="http://www.w3.org/2000/svg">
<path d="M21.179 13.6173C22.451 13.6173 23.671 14.1226 24.5705 15.0221C25.47 15.9216 25.9753 17.1415 25.9753 18.4136V24.0093H22.7778V18.4136C22.7778 17.9896 22.6093 17.5829 22.3095 17.2831C22.0097 16.9833 21.603 16.8148 21.179 16.8148C20.755 16.8148 20.3483 16.9833 20.0485 17.2831C19.7487 17.5829 19.5802 17.9896 19.5802 18.4136V24.0093H16.3827V18.4136C16.3827 17.1415 16.888 15.9216 17.7875 15.0221C18.687 14.1226 19.9069 13.6173 21.179 13.6173Z" fill="white"/>
<path d="M9.98767 14.4166H13.1852V24.0092H9.98767V14.4166Z" fill="white"/>
<path d="M11.5864 12.0185C12.4694 12.0185 13.1852 11.3027 13.1852 10.4197C13.1852 9.53678 12.4694 8.82098 11.5864 8.82098C10.7035 8.82098 9.98767 9.53678 9.98767 10.4197C9.98767 11.3027 10.7035 12.0185 11.5864 12.0185Z" fill="white"/>
<path d="M26.5464 0.941406H9.41674C4.68653 0.941406 0.851929 4.64818 0.851929 9.22073V25.7794C0.851929 30.3519 4.68653 34.0587 9.41674 34.0587H26.5464C31.2766 34.0587 35.1112 30.3519 35.1112 25.7794V9.22073C35.1112 4.64818 31.2766 0.941406 26.5464 0.941406Z" stroke="white" stroke-width="1.5" stroke-linecap="round" stroke-linejoin="round"/>
</svg>
