<svg width="15" height="19" viewBox="0 0 15 19" fill="none" xmlns="http://www.w3.org/2000/svg">
<path d="M10.7014 12.2054L10.9238 12.0533C11.5148 11.6859 11.7223 11.8193 12.0804 12.3912L14.0172 15.4471C14.5949 16.3573 14.9167 16.5743 14.1044 17.1326L13.882 17.2847L10.7014 12.2054ZM10.1896 12.6004L13.2789 17.5339C12.2911 17.9852 9.68135 18.9759 8.15652 17.8521C6.7961 16.8424 6.79589 16.4957 5.85028 15.4063C4.31684 13.2791 2.74403 10.6808 1.5744 8.66454C1.00542 7.32295 0.636577 7.19163 0.370013 5.50417C0.0893541 3.70761 2.05217 1.64657 2.85237 0.883326L5.94172 5.81682L4.24466 6.57042C3.76179 6.78894 4.05894 7.68406 4.48022 8.35681C5.21945 9.52495 6.71297 11.9224 7.35186 12.856C7.76611 13.5176 8.43589 14.179 8.84352 13.8279L10.1896 12.6004ZM3.32708 0.441494L3.55847 0.291452C4.36185 -0.182196 4.42822 0.208314 4.98792 1.11449L6.8937 4.18264C7.23375 4.75041 7.285 4.99307 6.7391 5.3707L6.50971 5.51157L3.32708 0.441494Z" fill="#A4238C"/>
</svg>
