<svg width="58" height="58" viewBox="0 0 58 58" fill="none" xmlns="http://www.w3.org/2000/svg">
<circle cx="26" cy="28" r="25" fill="#A4238C"/>
<path d="M19.8211 27.851C18.7976 27.854 17.7922 28.085 16.9017 28.5216C18.1555 25.7129 20.2349 23.2361 22.9342 21.3365C23.0886 21.2264 23.2165 21.0911 23.3105 20.9383C23.4045 20.7854 23.4628 20.618 23.4821 20.4456C23.5014 20.2733 23.4812 20.0993 23.4228 19.9337C23.3644 19.7681 23.2689 19.614 23.1417 19.4804C23.0145 19.3467 22.8582 19.236 22.6816 19.1546C22.5049 19.0733 22.3116 19.0228 22.1124 19.0061C21.9133 18.9895 21.7123 19.0069 21.5209 19.0574C21.3296 19.108 21.1516 19.1907 20.9971 19.3007C15.4628 23.1927 13 28.5815 13 31.9226C13.0095 33.1039 13.4163 34.2573 14.1706 35.2419C14.9249 36.2265 15.9941 36.9997 17.2476 37.4671C18.0589 37.8073 18.9473 37.9872 19.8488 37.994C20.6422 38.0274 21.4352 37.921 22.1797 37.6812C22.9242 37.4413 23.6046 37.0732 24.1798 36.599C24.755 36.1247 25.2129 35.5544 25.5258 34.9224C25.8387 34.2904 26 33.6101 26 32.9225C26 32.235 25.8387 31.5546 25.5258 30.9226C25.2129 30.2907 24.755 29.7203 24.1798 29.2461C23.6046 28.7719 22.9242 28.4037 22.1797 28.1639C21.4352 27.9241 20.6422 27.8176 19.8488 27.851H19.8211Z" fill="white"/>
<path d="M34.3098 27.8885C33.3629 27.8904 32.4326 28.1211 31.6093 28.5582C32.7686 25.7561 34.6871 23.2835 37.1768 21.3827C37.3326 21.2777 37.4638 21.1441 37.5623 20.99C37.6608 20.8359 37.7245 20.6646 37.7494 20.4866C37.7744 20.3086 37.7602 20.1278 37.7075 19.9551C37.6549 19.7825 37.565 19.6218 37.4434 19.4828C37.3219 19.3438 37.1711 19.2296 37.0005 19.1471C36.8299 19.0646 36.643 19.0157 36.4514 19.0032C36.2598 18.9907 36.0674 19.015 35.8862 19.0746C35.705 19.1342 35.5388 19.2278 35.3977 19.3496C30.2782 23.2364 28 28.618 28 31.9546C28.0061 33.121 28.3714 34.2611 29.0522 35.2388C29.7331 36.2164 30.7008 36.9902 31.8397 37.4678C32.6091 37.8175 33.4542 37.9975 34.3098 37.994C35.0438 38.0274 35.7774 37.9211 36.466 37.6816C37.1547 37.4421 37.7842 37.0744 38.3162 36.6008C38.8483 36.1273 39.2719 35.5576 39.5613 34.9265C39.8508 34.2954 40 33.6159 40 32.9293C40 32.2427 39.8508 31.5632 39.5613 30.9321C39.2719 30.301 38.8483 29.7313 38.3162 29.2578C37.7842 28.7842 37.1547 28.4165 36.466 28.177C35.7774 27.9375 35.0438 27.8312 34.3098 27.8646V27.8885Z" fill="white"/>
</svg>
