<svg width="64" height="50" viewBox="0 0 64 50" fill="none" xmlns="http://www.w3.org/2000/svg">
<path d="M42.4114 23.108L28.6971 14.0171C28.3528 13.7886 27.9526 13.6575 27.5392 13.6376C27.1258 13.6176 26.7147 13.7097 26.3497 13.904C25.9848 14.0982 25.6798 14.3873 25.4673 14.7405C25.2547 15.0936 25.1426 15.4975 25.1429 15.9091V34.0909C25.1426 34.5025 25.2547 34.9064 25.4673 35.2595C25.6798 35.6127 25.9848 35.9018 26.3497 36.096C26.7147 36.2903 27.1258 36.3824 27.5392 36.3624C27.9526 36.3425 28.3528 36.2114 28.6971 35.983L42.4114 26.8921C42.725 26.6846 42.9821 26.4033 43.1599 26.0732C43.3377 25.7431 43.4308 25.3745 43.4308 25C43.4308 24.6255 43.3377 24.2569 43.1599 23.9268C42.9821 23.5967 42.725 23.3154 42.4114 23.108ZM29.7143 29.8438V20.1705L37.0229 25L29.7143 29.8438ZM62.38 8.38637C62.1108 7.33906 61.595 6.37041 60.8752 5.56033C60.1553 4.75025 59.2521 4.12195 58.24 3.72728C48.4457 -0.0340803 32.8571 1.08066e-05 32 1.08066e-05C31.1429 1.08066e-05 15.5543 -0.0340803 5.76 3.72728C4.74789 4.12195 3.84467 4.75025 3.12484 5.56033C2.40501 6.37041 1.88922 7.33906 1.62 8.38637C0.88 11.2216 0 16.4034 0 25C0 33.5966 0.88 38.7784 1.62 41.6136C1.88881 42.6615 2.40443 43.6307 3.12428 44.4413C3.84413 45.2519 4.74757 45.8806 5.76 46.2756C15.1429 49.875 29.8286 50 31.8114 50H32.1886C34.1714 50 48.8657 49.875 58.24 46.2756C59.2524 45.8806 60.1559 45.2519 60.8757 44.4413C61.5956 43.6307 62.1112 42.6615 62.38 41.6136C63.12 38.7727 64 33.5966 64 25C64 16.4034 63.12 11.2216 62.38 8.38637ZM57.9543 40.4886C57.8672 40.8372 57.6983 41.1603 57.4614 41.4314C57.2245 41.7025 56.9264 41.9139 56.5914 42.0483C47.5486 45.5199 32.1686 45.4574 32.02 45.4574H32C31.8457 45.4574 16.4771 45.5142 7.42857 42.0483C7.09363 41.9139 6.79549 41.7025 6.55859 41.4314C6.3217 41.1603 6.15279 40.8372 6.06571 40.4886C5.37143 37.8949 4.57143 33.1165 4.57143 25C4.57143 16.8835 5.37143 12.1051 6.04571 9.52558C6.13117 9.17495 6.29935 8.8496 6.53633 8.57641C6.77332 8.30323 7.07231 8.09007 7.40857 7.95455C16.1286 4.60512 30.74 4.54546 31.9371 4.54546H32.0143C32.1686 4.54546 47.5514 4.49433 56.5857 7.95455C56.9207 8.08897 57.2188 8.30039 57.4557 8.57149C57.6926 8.8426 57.8615 9.16566 57.9486 9.51421C58.6286 12.1051 59.4286 16.8835 59.4286 25C59.4286 33.1165 58.6286 37.8949 57.9543 40.4744V40.4886Z" fill="black"/>
</svg>
