<svg width="132" height="116" viewBox="0 0 132 116" fill="none" xmlns="http://www.w3.org/2000/svg">
<path d="M35.8796 115.203C33.4791 114.308 32.7749 112.686 32.7749 110.476C32.8389 75.3756 32.8069 40.303 32.8069 5.20238C32.8069 1.84614 34.2152 0.643493 38.056 0.643493C56.4599 0.64349 74.8317 0.643486 93.2356 0.643483C96.9164 0.643482 98.3567 1.90207 98.3567 5.09049C98.3567 40.2191 98.3567 75.3477 98.3887 110.476C98.3887 112.686 97.6845 114.308 95.284 115.203C75.5039 115.203 55.6917 115.203 35.8796 115.203ZM36.9998 4.27941C36.9998 40.1072 36.9998 75.8231 36.9998 111.539C56.1398 111.539 75.1838 111.539 94.1958 111.539C94.1958 75.7392 94.1958 40.0513 94.1958 4.2794C75.1198 4.27941 56.1078 4.27941 36.9998 4.27941Z" fill="#3F3F3F"/>
<path d="M0.0320063 12.502C0.800164 11.5511 1.85638 11.3553 3.13664 11.3553C11.1703 11.3833 19.1719 11.3833 27.2056 11.3832C27.6537 11.3832 28.1338 11.3832 28.6459 11.3832C28.6459 12.5859 28.6459 13.7046 28.6459 14.9353C20.5162 14.9353 12.4185 14.9353 4.19286 14.9353C4.19286 18.5712 4.19286 22.0952 4.19286 25.7032C12.3225 25.7032 20.4202 25.7032 28.6139 25.7032C28.6139 26.9059 28.6139 28.0526 28.6139 29.2552C20.5162 29.2552 12.4185 29.2552 4.22487 29.2552C4.22487 53.1405 4.22488 76.9418 4.22488 100.855C12.2905 100.855 20.4202 100.855 28.6139 100.855C28.6139 102.086 28.6139 103.176 28.6139 104.463C28.1978 104.463 27.7497 104.463 27.3016 104.463C19.236 104.463 11.1703 104.435 3.10465 104.491C1.82439 104.491 0.768174 104.295 1.60838e-05 103.344C0.0320173 73.0541 0.0320116 42.7921 0.0320063 12.502Z" fill="#3F3F3F"/>
<path d="M102.517 104.463C102.517 103.204 102.517 102.086 102.517 100.911C110.679 100.911 118.777 100.911 126.938 100.911C126.938 77.0257 126.938 53.2244 126.938 29.3392C118.841 29.3392 110.743 29.3392 102.549 29.3392C102.549 28.1366 102.549 26.9899 102.549 25.7313C110.647 25.7313 118.776 25.7313 126.97 25.7313C126.97 22.1233 126.97 18.6272 126.97 15.0193C118.873 15.0193 110.743 15.0193 102.549 15.0193C102.549 13.7607 102.549 12.642 102.549 11.3834C102.933 11.3834 103.317 11.3834 103.701 11.3834C111.895 11.3834 120.089 11.3834 128.282 11.3834C130.523 11.3834 131.163 11.9707 131.163 13.9285C131.163 43.2396 131.163 72.5507 131.163 101.862C131.163 103.904 130.523 104.463 128.218 104.463C120.057 104.463 111.927 104.463 103.765 104.463C103.381 104.463 102.997 104.463 102.517 104.463Z" fill="#3F3F3F"/>
<path d="M110.743 18.5994C114.808 18.5994 118.808 18.5994 122.873 18.5994C122.873 19.7461 122.873 20.8368 122.873 22.0394C118.872 22.0394 114.872 22.0394 110.743 22.0394C110.743 20.9487 110.743 19.802 110.743 18.5994Z" fill="#A4238C"/>
<path d="M12.2585 18.5994C12.2585 19.7461 12.2585 20.8368 12.2585 22.0394C10.9783 22.0394 9.69805 22.0394 8.32178 22.0394C8.32178 20.9207 8.32178 19.802 8.32178 18.5994C9.63403 18.5994 10.9143 18.5994 12.2585 18.5994Z" fill="#A4238C"/>
<path d="M16.5156 18.5715C17.8599 18.5715 19.0761 18.5715 20.4204 18.5715C20.4204 19.7182 20.4204 20.8369 20.4204 22.0395C19.1722 22.0395 17.8919 22.0395 16.5156 22.0395C16.5156 20.9208 16.5156 19.8021 16.5156 18.5715Z" fill="#A4238C"/>
<path d="M28.678 18.6274C28.678 19.802 28.678 20.8928 28.678 22.0674C27.3657 22.0674 26.1175 22.0674 24.7412 22.0674C24.7412 20.9767 24.7412 19.83 24.7412 18.6274C25.9895 18.6274 27.2697 18.6274 28.678 18.6274Z" fill="#A4238C"/>
<path d="M51.2428 14.9636C51.2428 16.1942 51.2428 17.285 51.2428 18.4876C49.2584 18.4876 47.274 18.4876 45.2256 18.4876C45.2256 41.2261 45.2256 63.8248 45.2256 86.5353C47.178 86.5353 49.1624 86.5353 51.2108 86.5353C51.2108 87.7659 51.2108 88.8567 51.2108 90.1432C49.2904 90.1432 47.338 90.1432 45.4176 90.1432C41.1288 90.1432 41.0327 90.0593 41.0327 86.3395C41.0327 63.4891 41.0327 40.6388 41.0327 17.7884C41.0327 15.439 41.5768 14.9636 44.2334 14.9636C46.5058 14.9636 48.8103 14.9636 51.2428 14.9636Z" fill="#3F3F3F"/>
<path d="M79.9844 90.0592C79.9844 88.9125 79.9844 87.7938 79.9844 86.6191C81.9688 86.6191 83.9212 86.6191 85.9696 86.6191C85.9696 63.9365 85.9696 41.3378 85.9696 18.5993C84.0172 18.5993 82.0648 18.5993 79.9844 18.5993C79.9844 17.3407 79.9844 16.222 79.9844 14.9913C82.7369 14.9913 85.4575 14.9354 88.1781 15.0193C89.3623 15.0473 90.0024 15.7465 90.1305 16.7534C90.1625 17.089 90.1625 17.4246 90.1625 17.7602C90.1625 40.9463 90.1625 64.1323 90.1625 87.3183C90.1625 89.7236 89.6504 90.1711 86.8658 90.1431C84.6894 90.1431 82.5129 90.1431 80.3365 90.1432C80.2724 90.1432 80.1764 90.0872 79.9844 90.0592Z" fill="#3F3F3F"/>
<path d="M65.5443 93.5546C69.2524 93.5546 72.3513 96.863 72.2983 100.727C72.2453 104.592 69.1729 107.789 65.5178 107.761C61.8098 107.761 58.7109 104.453 58.7639 100.588C58.8168 96.7518 61.8892 93.5546 65.5443 93.5546ZM68.908 100.644C68.8816 98.7257 67.3454 97.1132 65.5178 97.141C63.6903 97.141 62.1541 98.7535 62.1541 100.672C62.1541 102.646 63.7168 104.286 65.5973 104.23C67.4248 104.175 68.9345 102.562 68.908 100.644Z" fill="#A4238C"/>
<path d="M55.4033 18.4597C55.4033 17.285 55.4033 16.1662 55.4033 15.0195C62.1887 15.0195 68.91 15.0195 75.7274 15.0195C75.7274 16.1382 75.7274 17.257 75.7274 18.4597C69.0061 18.4597 62.2527 18.4597 55.4033 18.4597Z" fill="#A4238C"/>
<path d="M55.4033 90.0593C55.4033 88.8846 55.4033 87.7659 55.4033 86.6192C62.1887 86.6192 68.91 86.6192 75.7274 86.6192C75.7274 87.71 75.7274 88.8566 75.7274 90.0593C69.0061 90.0593 62.2527 90.0593 55.4033 90.0593Z" fill="#A4238C"/>
<path d="M55.9157 29.8148C56.8759 30.7098 57.7401 31.5208 58.6683 32.3879C57.196 33.5905 55.6597 34.8771 53.8993 36.3315C55.7877 37.8138 57.356 39.0724 59.0204 40.3869C57.8361 41.3378 56.908 42.065 55.7877 42.96C54.4114 41.7574 52.9391 40.4149 51.4668 39.1283C48.4582 36.4993 48.4582 36.3594 51.4988 33.7304C52.9071 32.4438 54.3794 31.1573 55.9157 29.8148Z" fill="#A4238C"/>
<path d="M75.1516 42.9601C74.2874 42.205 73.3912 41.3939 72.367 40.4988C73.9353 39.1843 75.5036 37.8977 77.232 36.4992C75.4716 35.0728 73.9033 33.8422 72.335 32.5556C73.4872 31.6326 74.4794 30.8774 75.4076 30.1502C77.328 31.7724 79.4405 33.5345 81.4889 35.3525C82.2251 36.0238 82.2251 36.9188 81.4889 37.59C79.4085 39.3801 77.264 41.1421 75.1516 42.9601Z" fill="#A4238C"/>
<path d="M73.7434 7.88727C73.7434 9.06196 73.7434 10.1807 73.7434 11.3275C68.3343 11.3275 62.9892 11.3275 57.5161 11.3275C57.5161 10.2087 57.5161 9.08993 57.5161 7.88727C62.8612 7.88727 68.2383 7.88727 73.7434 7.88727Z" fill="#A4238C"/>
<path d="M63.5972 54.2593C63.5972 53.0847 63.5972 51.966 63.5972 50.8193C69.0063 50.8193 74.3514 50.8193 79.8246 50.8193C79.8246 51.938 79.8246 53.0567 79.8246 54.2593C74.4795 54.2593 69.1023 54.2593 63.5972 54.2593Z" fill="#A4238C"/>
<path d="M51.3066 61.4194C51.3066 60.2447 51.3066 59.1259 51.3066 57.9792C56.7157 57.9792 62.0608 57.9792 67.5339 57.9792C67.5339 59.0979 67.5339 60.2167 67.5339 61.4194C62.1889 61.4194 56.8118 61.4194 51.3066 61.4194Z" fill="#A4238C"/>
<path d="M79.8567 68.6075C74.4156 68.6075 69.0705 68.6075 63.6294 68.6075C63.6294 67.4608 63.6294 66.37 63.6294 65.1673C68.9745 65.1673 74.3836 65.1673 79.8567 65.1673C79.8567 66.2581 79.8567 67.4048 79.8567 68.6075Z" fill="#A4238C"/>
<path d="M51.3066 75.7393C51.3066 74.5647 51.3066 73.4459 51.3066 72.2993C56.7157 72.2993 62.0608 72.2993 67.5339 72.2993C67.5339 73.418 67.5339 74.5367 67.5339 75.7393C62.1889 75.7393 56.8118 75.7393 51.3066 75.7393Z" fill="#A4238C"/>
<path d="M65.7096 30.5137C67.0539 30.9053 68.2701 31.2689 69.5824 31.6605C68.2061 35.2684 66.8619 38.7645 65.4856 42.3725C64.1733 41.9809 62.9891 41.6453 61.6128 41.2537C62.9891 37.6737 64.3013 34.1776 65.7096 30.5137Z" fill="#A4238C"/>
<path d="M51.2749 54.2873C51.2749 53.1126 51.2749 52.0219 51.2749 50.8752C53.9315 50.8752 56.588 50.8752 59.3406 50.8752C59.3406 51.9659 59.3406 53.0847 59.3406 54.2873C56.716 54.2873 54.0595 54.2873 51.2749 54.2873Z" fill="#A4238C"/>
<path d="M79.8884 57.9792C79.8884 59.1539 79.8884 60.2447 79.8884 61.4194C77.1999 61.4194 74.5433 61.4194 71.8228 61.4194C71.8228 60.2726 71.8228 59.1539 71.8228 57.9792C74.4793 57.9792 77.1038 57.9792 79.8884 57.9792Z" fill="#A4238C"/>
<path d="M51.3066 68.6075C51.3066 67.4328 51.3066 66.342 51.3066 65.1673C53.9952 65.1673 56.6517 65.1673 59.3723 65.1673C59.3723 66.314 59.3723 67.4328 59.3723 68.6075C56.7158 68.6075 54.0912 68.6075 51.3066 68.6075Z" fill="#A4238C"/>
<path d="M71.8228 72.2993C74.5113 72.2993 77.1359 72.2993 79.8564 72.2993C79.8564 73.446 79.8564 74.5647 79.8564 75.7674C77.1999 75.7674 74.5433 75.7674 71.8228 75.7674C71.8228 74.6207 71.8228 73.5299 71.8228 72.2993Z" fill="#A4238C"/>
</svg>
