<svg width="133" height="99" viewBox="0 0 133 99" fill="none" xmlns="http://www.w3.org/2000/svg">
<path d="M123.3 67.4225C124.726 67.4225 126.152 67.4597 127.541 67.4225C130.174 67.3853 132.075 65.5264 132.075 62.8866C132.112 55.4878 132.112 48.1261 132.075 40.7273C132.075 38.1247 130.21 36.2657 127.651 36.2286C126.298 36.1914 124.909 36.2286 123.446 36.2286C123.337 34.4811 123.3 32.808 123.081 31.0977C121.801 21.5053 113.574 14.0321 104.068 13.9206C97.5234 13.8463 91.0153 13.8834 84.4706 13.9206C80.5218 13.9578 76.9387 15.1475 73.6481 17.3783C72.4415 18.1963 71.2349 19.0514 69.9918 19.8694C67.5421 21.4681 65.0924 21.4681 62.6427 19.9066C61.363 19.0886 60.1565 18.1963 58.8768 17.3412C55.4399 15.036 51.6374 13.8834 47.5058 13.8834C41.4364 13.8834 35.367 13.8834 29.2611 13.8834C17.8901 13.9206 9.26136 22.7323 9.2248 34.3324C9.2248 34.8901 9.2248 35.4478 9.2248 36.1914C8.56667 36.1914 7.94511 36.1914 7.32354 36.1914C3.30166 36.2286 0.48634 39.0543 0.449778 43.1069C0.413216 48.9069 0.413217 54.707 0.449781 60.5443C0.449782 64.5597 3.2651 67.3854 7.1773 67.4597C7.87199 67.4597 8.53011 67.4597 9.18824 67.4597C9.66355 69.17 9.99262 70.8059 10.5776 72.3303C13.5026 80.2496 20.7786 85.2689 29.3708 85.2689C48.4565 85.2689 67.5787 85.2689 86.6643 85.2689C92.0025 85.2689 97.3406 85.2689 102.715 85.2689C113.428 85.2689 121.253 78.5765 123.081 67.8687C123.117 67.7943 123.154 67.6828 123.3 67.4225ZM118.693 36.2657C118.693 46.7133 118.693 57.0121 118.693 67.311C83.6297 67.311 48.749 67.311 13.722 67.311C13.722 56.9006 13.722 46.6018 13.722 36.2658C48.7489 36.2658 83.7393 36.2658 118.693 36.2657ZM13.8317 31.6555C13.9048 31.1721 13.9779 30.7631 14.0511 30.3542C15.6964 23.4015 21.6561 18.4566 28.7126 18.345C33.3195 18.2707 37.963 18.5681 42.5699 18.2707C49.1511 17.8245 54.928 19.3489 60.2296 23.513C64.0321 26.4874 68.3465 26.1528 72.4415 23.513C73.7212 22.6951 74.9277 21.8028 76.2074 20.9476C78.6571 19.3117 81.3628 18.345 84.3243 18.345C90.869 18.3078 97.3772 18.2707 103.922 18.345C110.32 18.4194 115.988 22.6951 118.035 28.8298C118.328 29.7221 118.474 30.6516 118.73 31.6183C83.6297 31.6554 48.7855 31.6554 13.8317 31.6555ZM15.1479 71.9585C49.2608 71.9585 83.2275 71.9585 117.231 71.9585C117.194 72.1816 117.158 72.3303 117.121 72.4418C116.975 72.7393 116.828 73.0367 116.646 73.297C113.538 78.2047 109.114 80.7701 103.373 80.7701C78.6206 80.8073 53.8677 80.8073 29.0783 80.7701C27.6889 80.7701 26.2264 80.5842 24.8736 80.2124C20.5226 78.9855 17.3051 76.2342 15.1479 71.9585ZM123.337 40.7645C124.836 40.7645 126.225 40.7645 127.541 40.7645C127.541 48.2377 127.541 55.5621 127.541 62.8866C126.079 62.8866 124.726 62.8866 123.337 62.8866C123.337 55.4878 123.337 48.1633 123.337 40.7645ZM9.18824 62.961C8.42042 62.961 7.7623 62.9981 7.14073 62.961C5.75136 62.8866 4.87385 62.1058 4.87385 60.7302C4.83729 54.7814 4.83729 48.8698 4.87385 42.921C4.87385 41.5825 5.75135 40.7645 7.03104 40.6902C7.72573 40.653 8.45698 40.6902 9.18823 40.6902C9.18824 48.1633 9.18824 55.4506 9.18824 62.961Z" fill="#3F3F3F"/>
<path d="M64.0322 98.6538C75.0009 98.691 83.1544 96.6461 90.7594 92.4076C91.1616 92.1845 91.5638 91.9614 91.9294 91.7011C93.0994 90.9204 93.465 89.6934 92.8069 88.6152C92.1853 87.537 90.9422 87.2024 89.6991 87.9088C86.1891 89.9537 82.5328 91.5896 78.6206 92.5935C66.3356 95.7166 54.5624 94.4896 43.3743 88.2434C42.8259 87.946 42.2043 87.6114 41.6193 87.5742C40.5224 87.4998 39.7912 88.1319 39.4987 89.1729C39.1696 90.2883 39.6083 91.255 40.5955 91.7383C43.7765 93.2627 46.8843 94.9358 50.1749 96.1256C55.6593 98.0589 60.3393 98.6538 64.0322 98.6538Z" fill="#A4238C"/>
<path d="M66.5547 0.498867C57.1947 0.461689 48.7853 2.69249 40.9609 7.22843C39.8641 7.86049 39.1328 8.67845 39.4984 10.0169C39.9006 11.5413 41.4728 12.0618 43.045 11.1323C47.2497 8.71563 51.6738 6.89381 56.3903 5.92713C67.7979 3.69634 78.7301 5.03481 88.9676 10.8349C89.1504 10.9464 89.3698 11.0579 89.5526 11.1695C90.9054 11.8759 92.112 11.6528 92.7701 10.5374C93.4648 9.38485 93.0992 8.04638 91.6732 7.30278C89.3332 6.07585 86.9567 4.84891 84.507 3.84505C78.657 1.46554 72.5144 0.424506 66.5547 0.498867Z" fill="#A4238C"/>
<path d="M110.137 58.4994C108.638 58.4994 107.322 58.4622 106.006 58.4994C104.507 58.5366 103.556 59.4289 103.556 60.7302C103.556 62.0315 104.507 62.9238 106.006 62.961C108.017 62.9982 110.028 62.9982 112.039 62.961C113.647 62.9238 114.488 62.1059 114.525 60.4699C114.561 58.4251 114.561 56.3802 114.525 54.3353C114.488 52.8109 113.647 51.8442 112.368 51.807C111.051 51.7698 110.174 52.7737 110.137 54.4096C110.137 55.7109 110.137 57.0122 110.137 58.4994Z" fill="#A4238C"/>
</svg>
