<svg width="142" height="143" viewBox="0 0 142 143" fill="none" xmlns="http://www.w3.org/2000/svg">
<path d="M98.679 51.8336C97.9222 51.7975 97.1293 51.8336 96.3724 51.8336C92.0476 51.8336 87.7227 51.8336 83.3978 51.8336C82.1724 51.8336 81.7399 52.2662 81.7399 53.5279C81.7399 53.8163 81.7399 54.1047 81.7399 54.3931L77.8476 54.3931L77.8476 34.8181L81.7399 34.8181C81.7399 35.1426 81.7399 35.3949 81.7399 35.6833C81.7399 36.9811 82.1724 37.4137 83.4699 37.4137C84.6953 37.4137 85.9206 37.4137 87.1821 37.4137L89.5968 37.4137L89.5968 51.5812L92.3359 51.5812L92.3359 37.4137C94.4623 37.4137 96.5526 37.4137 98.643 37.4137C99.58 37.4137 100.121 36.9451 100.157 36.0438C100.193 34.3134 100.193 32.583 100.157 30.8527C100.157 30.0235 99.6161 29.5549 98.8232 29.5188C98.2465 29.4828 97.6699 29.5188 97.0932 29.5188C92.5521 29.5188 88.011 29.5188 83.4699 29.5188C82.2445 29.5188 81.812 29.9514 81.776 31.2132C81.776 31.5016 81.776 31.79 81.776 32.1144L77.8476 32.1144L77.8476 28.1489C83.8663 26.3825 85.8846 21.4797 82.8932 15.5676C83.2897 15.2071 83.7943 14.8466 84.1907 14.414C84.6592 13.8733 85.1998 13.693 85.9206 13.693C89.9212 13.7291 93.9217 13.693 97.9222 13.693L98.7871 13.693L98.7871 11.0614C93.9937 11.0614 89.2364 11.0614 84.5151 11.0974C84.1186 11.0974 83.614 11.3498 83.2897 11.6382C82.5328 12.3231 81.8481 13.1162 81.1272 13.8372C78.0638 11.9987 75.0364 11.7824 72.1171 13.7291C69.4861 15.4955 68.2607 18.055 68.6572 21.2274C69.1618 24.9766 71.4684 27.1756 75.0724 28.0768L75.0724 32.0423L71.18 32.0423C71.18 31.6458 71.18 31.2853 71.18 30.9248C71.144 29.9514 70.6755 29.4467 69.7024 29.4467C64.5486 29.4467 59.3948 29.4467 54.277 29.4467C53.3039 29.4467 52.7993 29.9514 52.7993 30.9248C52.7993 32.583 52.7993 34.2053 52.7993 35.8636C52.7993 36.8369 53.3039 37.3416 54.277 37.3416C55.6105 37.3416 56.944 37.3416 58.3135 37.3416C59.1064 37.3416 59.8633 37.3416 60.7283 37.3416L60.7283 39.9011L63.3592 39.9011L63.3592 37.3056C65.5217 37.3056 67.612 37.3056 69.7024 37.3056C70.7115 37.3056 71.2161 36.8009 71.2161 35.7915C71.2161 35.431 71.2161 35.1065 71.2161 34.746L75.1805 34.746L75.1806 72.7784L77.7755 72.7784L77.7755 57.1329L81.7039 57.1329C81.7039 57.4573 81.7039 57.7457 81.7039 58.0341C81.7039 59.2598 82.1724 59.6924 83.3978 59.6924C83.7582 59.6924 84.1186 59.6924 84.479 59.6924L89.5608 59.6924C90.4618 59.6924 91.3628 59.6924 92.2998 59.6924C94.4623 59.6924 96.5526 59.6924 98.643 59.6924C99.6161 59.6924 100.157 59.1877 100.157 58.2504C100.193 56.5921 100.193 54.8978 100.157 53.2395C100.121 52.3383 99.6161 51.8696 98.679 51.8336ZM84.443 32.1504L97.4536 32.1504L97.4536 34.71L84.443 34.71L84.443 32.1504ZM68.513 34.71L55.5024 34.71L55.5024 32.1865L68.5491 32.1865L68.5491 34.71L68.513 34.71ZM72.8379 24.0753C70.9278 22.2368 70.6755 19.2447 72.2973 17.1177C73.8831 15.0269 76.8024 14.414 79.1811 15.82C77.9557 17.0456 76.7663 18.1992 75.577 19.3528C76.1897 19.9296 76.7663 20.5064 77.4151 21.1553C78.5323 19.9657 79.6856 18.776 80.8389 17.5503C82.2805 19.7494 81.776 22.6694 79.8298 24.3277C77.7755 26.0581 74.7841 25.9499 72.8379 24.0753ZM97.4536 57.0608L84.4069 57.0608L84.4069 54.5373L97.4536 54.5373L97.4536 57.0608Z" fill="#3F3F3F" stroke="#3F3F3F" stroke-miterlimit="10"/>
<path d="M98.679 51.8336C97.9222 51.7975 97.1293 51.8336 96.3724 51.8336C92.0476 51.8336 87.7227 51.8336 83.3978 51.8336C82.1724 51.8336 81.7399 52.2662 81.7399 53.5279C81.7399 53.8163 81.7399 54.1047 81.7399 54.3931L77.8476 54.3931L77.8476 34.8181L81.7399 34.8181C81.7399 35.1426 81.7399 35.3949 81.7399 35.6833C81.7399 36.9811 82.1724 37.4137 83.4699 37.4137C84.6953 37.4137 85.9206 37.4137 87.1821 37.4137L89.5968 37.4137L89.5968 51.5812L92.3359 51.5812L92.3359 37.4137C94.4623 37.4137 96.5526 37.4137 98.643 37.4137C99.58 37.4137 100.121 36.9451 100.157 36.0438C100.193 34.3134 100.193 32.583 100.157 30.8527C100.157 30.0235 99.6161 29.5549 98.8232 29.5188C98.2465 29.4828 97.6699 29.5188 97.0932 29.5188C92.5521 29.5188 88.011 29.5188 83.4699 29.5188C82.2445 29.5188 81.812 29.9514 81.776 31.2132C81.776 31.5016 81.776 31.79 81.776 32.1144L77.8476 32.1144L77.8476 28.1489C83.8663 26.3825 85.8846 21.4797 82.8932 15.5676C83.2897 15.2071 83.7943 14.8466 84.1907 14.414C84.6592 13.8733 85.1998 13.693 85.9206 13.693C89.9212 13.7291 93.9217 13.693 97.9222 13.693L98.7871 13.693L98.7871 11.0614C93.9937 11.0614 89.2364 11.0614 84.5151 11.0974C84.1186 11.0974 83.614 11.3498 83.2897 11.6382C82.5328 12.3231 81.8481 13.1162 81.1272 13.8372C78.0638 11.9987 75.0364 11.7824 72.1171 13.7291C69.4861 15.4955 68.2607 18.055 68.6572 21.2274C69.1618 24.9766 71.4684 27.1756 75.0724 28.0768L75.0724 32.0423L71.18 32.0423C71.18 31.6458 71.18 31.2853 71.18 30.9248C71.144 29.9514 70.6755 29.4467 69.7024 29.4467C64.5486 29.4467 59.3948 29.4467 54.277 29.4467C53.3039 29.4467 52.7993 29.9514 52.7993 30.9248C52.7993 32.583 52.7993 34.2053 52.7993 35.8636C52.7993 36.8369 53.3039 37.3416 54.277 37.3416C55.6105 37.3416 56.944 37.3416 58.3135 37.3416C59.1064 37.3416 59.8633 37.3416 60.7283 37.3416L60.7283 39.9011L63.3592 39.9011L63.3592 37.3056C65.5217 37.3056 67.612 37.3056 69.7024 37.3056C70.7115 37.3056 71.2161 36.8009 71.2161 35.7915C71.2161 35.431 71.2161 35.1065 71.2161 34.746L75.1805 34.746L75.1806 72.7784L77.7755 72.7784L77.7755 57.1329L81.7039 57.1329C81.7039 57.4573 81.7039 57.7457 81.7039 58.0341C81.7039 59.2598 82.1724 59.6924 83.3978 59.6924C83.7582 59.6924 84.1186 59.6924 84.479 59.6924L89.5608 59.6924C90.4618 59.6924 91.3628 59.6924 92.2998 59.6924C94.4623 59.6924 96.5526 59.6924 98.643 59.6924C99.6161 59.6924 100.157 59.1877 100.157 58.2504C100.193 56.5921 100.193 54.8978 100.157 53.2395C100.121 52.3383 99.6161 51.8696 98.679 51.8336ZM84.443 32.1504L97.4536 32.1504L97.4536 34.71L84.443 34.71L84.443 32.1504ZM68.513 34.71L55.5024 34.71L55.5024 32.1865L68.5491 32.1865L68.5491 34.71L68.513 34.71ZM72.8379 24.0753C70.9278 22.2368 70.6755 19.2447 72.2973 17.1177C73.8831 15.0269 76.8024 14.414 79.1811 15.82C77.9557 17.0456 76.7663 18.1992 75.577 19.3528C76.1897 19.9296 76.7663 20.5064 77.4151 21.1553C78.5323 19.9657 79.6856 18.776 80.8389 17.5503C82.2805 19.7494 81.776 22.6694 79.8298 24.3277C77.7755 26.0581 74.7841 25.9499 72.8379 24.0753ZM97.4536 57.0608L84.4069 57.0608L84.4069 54.5373L97.4536 54.5373L97.4536 57.0608Z" fill="#3F3F3F"/>
<path d="M64.693 79.4476C64.693 78.5103 64.693 77.7172 64.693 76.852C77.8118 76.852 90.8946 76.852 104.013 76.852C104.013 54.0687 104.013 31.3213 104.013 8.53794C85.6687 8.53795 67.324 8.53795 48.9072 8.53795C48.9072 18.5598 48.9072 28.5816 48.9072 38.6394C48.0062 38.6394 47.1773 38.6394 46.2402 38.6394C46.2402 38.351 46.2402 38.0626 46.2402 37.7742C46.2402 27.7524 46.2402 17.7306 46.2402 7.70881C46.2402 6.19473 46.6367 5.83423 48.1504 5.83423C67.0357 5.83422 85.9209 5.83422 104.806 5.83422C106.32 5.83422 106.68 6.23076 106.68 7.74485C106.68 31.0329 106.68 54.285 106.68 77.573C106.68 79.0871 106.284 79.4837 104.806 79.4837C91.7235 79.4837 78.6407 79.4837 65.558 79.4837C65.3057 79.4476 65.0174 79.4476 64.693 79.4476Z" fill="#3F3F3F"/>
<path d="M56.9145 47.4099C56.9145 47.536 56.8831 47.6621 56.8831 47.7566C56.7259 49.8681 56.7888 50.0887 58.424 51.4123C58.6127 51.5699 58.8957 51.6014 59.1473 51.6014C60.3737 51.5699 61.6316 51.5069 62.858 51.4438C63.5498 51.4123 63.9901 51.696 64.2417 52.3262C64.7763 53.6184 65.2794 54.879 65.8455 56.1711C66.1285 56.8329 66.0341 57.3686 65.4681 57.8413C64.5876 58.6292 63.7385 59.4171 62.858 60.1734C62.5121 60.4886 62.3863 60.8037 62.3234 61.2765C62.1662 62.6946 62.5435 63.7661 63.77 64.554C64.4303 64.9952 64.9649 65.594 65.531 66.1298C66.0027 66.5394 66.097 67.0437 65.8769 67.6109C65.3109 68.9346 64.7763 70.2582 64.2417 71.5818C63.9901 72.2121 63.5184 72.4958 62.8266 72.4327C61.6316 72.3697 60.4366 72.2751 59.2416 72.2751C58.8957 72.2751 58.5183 72.4642 58.2039 72.6848C56.8831 73.5042 56.6315 74.7648 56.8831 76.2145C57.0089 76.9078 56.946 77.6327 57.0089 78.3575C57.0403 79.0193 56.7259 79.429 56.1284 79.6811C54.8076 80.2169 53.4868 80.7526 52.1661 81.3199C51.5686 81.572 51.0969 81.446 50.6881 80.9733C49.8704 80.0593 49.0843 79.1454 48.2352 78.263C47.9836 78.0109 47.5748 77.8533 47.1975 77.7902C45.8138 77.5381 44.7132 77.9478 43.927 79.1769C43.5182 79.8072 42.9521 80.2799 42.449 80.8472C41.9773 81.4145 41.4427 81.5405 40.7194 81.2569C39.4615 80.6896 38.1722 80.1854 36.8829 79.6496C36.2539 79.3975 35.9709 78.9563 36.0024 78.263C36.0653 77.0654 36.0967 75.8678 36.191 74.6703C36.2225 74.1976 36.0024 73.9139 35.7508 73.5357C34.8703 72.3067 33.7382 72.023 32.3231 72.2752C31.5684 72.4012 30.8136 72.3697 30.0275 72.4012C29.43 72.4327 29.0212 72.1806 28.801 71.6133C28.235 70.2582 27.7004 68.9031 27.1343 67.5794C26.8828 66.9491 27.04 66.4764 27.5117 66.0352C28.3922 65.2473 29.2413 64.4595 30.1218 63.7031C30.4992 63.388 30.5935 63.0098 30.6564 62.5371C30.8451 61.1504 30.4363 60.1104 29.2413 59.3225C28.5809 58.8813 28.0777 58.2826 27.4803 57.7468C26.9771 57.3056 26.8828 56.8014 27.1343 56.2026C27.6689 54.9105 28.2035 53.5869 28.7381 52.2947C28.9897 51.6644 29.43 51.3493 30.1218 51.4123C31.3168 51.4754 32.5118 51.5069 33.7067 51.6014C34.1784 51.6329 34.4615 51.4438 34.8388 51.1917C36.0653 50.2778 36.3797 49.1433 36.1281 47.6936C36.0024 46.9687 36.0338 46.2124 36.0024 45.4875C35.9709 44.8888 36.2225 44.4791 36.7571 44.2585C38.1093 43.6912 39.493 43.1239 40.8452 42.5566C41.4427 42.3045 41.9144 42.4621 42.3232 42.9348C43.1094 43.8172 43.927 44.6997 44.7132 45.6136C45.0276 45.9603 45.3735 46.0548 45.8138 46.1178C47.2289 46.3069 48.2981 45.8972 49.0843 44.6681C49.4931 44.0378 50.0906 43.5336 50.5937 42.9663C51.034 42.4621 51.5057 42.336 52.1346 42.5882C53.4554 43.1554 54.7762 43.6912 56.0969 44.2269C56.6944 44.4791 56.9774 44.9203 56.946 45.5821C56.9145 46.2124 56.946 46.8112 56.946 47.4414C56.946 47.4099 56.946 47.4099 56.9145 47.4099ZM54.556 75.5527C54.5246 74.2921 54.3359 73.1576 55.4994 72.0861C57.8579 69.943 57.7951 69.8485 61.0655 70.1006C62.3234 70.1952 62.3234 70.1952 62.7951 69.0606C62.9523 68.6509 63.1725 68.2728 63.2668 67.8631C63.3297 67.611 63.2668 67.2643 63.1096 67.1067C62.3549 66.3504 61.5372 65.6255 60.7196 64.9322C60.2479 64.5225 60.0278 64.0498 60.0592 63.4195C60.0907 62.4425 60.0907 61.4656 60.0592 60.4886C60.0592 59.8898 60.2479 59.4486 60.7196 59.0704C61.5372 58.3771 62.3234 57.6523 63.1096 56.8959C63.2668 56.7383 63.3926 56.4232 63.3612 56.2656C62.6693 53.839 62.6379 53.8074 60.185 53.9335C60.1221 53.9335 60.0907 53.9335 60.0278 53.9335C57.229 53.965 58.1095 54.3747 56.1284 52.3893C54.1158 50.3723 54.5246 51.2547 54.5875 48.4184C54.5875 47.6621 54.9334 46.6851 54.5875 46.1809C54.2101 45.6451 53.2038 45.519 52.512 45.1724C52.0717 44.9518 51.8201 45.0778 51.5371 45.393C50.8453 46.2124 50.1535 47.0318 49.3673 47.7881C49.0528 48.1033 48.5497 48.3239 48.1409 48.3554C47.1031 48.4499 46.0339 48.3554 44.9962 48.3869C44.4301 48.3869 43.9899 48.1663 43.644 47.7566C42.9521 46.9372 42.1974 46.1493 41.5056 45.3615C41.254 45.0463 41.0024 45.0148 40.6565 45.1724C40.0905 45.456 39.493 45.7081 38.864 45.8972C38.4867 46.0233 38.3609 46.2439 38.3923 46.6536C38.4867 47.7566 38.5496 48.8596 38.5496 49.9626C38.5496 50.4038 38.3609 50.9396 38.0464 51.2863C37.386 52.0741 36.6627 52.799 35.8766 53.4608C35.5621 53.7444 35.059 53.9335 34.6187 53.965C33.4866 53.9965 32.3231 53.8705 31.191 53.839C30.9709 53.839 30.6878 54.0281 30.5621 54.2171C30.2476 54.8159 30.0589 55.4462 29.7759 56.045C29.5872 56.4232 29.6501 56.6438 29.9646 56.8959C30.7822 57.5892 31.5684 58.3456 32.386 59.0389C32.8577 59.4171 33.0464 59.8898 33.0149 60.4886C32.9835 61.4656 32.9835 62.4425 33.0149 63.4195C33.0149 64.0183 32.8577 64.4595 32.386 64.8692C31.5684 65.5625 30.7822 66.3188 29.9646 67.0122C29.6815 67.2643 29.5872 67.4849 29.7759 67.8631C30.0589 68.4303 30.279 68.9976 30.4992 69.5964C30.6564 70.0376 30.8765 70.1952 31.3168 70.1321C32.386 70.0376 33.4552 70.0376 34.5244 69.9431C35.0904 69.9115 35.5307 70.0691 35.9395 70.4788C36.5999 71.2036 37.2917 71.897 38.015 72.5588C38.4552 72.9685 38.6125 73.4412 38.581 74.04C38.4867 75.1115 38.4867 76.183 38.3923 77.2545C38.3609 77.6327 38.4552 77.8848 38.8326 78.0109C39.4301 78.2315 40.0276 78.4521 40.6251 78.7672C41.0339 78.9878 41.254 78.8618 41.537 78.5466C42.2288 77.7272 42.9207 76.9078 43.7069 76.1515C44.0213 75.8363 44.5559 75.5842 44.9962 75.5527C46.0025 75.4581 47.0402 75.5527 48.078 75.5212C48.644 75.5212 49.0843 75.7103 49.4616 76.1515C50.1535 76.9709 50.8767 77.7587 51.6315 78.5466C51.7887 78.7042 52.0717 78.9248 52.1975 78.8618C53.0466 78.5466 53.99 78.326 54.6504 77.7587C54.9648 77.4751 54.6818 76.5297 54.6504 75.8994C54.556 75.7733 54.556 75.6788 54.556 75.5527Z" fill="#3F3F3F" stroke="#3F3F3F" stroke-miterlimit="10"/>
<path d="M54.1689 26.8152C54.1689 25.95 54.1689 25.1569 54.1689 24.2917C54.9979 24.2917 55.8268 24.2917 56.6918 24.2917C56.6918 25.0848 56.6918 25.914 56.6918 26.8152C55.8989 26.8152 55.07 26.8152 54.1689 26.8152Z" fill="#A4238C" stroke="#A4238C" stroke-miterlimit="10"/>
<path d="M59.4312 26.8152C59.4312 25.95 59.4312 25.1209 59.4312 24.2917C60.2601 24.2917 61.089 24.2917 61.954 24.2917C61.954 25.1209 61.954 25.95 61.954 26.8152C61.1611 26.8152 60.3322 26.8152 59.4312 26.8152Z" fill="#A4238C" stroke="#A4238C" stroke-miterlimit="10"/>
<path d="M93.5252 24.2917C93.5252 25.1569 93.5252 25.95 93.5252 26.8152C92.6963 26.8152 91.8673 26.8152 90.9663 26.8152C90.9663 25.9861 90.9663 25.1569 90.9663 24.2917C91.8313 24.2917 92.6242 24.2917 93.5252 24.2917Z" fill="#A4238C" stroke="#A4238C" stroke-miterlimit="10"/>
<path d="M98.7514 26.8151C97.8864 26.8151 97.0575 26.8151 96.2285 26.8151C96.2285 25.986 96.2285 25.1568 96.2285 24.2916C97.0574 24.2916 97.8864 24.2916 98.7514 24.2916C98.7514 25.1208 98.7514 25.9499 98.7514 26.8151Z" fill="#A4238C" stroke="#A4238C" stroke-miterlimit="10"/>
<path d="M46.5479 51.4397C52.2694 51.4397 56.968 56.1787 57 61.8783C57 67.738 52.3014 72.445 46.4521 72.445C40.6667 72.445 36 67.6739 36 61.8463C36.032 56.1146 40.7626 51.4397 46.5479 51.4397ZM54.6667 62.0064C54.6986 57.5556 51.0868 53.8412 46.6438 53.7772C42.105 53.7131 38.3653 57.3314 38.3333 61.8463C38.3014 66.3611 41.9132 70.0755 46.3881 70.1075C50.9269 70.1395 54.6347 66.5212 54.6667 62.0064Z" fill="#A4238C" stroke="#A4238C" stroke-miterlimit="10"/>
<path d="M46.4999 67.4437C43.4477 67.4437 41 64.9718 41 61.9272C41 58.9128 43.478 56.4711 46.4696 56.4409C49.552 56.4409 52.0299 58.9128 51.9997 61.9875C51.9695 65.002 49.4915 67.4437 46.4999 67.4437ZM43.206 61.8971C43.1758 63.7359 44.6565 65.2431 46.4696 65.2431C48.2526 65.2733 49.7635 63.7962 49.7937 62.0177C49.824 60.209 48.3734 58.7018 46.5905 58.6716C44.7472 58.6113 43.206 60.0884 43.206 61.8971Z" fill="#A4238C" stroke="#A4238C" stroke-miterlimit="10"/>
<path d="M135.837 25.5534C135.621 22.345 132.99 19.7133 129.782 19.5331C128.737 19.461 123.619 19.461 120.556 19.497C119.367 19.497 118.393 20.4704 118.393 21.66C118.393 22.8497 119.367 23.823 120.556 23.823C123.295 23.823 127.62 23.823 128.269 23.823C130.972 23.823 131.548 24.3637 131.548 27.0314C131.548 47.075 131.548 67.1186 131.548 87.1983L131.548 88.6403L10.4518 88.6403L10.4518 53.9605C10.4518 44.876 10.4518 35.7555 10.4518 26.6709C10.4518 24.6161 11.1726 23.8951 13.1909 23.8951C13.9838 23.8951 27.2828 23.8951 32.6168 23.8951C33.8061 23.8951 34.7792 22.9218 34.7792 21.7321C34.7792 20.5425 33.8061 19.5692 32.6168 19.5692C27.3188 19.5692 14.2 19.5692 13.5513 19.5692C8.68584 19.5692 6.12695 22.1287 6.12695 26.9954C6.12696 52.3022 6.12696 77.6452 6.12697 102.952C6.12697 107.891 8.68585 110.414 13.6234 110.414C51.8625 110.414 90.1016 110.414 128.377 110.414C133.35 110.414 135.873 107.891 135.873 102.952C135.873 77.6451 135.873 52.3022 135.873 26.9954C135.873 26.4546 135.873 26.022 135.837 25.5534ZM131.548 103.493C131.548 105.223 130.791 105.98 129.098 106.016C128.773 106.016 128.485 106.016 128.16 106.016C90.0656 106.016 51.9706 106.016 13.8757 106.016C10.9925 106.016 10.4879 105.512 10.4879 102.664C10.4879 99.5273 10.4879 96.3549 10.4879 93.1105L131.476 93.1104C131.512 93.3628 131.548 93.5791 131.548 93.7954C131.548 97.0038 131.548 100.248 131.548 103.493Z" fill="#3F3F3F"/>
<path d="M57.1964 123.284C66.4228 123.284 75.5771 123.284 84.9477 123.284C84.6954 122.887 84.4792 122.635 84.299 122.347C83.3259 120.869 82.3167 119.463 81.4518 117.949C80.6949 116.615 81.0914 115.281 82.2447 114.74C83.398 114.199 84.4431 114.74 85.2721 115.966C86.6416 117.949 88.1193 119.859 89.5969 121.806C90.534 123.032 91.7594 123.536 93.3452 123.392C94.3903 123.284 95.5076 123.392 96.5528 123.644C99.2198 124.329 101.166 126.817 101.238 129.593C101.274 131.071 101.274 132.549 101.238 134.063C101.202 135.505 100.373 136.262 98.9315 136.37C98.6071 136.37 98.3188 136.37 97.9944 136.37C79.9741 136.37 61.9538 136.37 43.9335 136.37C41.2665 136.37 40.6898 135.793 40.6898 133.126C40.6898 132.008 40.6538 130.854 40.6898 129.737C40.798 126.204 43.6091 123.14 47.1051 123.464C50.3487 123.789 52.2949 122.311 53.9888 120.039C54.9619 118.742 55.8269 117.372 56.6558 116.002C57.4487 114.704 58.5299 114.236 59.6832 114.776C60.8365 115.317 61.269 116.651 60.4761 117.985C59.5391 119.751 58.3858 121.445 57.1964 123.284ZM96.8771 131.936C97.1655 128.151 96.733 127.646 93.1289 127.646C78.1721 127.646 63.2513 127.646 48.2944 127.646C47.898 127.646 47.4655 127.61 47.069 127.646C45.9518 127.754 45.231 128.403 45.0868 129.521C44.9787 130.314 45.0508 131.107 45.0508 131.936C62.4223 131.936 79.6137 131.936 96.8771 131.936Z" fill="#3F3F3F"/>
<path d="M71.1083 101.69C69.7028 101.69 68.2972 101.726 66.9276 101.69C65.486 101.654 64.621 100.861 64.585 99.5994C64.5489 98.3377 65.486 97.4004 66.9637 97.3643C69.7388 97.3283 72.55 97.3283 75.3251 97.3643C76.8028 97.4004 77.7038 98.3016 77.6677 99.5994C77.6317 100.861 76.7667 101.618 75.3251 101.654C73.9195 101.726 72.5139 101.69 71.1083 101.69Z" fill="#A4238C"/>
</svg>
