<svg width="142" height="142" viewBox="0 0 142 142" fill="none" xmlns="http://www.w3.org/2000/svg">
<path d="M16 24.4325C16 22.6845 16 21.1306 16 19.4312C19.3428 19.4312 22.6289 19.4312 26 19.4312C26 21.0821 26 22.733 26 24.4325C22.6856 24.4325 19.3994 24.4325 16 24.4325Z" fill="#A4238C"/>
<path d="M16 32.4344C16 30.6864 16 29.1327 16 27.4332C18.0057 27.4332 19.9773 27.4332 22 27.4332C22 29.0841 22 30.735 22 32.4344C20.0113 32.4344 18.0397 32.4344 16 32.4344Z" fill="#A4238C"/>
<path d="M16 39.4363C16 37.6883 16 36.1345 16 34.4351C19.3428 34.4351 22.6289 34.4351 26 34.4351C26 36.0859 26 37.7368 26 39.4363C22.6856 39.4363 19.3994 39.4363 16 39.4363Z" fill="#A4238C"/>
<path d="M16 47.4381C16 45.6902 16 44.1364 16 42.437C18.0057 42.437 19.9773 42.437 22 42.437C22 44.0879 22 45.7387 22 47.4381C20.0113 47.4381 18.0397 47.4381 16 47.4381Z" fill="#A4238C"/>
<path d="M16 50.4391C16 52.187 16 53.7408 16 55.4402C19.3428 55.4402 22.6289 55.4402 26 55.4402C26 53.7893 26 52.1385 26 50.4391C22.6856 50.4391 19.3994 50.4391 16 50.4391Z" fill="#A4238C"/>
<path d="M16 66.443C16 68.191 16 69.7448 16 71.4442C19.3428 71.4442 22.6289 71.4442 26 71.4442C26 69.7933 26 68.1424 26 66.443C22.6856 66.443 19.3994 66.443 16 66.443Z" fill="#A4238C"/>
<path d="M16 81.4468C16 83.1948 16 84.7486 16 86.4481C19.3428 86.4481 22.6289 86.4481 26 86.4481C26 84.7972 26 83.1463 26 81.4468C22.6856 81.4468 19.3994 81.4468 16 81.4468Z" fill="#A4238C"/>
<path d="M16 58.441C16 60.189 16 61.7428 16 63.4423C18.0057 63.4423 19.9773 63.4423 22 63.4423C22 61.7914 22 60.1405 22 58.441C20.0113 58.441 18.0397 58.441 16 58.441Z" fill="#A4238C"/>
<path d="M16 73.4448C16 75.1928 16 76.7466 16 78.446C18.0057 78.446 19.9773 78.446 22 78.446C22 76.7952 22 75.1443 22 73.4448C20.0113 73.4448 18.0397 73.4448 16 73.4448Z" fill="#A4238C"/>
<path d="M133.855 25.9491C133.639 22.7415 131.008 20.1106 127.8 19.9304C126.935 19.8943 78.6408 19.8583 67.4321 19.8943C66.2428 19.8943 65.2697 20.8674 65.2697 22.0568C65.2697 23.2461 66.2428 24.2192 67.4321 24.2192C78.4606 24.2192 125.746 24.2192 126.25 24.2192C128.953 24.2192 129.53 24.7598 129.53 27.4268C129.53 47.4654 129.53 67.504 129.53 87.5786V89.0202H8.43367V54.3491C8.43367 45.2669 8.43367 36.1486 8.43367 27.0664C8.43367 26.1654 8.57783 25.5527 8.86615 25.0842C9.29864 24.5075 9.55093 23.8227 9.55093 23.1019C9.55093 23.0299 9.55093 22.9578 9.55093 22.8857C9.55093 21.3359 7.78494 20.3989 6.52352 21.3359C4.90169 22.5613 4.07275 24.5796 4.07275 27.3547C4.07275 52.6552 4.07275 77.9918 4.07275 103.292C4.07275 108.23 6.63164 110.753 11.5692 110.753C49.8083 110.753 88.0474 110.753 126.322 110.753C131.296 110.753 133.819 108.23 133.819 103.292C133.819 77.9918 133.819 52.6552 133.819 27.3547C133.891 26.8502 133.891 26.4177 133.855 25.9491ZM129.566 103.869C129.566 105.599 128.809 106.356 127.115 106.392C126.791 106.392 126.503 106.392 126.178 106.392C88.0834 106.392 49.9885 106.392 11.8936 106.392C9.01032 106.392 8.50575 105.887 8.50575 103.04C8.50575 99.9045 8.50575 96.7329 8.50575 93.4892H129.494C129.53 93.7415 129.566 93.9577 129.566 94.174C129.566 97.3816 129.566 100.625 129.566 103.869Z" fill="#3F3F3F"/>
<path d="M55.2145 123.655C64.4409 123.655 73.5952 123.655 82.9658 123.655C82.7135 123.259 82.4973 123.007 82.3171 122.718C81.344 121.241 80.3348 119.835 79.4699 118.321C78.713 116.988 79.1094 115.654 80.2627 115.114C81.416 114.573 82.4612 115.114 83.2902 116.339C84.6597 118.321 86.1374 120.231 87.615 122.178C88.5521 123.403 89.7775 123.908 91.3633 123.763C92.4084 123.655 93.5257 123.763 94.5709 124.016C97.2379 124.7 99.1841 127.187 99.2561 129.962C99.2922 131.44 99.2922 132.918 99.2561 134.431C99.2201 135.873 98.3912 136.63 96.9496 136.738C96.6252 136.738 96.3369 136.738 96.0125 136.738C77.9922 136.738 59.9719 136.738 41.9516 136.738C39.2846 136.738 38.7079 136.161 38.7079 133.494C38.7079 132.377 38.6719 131.224 38.7079 130.107C38.816 126.575 41.6272 123.511 45.1231 123.836C48.3668 124.16 50.313 122.682 52.0069 120.412C52.98 119.114 53.845 117.745 54.6739 116.375C55.4668 115.078 56.548 114.609 57.7013 115.15C58.8546 115.69 59.2871 117.024 58.4942 118.357C57.5572 120.123 56.4039 121.817 55.2145 123.655ZM94.8952 132.305C95.1836 128.521 94.7511 128.016 91.147 128.016C76.1902 128.016 61.2693 128.016 46.3125 128.016C45.916 128.016 45.4835 127.98 45.0871 128.016C43.9698 128.124 43.249 128.773 43.1049 129.89C42.9967 130.683 43.0688 131.476 43.0688 132.305C60.4404 132.305 77.6318 132.305 94.8952 132.305Z" fill="#3F3F3F"/>
<path d="M69.1259 102.067C67.7203 102.067 66.3147 102.103 64.9452 102.067C63.5036 102.031 62.6386 101.238 62.6026 99.9766C62.5665 98.7152 63.5036 97.7782 64.9812 97.7421C67.7564 97.7061 70.5675 97.7061 73.3427 97.7421C74.8203 97.7782 75.7214 98.6792 75.6853 99.9766C75.6493 101.238 74.7843 101.995 73.3427 102.031C71.9371 102.103 70.5315 102.067 69.1259 102.067Z" fill="#A4238C"/>
<path d="M12.5781 10.9924V89.2365H16.5786V85.3441V81.4518H16.5426V77.5594H16.5786V73.703H16.5426V69.8106H16.5786V65.9182H16.5426V62.0259H16.5786V50.4208H16.5426V46.5644H16.5786V42.6721H16.5426V38.8157H16.5786V34.9594V31.103V17.1193V14.8127H30.5624V89.2365H34.4908V10.9924H12.5781Z" fill="#3F3F3F"/>
<path d="M41.0141 89.2366H44.9785V83.6143H56.4394V89.2366H60.4039V88.0833C60.4039 70.1712 60.4039 52.259 60.3679 34.3468C60.3679 33.626 60.2237 32.761 59.8633 32.1483C57.0521 27.3549 54.2049 22.6336 51.3217 17.8762C51.1415 17.5879 50.9252 17.2996 50.6369 16.9031C47.6095 21.9488 44.6181 26.8503 41.7349 31.7519C41.3024 32.5087 41.0141 33.5179 41.0141 34.3828C40.978 52.295 40.978 70.2072 40.978 88.1194V89.2366H41.0141ZM50.709 24.3635C52.4389 27.2468 54.0608 29.9498 55.7907 32.8331C54.1328 33.8062 52.6552 34.7432 51.1415 35.6082C50.9252 35.7163 50.5288 35.7524 50.3486 35.6443C48.7988 34.7432 47.2491 33.8062 45.6273 32.8331C47.3212 30.0219 48.943 27.3189 50.709 24.3635ZM44.9785 36.9778C46.6724 37.9869 48.2222 38.8519 49.6998 39.825C50.4567 40.3295 51.0334 40.2935 51.7902 39.7889C53.2679 38.8519 54.7816 37.9869 56.4394 36.9778V79.4696H44.9785V36.9778Z" fill="#3F3F3F"/>
<path d="M125.457 52.403C110.429 52.403 95.4357 52.403 80.4067 52.403C80.4067 45.1228 80.4067 37.9508 80.4067 30.6345C95.3996 30.6345 110.393 30.6345 125.457 30.6345C125.457 37.8787 125.457 45.0508 125.457 52.403ZM121.601 34.4909C109.095 34.4909 96.6971 34.4909 84.2991 34.4909C84.2991 39.2122 84.2991 43.8614 84.2991 48.5107C96.8052 48.5107 109.167 48.5107 121.601 48.5107C121.601 43.7893 121.601 39.2122 121.601 34.4909Z" fill="#3F3F3F"/>
<path d="M64.4404 85.9929C64.4404 84.7315 64.4404 83.5782 64.4404 82.2807C65.7019 82.2807 66.8912 82.2807 68.1887 82.2807C68.1887 66.2787 68.1887 50.4569 68.1887 34.4548C66.9633 34.4548 65.7379 34.4548 64.4765 34.4548C64.4765 33.1213 64.4765 31.932 64.4765 30.6345C68.2607 30.6345 72.045 30.6345 75.9374 30.6345C75.9374 31.8239 75.9374 33.0132 75.9374 34.3467C74.7481 34.3467 73.5587 34.3467 72.2252 34.3467C72.2252 50.3487 72.2252 66.1706 72.2252 82.1726C73.4145 82.1726 74.6399 82.1726 75.9374 82.1726C75.9374 83.5061 75.9374 84.6954 75.9374 85.9929C72.1531 85.9929 68.3689 85.9929 64.4404 85.9929Z" fill="#3F3F3F"/>
<path d="M100.914 56.4395C100.914 61.1248 100.914 65.738 100.914 70.4593C94.0661 70.4593 87.2905 70.4593 80.4067 70.4593C80.4067 65.8101 80.4067 61.1608 80.4067 56.4395C87.2545 56.4395 94.0661 56.4395 100.914 56.4395ZM97.0575 60.3319C92.6966 60.3319 88.5159 60.3319 84.2991 60.3319C84.2991 62.4943 84.2991 64.5126 84.2991 66.5669C88.5879 66.5669 92.8047 66.5669 97.0575 66.5669C97.0575 64.4766 97.0575 62.4583 97.0575 60.3319Z" fill="#3F3F3F"/>
<path d="M125.421 70.4953C118.61 70.4953 111.834 70.4953 104.95 70.4953C104.95 65.8461 104.95 61.1969 104.95 56.4395C111.726 56.4395 118.538 56.4395 125.421 56.4395C125.421 61.1248 125.421 65.774 125.421 70.4953ZM108.807 66.639C113.095 66.639 117.312 66.639 121.529 66.639C121.529 64.5126 121.529 62.4223 121.529 60.2959C117.24 60.2959 113.059 60.2959 108.807 60.2959C108.807 62.4223 108.807 64.4405 108.807 66.639Z" fill="#3F3F3F"/>
<path d="M82.2808 75.8295C85.2361 75.8295 88.1554 75.8295 91.1467 75.8295C91.1467 77.0549 91.1467 78.2802 91.1467 79.5417C88.1914 79.5417 85.2361 79.5417 82.2808 79.5417C82.2808 78.2802 82.2808 77.0909 82.2808 75.8295Z" fill="#A4238C"/>
<path d="M106.86 75.8295C109.816 75.8295 112.699 75.8295 115.69 75.8295C115.69 77.0549 115.69 78.2802 115.69 79.5777C112.771 79.5777 109.852 79.5777 106.86 79.5777C106.86 78.3523 106.86 77.163 106.86 75.8295Z" fill="#A4238C"/>
<path d="M95.2192 75.8295C96.4446 75.8295 97.634 75.8295 98.8954 75.8295C98.8954 77.0909 98.8954 78.2802 98.8954 79.5777C97.67 79.5777 96.4807 79.5777 95.2192 79.5777C95.2192 78.3523 95.2192 77.163 95.2192 75.8295Z" fill="#A4238C"/>
<path d="M123.475 79.5417C122.142 79.5417 120.988 79.5417 119.727 79.5417C119.727 78.2802 119.727 77.1269 119.727 75.8295C120.988 75.8295 122.178 75.8295 123.475 75.8295C123.475 77.0909 123.475 78.2442 123.475 79.5417Z" fill="#A4238C"/>
<path d="M48.835 44.7263C50.1324 44.7263 51.2857 44.7263 52.5471 44.7263C52.5471 48.9791 52.5471 53.1598 52.5471 57.4486C51.3218 57.4486 50.0964 57.4486 48.835 57.4486C48.835 53.2318 48.835 49.0511 48.835 44.7263Z" fill="#A4238C"/>
<path d="M52.5472 75.577C51.2858 75.577 50.1325 75.577 48.8711 75.577C48.8711 73.4867 48.8711 71.3963 48.8711 69.2339C50.0604 69.2339 51.2498 69.2339 52.5472 69.2339C52.5472 71.3242 52.5472 73.3786 52.5472 75.577Z" fill="#A4238C"/>
<path d="M48.835 65.1975C48.835 63.9721 48.835 62.8188 48.835 61.5214C50.0603 61.5214 51.2857 61.5214 52.5471 61.5214C52.5471 62.7467 52.5471 63.9 52.5471 65.1975C51.3578 65.1975 50.1324 65.1975 48.835 65.1975Z" fill="#A4238C"/>
</svg>
