<svg width="115" height="116" viewBox="0 0 115 116" fill="none" xmlns="http://www.w3.org/2000/svg">
<path d="M110.307 73.1125C110.307 72.6332 110.307 72.2498 110.307 71.8344C110.307 54.0688 110.307 36.3032 110.307 18.5057C110.307 16.1412 109.835 15.6619 107.446 15.6619C106.503 15.6619 105.56 15.6939 104.617 15.6619C103.454 15.63 102.762 14.8951 102.73 13.8087C102.699 12.6584 103.422 11.8916 104.648 11.8596C106.031 11.8276 107.415 11.7957 108.766 11.8596C111.564 12.0194 113.859 14.3519 114.048 17.1957C114.079 17.5791 114.079 17.9945 114.079 18.3779C114.079 40.8085 114.079 63.2711 114.079 85.7018C114.079 90.0792 111.879 92.3159 107.54 92.3159C74.1853 92.3159 40.8303 92.3159 7.44376 92.3159C3.1054 92.3159 0.904785 90.0792 0.904785 85.7018C0.904785 63.2711 0.904785 40.8085 0.904785 18.3779C0.904785 14.0643 3.13684 11.7957 7.38089 11.7957C8.32401 11.7957 9.26713 11.7637 10.2103 11.7957C11.5306 11.8276 12.2537 12.5306 12.2537 13.7448C12.2222 14.8951 11.5306 15.598 10.2731 15.63C9.20426 15.6619 8.16682 15.63 7.09795 15.63C5.33746 15.63 4.70871 16.269 4.70871 18.0903C4.70871 26.1424 4.70871 34.2263 4.70871 42.2783C4.70871 52.0558 4.70871 61.8333 4.70871 71.6427C4.70871 72.09 4.70871 72.5054 4.70871 73.0486C39.8871 73.1125 75.0342 73.1125 110.307 73.1125ZM4.67727 77.0746C4.67727 79.9823 4.67727 82.7621 4.67727 85.542C4.67727 88.0662 5.1174 88.5136 7.63239 88.5136C40.8617 88.5136 74.091 88.5136 107.32 88.5136C107.603 88.5136 107.855 88.5136 108.138 88.5136C109.615 88.4816 110.275 87.8106 110.275 86.2769C110.307 83.4012 110.275 80.5255 110.275 77.6497C110.275 77.458 110.244 77.2663 110.213 77.0426C75.0656 77.0746 39.95 77.0746 4.67727 77.0746Z" fill="#3F3F3F"/>
<path d="M95.2171 19.5601C70.0043 19.5601 44.9487 19.5601 19.7674 19.5601C19.7674 20.0714 19.7674 20.5507 19.7674 21.0299C19.7674 36.1754 19.7674 51.289 19.7674 66.4345C19.7674 66.8179 19.7988 67.2333 19.7359 67.6167C19.6102 68.6712 18.8557 69.3741 17.8182 69.3422C16.7808 69.2783 16.152 68.7351 15.9949 67.6487C15.932 67.2972 15.9634 66.9457 15.9634 66.5623C15.9634 46.6239 15.9634 26.7175 15.9634 6.77912C15.9634 2.62529 18.2269 0.324707 22.2823 0.324707C45.7346 0.324707 69.1869 0.324707 92.6392 0.324707C96.6318 0.324707 98.9267 2.65724 98.9267 6.71521C98.9267 26.7494 98.9267 46.8156 98.9267 66.8499C98.9267 68.5114 98.3923 69.2783 97.1977 69.3741C96.0974 69.47 95.28 68.799 95.1542 67.6806C95.1228 67.2972 95.1228 66.8818 95.1228 66.4984C95.1228 51.3529 95.1228 36.2393 95.1228 21.0938C95.2171 20.6146 95.2171 20.1353 95.2171 19.5601ZM95.2171 15.63C95.2171 12.7223 95.2171 9.91046 95.2171 7.13059C95.2171 4.6383 94.777 4.15901 92.3563 4.15901C69.0926 4.15901 45.8604 4.15901 22.5967 4.15901C22.3767 4.15901 22.1252 4.15901 21.9051 4.15901C20.4904 4.19096 19.7988 4.86197 19.7988 6.29983C19.7674 7.70574 19.7988 9.0797 19.7988 10.4856C19.7988 12.1791 19.7988 13.8726 19.7988 15.63C44.9801 15.63 70.0043 15.63 95.2171 15.63Z" fill="#3F3F3F"/>
<path d="M45.4514 103.819C53.4993 103.819 61.4844 103.819 69.6581 103.819C69.4381 103.467 69.2495 103.244 69.0923 102.988C68.2435 101.678 67.3632 100.432 66.6087 99.0898C65.9485 97.9076 66.2943 96.7254 67.3003 96.2461C68.3063 95.7668 69.218 96.2461 69.9411 97.3325C71.1357 99.0898 72.4246 100.783 73.7136 102.509C74.5309 103.595 75.5998 104.042 76.9831 103.915C77.8947 103.819 78.8693 103.915 79.781 104.138C82.1073 104.745 83.805 106.95 83.8678 109.411C83.8993 110.721 83.8993 112.031 83.8678 113.373C83.8364 114.651 83.1133 115.322 81.8559 115.418C81.5729 115.418 81.3214 115.418 81.0385 115.418C65.3198 115.418 49.6011 115.418 33.8824 115.418C31.556 115.418 31.053 114.906 31.053 112.542C31.053 111.551 31.0216 110.529 31.053 109.538C31.1473 106.407 33.5995 103.691 36.6489 103.979C39.4783 104.266 41.1759 102.956 42.6534 100.943C43.5022 99.7928 44.2567 98.5786 44.9798 97.3644C45.6714 96.2141 46.6145 95.7987 47.6205 96.278C48.6265 96.7573 49.0038 97.9396 48.3122 99.1218C47.4948 100.687 46.4888 102.189 45.4514 103.819ZM80.0639 111.487C80.3154 108.132 79.9382 107.685 76.7944 107.685C63.7479 107.685 50.7328 107.685 37.6863 107.685C37.3405 107.685 36.9633 107.653 36.6175 107.685C35.6429 107.781 35.0141 108.356 34.8884 109.347C34.7941 110.05 34.857 110.753 34.857 111.487C50.0098 111.487 65.0054 111.487 80.0639 111.487Z" fill="#3F3F3F"/>
<path d="M62.9309 27.1648C64.5028 27.1328 65.3516 28.379 64.88 29.8488C63.7483 33.3636 62.5851 36.8783 61.4533 40.3931C58.9384 48.0298 56.4548 55.6664 53.9398 63.2711C53.3111 65.1563 52.5251 65.7953 51.2991 65.4119C50.0102 64.9965 49.7272 64.006 50.3874 62.0249C54.0027 51.0013 57.6494 39.9458 61.2333 28.9222C61.5477 27.9636 62.0192 27.2287 62.9309 27.1648Z" fill="#A4238C"/>
<path d="M34.0397 46.3365C37.152 48.9886 40.1699 51.5128 43.1879 54.069C43.5337 54.3886 43.9424 54.6761 44.1625 55.0915C44.634 55.9862 44.414 56.817 43.6595 57.456C42.8421 58.159 41.9933 58.0631 41.2074 57.3921C38.7238 55.3152 36.2717 53.2063 33.7882 51.1294C32.5935 50.1069 31.3675 49.0844 30.1729 48.062C28.8839 46.9436 28.8525 45.7614 30.1729 44.675C33.7567 41.6395 37.3406 38.572 40.9244 35.5365C41.9933 34.6099 43.0936 34.6099 43.8481 35.5046C44.634 36.4312 44.4454 37.5496 43.3137 38.5081C40.2643 41.0643 37.2148 43.6525 34.0397 46.3365Z" fill="#A4238C"/>
<path d="M80.9129 46.3365C78.2722 44.0999 75.6943 41.8952 73.1165 39.6905C72.5506 39.2112 71.9533 38.7319 71.3874 38.2206C70.5386 37.4538 70.4443 36.3674 71.1045 35.5367C71.7647 34.7059 72.865 34.5142 73.7452 35.2491C77.5491 38.4443 81.3531 41.6715 85.1255 44.9306C86.1944 45.8572 86.0058 47.0714 84.7797 48.0939C81.4788 50.9057 78.1465 53.7175 74.8455 56.5293C74.4997 56.8169 74.1853 57.1045 73.8395 57.3601C72.865 58.1269 71.8275 58.063 71.1359 57.2003C70.4129 56.3376 70.5072 55.2193 71.5132 54.3885C74.374 51.9601 77.2348 49.5318 80.0956 47.1034C80.3156 46.8797 80.5671 46.6241 80.9129 46.3365Z" fill="#A4238C"/>
<path d="M57.5865 84.6795C56.3605 84.6795 55.1344 84.7115 53.9398 84.6795C52.6823 84.6476 51.9278 83.9446 51.8964 82.8262C51.8649 81.7079 52.6823 80.8771 53.9713 80.8451C56.3919 80.8132 58.844 80.8132 61.2647 80.8451C62.5536 80.8771 63.3396 81.6759 63.3081 82.8262C63.2767 83.9446 62.5222 84.6156 61.2647 84.6476C60.0387 84.7115 58.8126 84.6795 57.5865 84.6795Z" fill="#A4238C"/>
<path d="M78.1152 11.8277C74.4999 11.8277 70.8846 11.8277 67.2693 11.8277C65.7289 11.8277 64.9744 11.1567 65.0058 9.87861C65.0373 8.66441 65.8232 7.99341 67.2379 7.99341C74.5313 7.99341 81.8562 7.99341 89.1497 7.99341C90.5644 7.99341 91.3817 8.69636 91.3817 9.91056C91.3817 11.0928 90.5644 11.8277 89.1811 11.8277C85.503 11.8597 81.8248 11.8277 78.1152 11.8277Z" fill="#A4238C"/>
<path d="M27.3123 9.94262C27.3123 10.9651 26.4321 11.8597 25.4261 11.8278C24.4201 11.8278 23.5713 10.9331 23.5713 9.91067C23.5713 8.85626 24.4201 8.02551 25.4575 8.02551C26.4635 8.02551 27.3123 8.88821 27.3123 9.94262Z" fill="#A4238C"/>
<path d="M32.9708 11.8274C31.9649 11.8274 31.0846 10.9647 31.1161 9.9103C31.1161 8.85589 31.9649 7.9932 33.0023 8.02515C34.0397 8.02515 34.8885 8.88785 34.8571 9.94225C34.8571 10.9647 33.9768 11.8274 32.9708 11.8274Z" fill="#A4238C"/>
<path d="M40.5474 8.02518C41.5849 8.05714 42.4023 8.9518 42.3708 9.97428C42.3394 10.9967 41.4591 11.8595 40.4531 11.8275C39.4471 11.7956 38.5983 10.9009 38.6298 9.87842C38.6612 8.82399 39.5414 7.99323 40.5474 8.02518Z" fill="#A4238C"/>
</svg>
